<svg width="129" height="115" viewBox="0 0 129 115" fill="none" xmlns="http://www.w3.org/2000/svg">
<path d="M28.9731 90.0476L28.9733 90.0477C34.7221 92.4802 40.8206 93.7133 47.1067 93.7133C53.393 93.7133 59.4915 92.4801 65.2399 90.0477L65.2405 90.0474C70.7839 87.6932 75.775 84.3385 80.0519 80.0519C84.3383 75.7751 87.6982 70.7839 90.0476 65.2402L90.0478 65.24C92.4801 59.4912 93.7133 53.3929 93.7133 47.1066C93.7133 40.8203 92.4801 34.7219 90.0478 28.9733L90.0475 28.9727C87.693 23.4289 84.3381 18.4476 80.0519 14.1614C75.7751 9.87495 70.7839 6.51519 65.2402 4.16569L65.2399 4.16558C59.4912 1.73316 53.393 0.5 47.1067 0.5C40.8204 0.5 34.7219 1.73318 28.9733 4.16558L28.9727 4.16584C23.4285 6.52047 18.4475 9.88498 14.1618 14.161C9.87522 18.4379 6.51527 23.4292 4.1657 28.973L4.16558 28.9733C1.73316 34.722 0.5 40.8203 0.5 47.1066C0.5 53.3929 1.73318 59.4914 4.16558 65.24L4.16584 65.2406C6.5201 70.7839 9.87484 75.7749 14.1614 80.0519C18.4382 84.3383 23.4294 87.6981 28.9731 90.0476ZM3.42073 47.1069C3.42073 23.0229 23.0238 3.42098 47.1067 3.42098C71.1906 3.42098 90.7926 23.0229 90.7926 47.1069C90.7926 71.1909 71.1943 90.7928 47.1067 90.7928C23.0226 90.7928 3.42073 71.1946 3.42073 47.1069Z" fill="white" stroke="white"/>
<path d="M79.9431 79.5455H81.2868L80.8818 79.1957C81.1839 78.9414 81.3829 78.5677 81.4027 78.1473L81.4028 78.1473L81.403 78.1394C81.4628 76.234 81.1549 73.3568 79.3101 70.5269C77.2071 67.2949 73.6429 64.9218 68.7993 63.4344C68.7522 63.4171 68.7119 63.4072 68.6781 63.4002C68.4698 63.3494 65.0968 62.4667 64.5801 58.455C64.5152 57.9503 64.2017 57.5167 63.7333 57.3046L63.7326 57.3043C63.3517 57.1326 62.6175 56.7281 61.9303 56.1696C61.2313 55.6014 60.6549 54.9333 60.4705 54.2496C60.3181 53.68 60.4396 53.0693 60.9595 52.3423C60.9617 52.3394 60.9639 52.3364 60.9663 52.3331C60.9989 52.2886 61.0533 52.2144 61.0985 52.1091C61.1795 51.959 61.596 51.2256 62.397 50.7015C63.4952 49.9899 64.9219 49.9415 66.7265 50.7239C67.1671 51.0372 68.4227 51.8223 70.2644 52.2621L70.2654 52.2624C72.3289 52.7506 75.5436 52.9038 79.2595 50.8565C79.392 50.7918 79.4906 50.7155 79.5851 50.6218C79.5862 50.6208 79.5877 50.6194 79.5897 50.6176C79.5941 50.6136 79.6003 50.608 79.6083 50.6011C79.6243 50.5872 79.6471 50.5681 79.6765 50.5449C79.7353 50.4984 79.8197 50.4362 79.9283 50.3671C80.1459 50.2286 80.4577 50.0644 80.8529 49.9422C81.6267 49.7031 82.7478 49.6161 84.1559 50.2499C84.4037 50.4143 85 50.7848 85.7194 51.0842C87.1246 51.6784 88.4026 51.7837 89.4287 51.1905L89.4288 51.1904C90.6488 50.4848 91.0902 49.0736 90.9568 47.2718C90.9725 46.8705 90.9992 45.4597 90.679 43.8169C90.3524 42.1404 89.6503 40.1481 88.1313 38.7696L88.1181 38.7576L88.1042 38.7467L88.0943 38.7389C88.0327 38.6904 87.9306 38.6099 87.8073 38.5484L87.807 38.5491C87.7986 38.5445 87.7894 38.5394 87.7792 38.5338C87.2519 38.2451 84.3156 36.6369 81.7385 34.0426C78.212 30.4879 77.0951 26.9441 78.2096 23.4366C78.463 23.0978 79.6468 21.7333 83.0176 20.3631L83.0196 20.3623C83.7641 20.0557 84.1197 19.2093 83.8221 18.4615L83.8222 18.4615L83.8199 18.4561C83.5134 17.7115 82.6669 17.356 81.9192 17.6536L81.9192 17.6536L81.9154 17.6551C77.0719 19.6287 75.7741 21.7626 75.592 22.1048L75.5918 22.1048L75.586 22.1165C75.5527 22.1833 75.5269 22.2477 75.5088 22.2929L75.5067 22.2981L75.5017 22.3106L75.4974 22.3234C73.8975 27.0467 75.4128 31.8338 79.6943 36.1302L79.6946 36.1305C82.4458 38.8864 85.486 40.6091 86.2856 41.0396C87.2174 41.9749 87.6706 43.4492 87.8776 44.78C88.066 45.992 88.038 46.9925 88.0312 47.1954C88.0245 47.2672 88.0249 47.3424 88.0323 47.4138C88.0746 47.9188 88.0466 48.263 87.9977 48.4771C87.9752 48.5755 87.9521 48.6314 87.938 48.66C87.9078 48.6639 87.8517 48.6672 87.7604 48.6579C87.6001 48.6415 87.3923 48.5922 87.1523 48.5096C86.6731 48.3447 86.1313 48.0703 85.6968 47.771L85.6968 47.7709L85.6905 47.7667C85.6211 47.7204 85.5489 47.6843 85.5053 47.6625L85.4979 47.6588L85.4979 47.6586L85.4859 47.653C83.0744 46.5235 81.0649 46.7812 79.8 47.2198C78.7474 47.576 78.0374 48.1067 77.7249 48.3672C75.4395 49.5906 73.196 49.9376 71.0207 49.4388C70.1811 49.2459 69.5065 48.9566 69.0435 48.7163C68.8122 48.5963 68.6347 48.489 68.5168 48.413C68.4578 48.3751 68.414 48.345 68.386 48.3253C68.3785 48.3201 68.3722 48.3156 68.3672 48.3119C68.3628 48.3088 68.3594 48.3063 68.3568 48.3043C68.272 48.2351 68.1675 48.1668 68.0468 48.1169C64.5938 46.5624 62.1565 47.3373 60.7027 48.3154L60.7026 48.3154C59.3892 49.1994 58.722 50.341 58.5117 50.743C57.5633 52.1123 57.2486 53.5549 57.6413 55.0126C57.9861 56.2928 58.8311 57.3283 59.6911 58.1017C60.4527 58.7867 61.2545 59.2916 61.8089 59.6028C62.3724 62.3034 63.8847 63.9371 65.1233 64.8427C66.4168 65.8001 67.6601 66.1507 67.9589 66.2277C72.7299 67.6971 75.3701 69.8845 76.8117 72.0571C78.2574 74.236 78.5331 76.4539 78.478 78.0387L78.4779 78.0425C78.456 78.8441 79.0831 79.5158 79.8864 79.5452L79.8955 79.5455H79.9047H79.9431Z" fill="white" stroke="white"/>
<path d="M40.0475 87.7919H39.8979C38.8638 87.7919 37.9382 87.249 37.1473 86.3072C36.3833 85.3986 35.7018 84.0847 35.0456 82.3163C34.9787 82.1434 34.9506 81.9673 34.9506 81.7976V81.7973C34.9507 81.7592 34.9566 78.8244 34.0532 75.2247C33.2232 71.9431 31.4455 67.4778 27.7203 64.5916C27.4116 64.3548 24.664 62.1147 23.4019 56.3589L23.4017 56.358C22.9434 54.2486 22.7512 52.932 22.6342 52.1311L22.6224 52.0503C22.6132 51.9879 22.6045 51.9278 22.5962 51.8705C22.582 51.7734 22.569 51.6842 22.557 51.6058C21.7322 51.281 20.1267 50.5991 16.9597 48.0644C14.5694 46.1561 12.3568 43.899 10.3887 41.3576C7.8862 38.1408 5.75147 34.4423 4.04539 30.376C3.73116 29.6342 4.08457 28.7796 4.81587 28.461L4.8197 28.4594L4.8197 28.4594C5.56197 28.1434 6.41815 28.4967 6.73703 29.2289L6.73973 29.2351L6.73969 29.2351C9.64164 36.1523 13.701 41.7096 18.79 45.7803C21.7727 48.1607 23.1028 48.6775 23.7199 48.9173L23.7209 48.9177L23.7236 48.9187C23.7355 48.9235 23.7476 48.9282 23.7598 48.933C24.1603 49.0909 24.7316 49.3161 25.1008 49.954M40.0475 87.7919L37.3958 81.6246C37.3814 80.8851 37.2949 78.0898 36.4352 74.6799L36.9202 74.5584C36.9201 74.5582 36.9201 74.5579 36.92 74.5577C36.3346 72.2206 35.5083 70.0718 34.4723 68.1816L34.4723 68.1816C33.1621 65.7917 31.5029 63.8033 29.53 62.2784C29.523 62.2728 29.5154 62.2669 29.5072 62.2611C29.502 62.2573 29.4965 62.2535 29.4907 62.2496C29.4456 62.2115 29.3228 62.1033 29.147 61.914C28.9236 61.6734 28.6171 61.3047 28.2788 60.7879C27.6027 59.7552 26.7958 58.1258 26.271 55.7363C25.8254 53.6912 25.6436 52.434 25.5333 51.672L25.5287 51.6398C25.5286 51.6392 25.5285 51.6387 25.5284 51.6381C25.5246 51.6104 25.5208 51.583 25.5171 51.556C25.4228 50.872 25.3571 50.3953 25.1008 49.954M40.0475 87.7919L40.0842 87.7678M40.0475 87.7919L40.0842 87.7678M25.1008 49.954C25.1008 49.954 25.1007 49.9539 25.1007 49.9538L24.6684 50.205L25.1012 49.9547C25.1011 49.9545 25.1009 49.9543 25.1008 49.954ZM40.0842 87.7678C41.5637 87.6727 42.7826 86.4782 43.7665 84.5777L43.7669 84.5769C44.1005 83.9298 44.3615 83.2934 44.5411 82.8141C44.7018 82.3855 44.8363 81.9673 44.8257 81.9952M40.0842 87.7678L26.6889 40.2208C26.6856 40.2405 26.6661 40.3583 26.774 40.6412C26.8884 40.9414 27.1095 41.3272 27.4413 41.7689M44.8257 81.9952L44.827 81.9915C44.8862 81.8223 44.8983 81.6595 44.8983 81.5334L44.8982 81.5258C44.8419 77.8169 45.7147 75.1293 46.4469 73.535C47.2337 71.8358 48.0305 70.9815 48.0273 70.9847L48.0274 70.9847L48.0319 70.9801C51.0059 67.9285 53.1029 64.9942 54.2262 62.2482C55.0868 60.1526 55.0623 58.8876 55.046 58.6434C55.0425 58.544 55.0188 58.4349 55.015 58.4172L55.0144 58.4148L55.0116 58.3992L55.0078 58.3838C53.834 53.6509 50.5674 50.8519 46.8859 49.222C43.217 47.5976 39.1018 47.1153 36.1176 47.0111M44.8257 81.9952L44.8251 81.9969L44.8257 81.9952ZM36.1176 47.0111C36.1177 47.0111 36.1178 47.0111 36.1179 47.0111L36.0996 47.5107L36.117 47.011C36.1172 47.011 36.1174 47.011 36.1176 47.0111ZM36.1176 47.0111C33.817 46.9267 32.3239 46.7624 31.0874 46.0983C29.8643 45.4414 28.8238 44.2548 27.5569 41.9441L27.55 41.9315L27.5425 41.9194L27.5397 41.9149C27.5171 41.8787 27.4833 41.8247 27.4413 41.7689M27.4413 41.7689L27.0423 42.0687L27.4411 41.7686C27.4412 41.7687 27.4412 41.7688 27.4413 41.7689ZM36.0238 49.9409L36.0231 49.9409C33.3847 49.8447 31.443 49.614 29.7054 48.681L29.7051 48.6809C27.9285 47.7259 26.5338 46.1262 25.0583 43.449C23.839 41.7977 23.401 40.2134 24.1262 38.8564M36.0238 49.9409L27.7278 37.3143M36.0238 49.9409C38.6704 50.0337 42.2485 50.4452 45.3985 51.7744C48.5193 53.0913 51.1716 55.2847 52.1419 58.9285M36.0238 49.9409L52.1419 58.9285M24.1262 38.8564C24.1264 38.8561 24.1265 38.8558 24.1267 38.8555L24.5676 39.0913L24.126 38.8568C24.126 38.8567 24.1261 38.8566 24.1262 38.8564ZM24.1262 38.8564C24.7283 37.7228 25.9786 37.0857 27.6487 36.8206M27.6487 36.8206L27.7278 37.3143M27.6487 36.8206C27.6489 36.8206 27.6492 36.8205 27.6494 36.8205L27.7278 37.3143M27.6487 36.8206C28.5228 36.6805 29.3188 36.6884 29.6309 36.6936C31.5307 36.4087 32.6468 35.5609 33.291 34.8014C33.6187 34.4152 33.8287 34.0463 33.956 33.7755C34.0196 33.6402 34.0622 33.5303 34.0882 33.4562C34.1013 33.4192 34.11 33.3915 34.115 33.3746L34.1186 33.3621L34.1202 33.3559C34.1481 33.2441 34.192 33.1229 34.2622 33.0034C36.5886 28.7708 39.7738 26.9329 42.0547 26.1508C44.1257 25.4333 45.826 25.4335 46.4039 25.4679C48.7167 25.1162 50.137 24.1667 50.7966 22.7181C51.2829 21.6497 51.2068 20.6363 51.191 20.4298L51.1899 20.4298C51.1896 20.425 51.1892 20.4198 51.1888 20.4145C51.1845 20.3556 51.178 20.2677 51.1851 20.1676C51.2596 19.0521 50.9867 18.3101 50.4312 17.7927C49.7974 17.2081 48.7767 16.9019 47.7121 16.7761C46.6625 16.652 45.6636 16.7139 45.1677 16.7873L45.1651 16.7877C44.6561 16.8604 44.1443 16.6635 43.8164 16.2555C42.5206 14.6472 40.9281 13.7823 39.0945 13.6358C38.3858 13.58 37.7637 13.646 37.3178 13.7261C37.0954 13.7661 36.9184 13.8094 36.7981 13.8421C36.7381 13.8584 36.692 13.8721 36.6611 13.8816L36.6249 13.8929C36.598 13.9034 36.5521 13.9199 36.4965 13.9318C32.7586 14.9457 29.3151 15.2193 26.2467 14.731L26.2462 14.7309C23.6859 14.3207 21.4048 13.3889 19.4666 11.949C18.8157 11.466 18.6864 10.5522 19.1663 9.90503L19.1663 9.90503C19.6492 9.25377 20.5632 9.12437 21.2105 9.60431L21.2116 9.60511C24.6672 12.1819 29.6474 12.751 35.6999 11.1169C36.0332 11.0054 37.4225 10.5884 39.222 10.7126L27.7278 37.3143M29.2123 62.1658C29.213 62.1658 29.2142 62.1658 29.2154 62.1658L29.2129 62.1658H29.2123ZM29.2123 62.1658C29.2118 62.1658 29.2116 62.1658 29.2118 62.1658H29.2119H29.2121H29.2123ZM52.1419 58.9285C52.1255 59.2 52.0242 60.0287 51.4647 61.3372L52.1419 58.9285ZM39.4758 84.5137C39.1012 84.0983 38.5521 83.2455 37.8938 81.5274L51.4644 61.338C50.7855 62.9171 49.2764 65.546 45.9534 68.9595C45.7013 69.2136 41.9494 73.2562 41.9957 81.3373C41.8704 81.7038 41.594 82.4799 41.1934 83.2471L41.1922 83.2494C40.8515 83.9101 40.5411 84.335 40.2931 84.588C40.0811 84.8044 39.9544 84.8559 39.9208 84.8677C39.8687 84.8508 39.7163 84.7806 39.4758 84.5137ZM39.9344 84.8715C39.9387 84.8719 39.9409 84.8724 39.9409 84.8726C39.9408 84.8727 39.9387 84.8725 39.9344 84.8715ZM26.689 40.218L26.6918 40.2126C26.7049 40.1877 26.7711 40.1066 26.9763 40.0063C27.169 39.9121 27.4285 39.8282 27.7336 39.7612C28.3417 39.6275 29.0567 39.5766 29.6136 39.605C29.7109 39.6118 29.7989 39.6049 29.8536 39.6006C29.8577 39.6003 29.8617 39.5999 29.8655 39.5997L29.8801 39.5985L29.8946 39.5966C32.8631 39.1927 34.6131 37.761 35.5631 36.6096L35.5639 36.6087C36.376 35.6194 36.7366 34.6849 36.8717 34.2793C38.3751 31.6026 40.4106 29.8153 42.9134 28.9295L42.9141 28.9292C44.6793 28.3015 46.0884 28.3615 46.3203 28.375L46.3202 28.3759C46.4131 28.3821 46.5253 28.3832 46.6405 28.3678L46.6421 28.3676C50.8632 27.7905 52.7055 25.6013 53.4871 23.8181C54.1932 22.2199 54.1397 20.7208 54.0972 20.2316C54.1955 18.3508 53.6432 16.7867 52.4035 15.6425C51.2976 14.6163 49.8399 14.1438 48.5304 13.935C47.3615 13.7486 46.2686 13.7657 45.5607 13.8118C43.4053 11.4891 40.9568 10.8316 39.2222 10.7126L26.689 40.218ZM34.1194 33.3592L34.1193 33.3598C34.1197 33.3583 34.12 33.357 34.1203 33.3559C34.1211 33.3526 34.1213 33.3522 34.1203 33.3559C34.1201 33.3568 34.1198 33.3579 34.1194 33.3592Z" fill="white" stroke="white"/>
<g filter="url(#filter0_bd_106_54)">
<path d="M123.024 82.2546L115.072 74.6574C107.198 67.137 96.699 63 85.4932 63C74.2872 63 63.7885 67.137 55.9146 74.6574L47.9619 82.2546C46.1859 84.1463 47.2861 86.161 47.9619 86.7453L55.9146 94.3427C63.7885 101.863 74.2872 106 85.4932 106C96.699 106 107.198 101.863 115.072 94.3427L123.024 86.7453C123.653 86.161 124.863 84.2232 123.024 82.2546ZM85.4932 99.612C79.4422 99.612 68.8304 90.4209 68.8304 84.5C68.8304 78.579 79.4422 68.9905 85.4932 68.9905C91.5441 68.9905 103.375 78.579 103.375 84.5C103.375 90.4209 91.5441 99.612 85.4932 99.612ZM51.3548 84.5L59.8894 76.1487C64.1327 72.0887 70.9099 68.9684 76.5522 67.3997C72.1199 70.4909 63.9534 78.7943 63.9534 84.5C63.9534 90.2057 72.9329 98.1269 77.365 101.203C71.7227 99.634 62.1009 94.51 57.8573 90.4652L51.3548 84.5ZM111.91 93.274C107.666 97.3188 101.194 99.634 95.5517 101.203C99.9839 98.1115 109.065 90.2057 109.065 84.5C109.065 78.779 99.9839 70.4756 95.5517 67.3997C101.194 68.9684 108.073 72.5114 112.316 76.5715L120.444 84.1275L111.91 93.274Z" fill="white"/>
<path d="M123.39 81.9133L123.38 81.9029L123.37 81.8931L115.417 74.2958L115.417 74.2958C107.447 66.6837 96.8234 62.5 85.4932 62.5C74.1628 62.5 63.5392 66.6837 55.5692 74.2958L55.5692 74.2958L47.6165 81.8931L47.6066 81.9025L47.5973 81.9124C46.5983 82.9765 46.3868 84.1121 46.5494 85.0736C46.7055 85.9961 47.2028 86.7449 47.6248 87.1148L55.5692 94.7043L55.5692 94.7043C63.5392 102.316 74.1628 106.5 85.4932 106.5C96.8234 106.5 107.447 102.316 115.417 94.7043L115.417 94.7042L123.365 87.1115C123.366 87.1107 123.366 87.11 123.367 87.1092C123.745 86.757 124.267 86.0361 124.441 85.1115C124.622 84.1523 124.418 83.0144 123.39 81.9133ZM74.0686 68.6958C72.1824 70.2895 70.0534 72.3899 68.2036 74.653C66.8912 76.2585 65.7095 77.9578 64.8537 79.6277C64.0009 81.2918 63.4534 82.9622 63.4534 84.5C63.4534 86.05 64.06 87.7036 64.9917 89.3326C65.9269 90.9678 67.2131 92.6188 68.6272 94.174C70.5333 96.2701 72.6914 98.2135 74.5825 99.7343C72.337 98.8647 69.7953 97.6681 67.3257 96.3234C63.6995 94.3488 60.2774 92.0813 58.2022 90.1033L58.2023 90.1032L58.1953 90.0968L52.0817 84.4883L60.2371 76.5081C63.7661 73.1324 69.1121 70.3981 74.0686 68.6958ZM111.97 76.9328L111.976 76.9377L119.737 84.1526L111.554 92.9221C108.051 96.2556 102.97 98.4052 98.081 99.9365C100.04 98.3852 102.327 96.3607 104.339 94.17C105.765 92.616 107.064 90.9665 108.009 89.3325C108.951 87.7048 109.565 86.0514 109.565 84.5C109.565 82.9464 108.952 81.2664 108.012 79.6013C107.068 77.9291 105.77 76.2294 104.344 74.6256C102.373 72.4092 100.135 70.3531 98.1996 68.7797C103.125 70.578 108.471 73.5851 111.97 76.9328ZM85.4932 99.112C84.0939 99.112 82.3787 98.576 80.5665 97.6392C78.7628 96.7068 76.9032 95.3981 75.2253 93.903C73.5469 92.4075 72.0636 90.7372 71.0036 89.0887C69.9376 87.4308 69.3304 85.8426 69.3304 84.5C69.3304 83.1559 69.9387 81.5418 71.0063 79.845C72.0675 78.1582 73.5521 76.4379 75.2312 74.8928C76.91 73.348 78.77 71.9904 80.5735 71.0217C82.3861 70.048 84.0986 69.4905 85.4932 69.4905C86.8914 69.4905 88.6826 70.0503 90.6143 71.0274C92.5351 71.9989 94.549 73.3598 96.3806 74.9068C98.2129 76.4546 99.8484 78.1767 101.021 79.8641C102.203 81.5641 102.875 83.1708 102.875 84.5C102.875 85.8274 102.204 87.4084 101.024 89.0695C99.8526 90.7188 98.2184 92.3911 96.3867 93.8893C94.5559 95.3868 92.5421 96.6986 90.6211 97.6338C88.6899 98.574 86.896 99.112 85.4932 99.112Z" stroke="white"/>
</g>
<defs>
<filter id="filter0_bd_106_54" x="37" y="53" width="97" height="63" filterUnits="userSpaceOnUse" color-interpolation-filters="sRGB">
<feFlood flood-opacity="0" result="BackgroundImageFix"/>
<feGaussianBlur in="BackgroundImageFix" stdDeviation="4.5"/>
<feComposite in2="SourceAlpha" operator="in" result="effect1_backgroundBlur_106_54"/>
<feColorMatrix in="SourceAlpha" type="matrix" values="0 0 0 0 0 0 0 0 0 0 0 0 0 0 0 0 0 0 127 0" result="hardAlpha"/>
<feOffset dy="4"/>
<feGaussianBlur stdDeviation="2"/>
<feComposite in2="hardAlpha" operator="out"/>
<feColorMatrix type="matrix" values="0 0 0 0 0 0 0 0 0 0 0 0 0 0 0 0 0 0 0.25 0"/>
<feBlend mode="normal" in2="effect1_backgroundBlur_106_54" result="effect2_dropShadow_106_54"/>
<feBlend mode="normal" in="SourceGraphic" in2="effect2_dropShadow_106_54" result="shape"/>
</filter>
</defs>
</svg>
