<svg width="93" height="93" viewBox="0 0 93 93" fill="none" xmlns="http://www.w3.org/2000/svg">
<g clip-path="url(#clip0_104_2)">
<path fill-rule="evenodd" clip-rule="evenodd" d="M46.8933 92.9665C40.6737 92.9665 34.6415 91.7466 28.9548 89.3404C23.4701 87.0159 18.5328 83.6923 14.3016 79.4515C10.0608 75.2203 6.74209 70.2831 4.41268 64.7983C2.00654 59.1118 0.786621 53.0796 0.786621 46.8598C0.786621 40.64 2.00652 34.608 4.41268 28.9213C6.73718 23.4366 10.0608 18.4993 14.3016 14.2681C18.5424 10.0369 23.47 6.70864 28.9548 4.37923C34.6413 1.97309 40.6735 0.753174 46.8933 0.753174C53.1131 0.753174 59.145 1.97307 64.8317 4.37923C70.3164 6.70373 75.2538 10.0273 79.485 14.2681C83.7258 18.5089 87.0445 23.4365 89.3739 28.9213C91.78 34.6078 92.9999 40.64 92.9999 46.8598C92.9999 53.0796 91.78 59.1116 89.3739 64.7983C87.0494 70.283 83.7258 75.2203 79.485 79.4515C75.2538 83.6923 70.3166 87.011 64.8317 89.3404C59.1453 91.7465 53.1131 92.9665 46.8933 92.9665ZM46.8933 2.67415C22.5343 2.67415 2.70735 22.4999 2.70735 46.8601C2.70735 71.2239 22.5331 91.046 46.8933 91.046C71.2571 91.046 91.0792 71.2202 91.0792 46.8601C91.0792 22.4999 71.2534 2.67415 46.8933 2.67415Z" fill="white"/>
<path fill-rule="evenodd" clip-rule="evenodd" d="M79.7297 78.7987H79.6913C79.163 78.7794 78.7499 78.3376 78.7643 77.8093C78.8796 74.4954 77.6117 68.492 67.8812 65.4995C67.6363 65.4371 66.4452 65.1105 65.2061 64.1931C64.0102 63.319 62.5357 61.7197 62.0411 59.0302C60.9845 58.4635 58.5303 56.9362 57.9107 54.6357C57.5601 53.3342 57.8339 52.0326 58.7272 50.7552C58.9001 50.419 59.5196 49.3239 60.7684 48.4834C62.0891 47.5949 64.3465 46.8457 67.6363 48.3297C67.7083 48.3585 67.7756 48.4018 67.8332 48.4498C67.838 48.4546 68.9186 49.2711 70.6956 49.6793C73.0201 50.2124 75.4023 49.8282 77.794 48.5362C78.0534 48.3153 78.7258 47.7918 79.7487 47.446C80.911 47.0426 82.7841 46.7928 85.0605 47.859C85.1086 47.8831 85.1566 47.9071 85.1998 47.9359C86.1411 48.5843 87.5291 49.1174 87.9998 48.8436C88.2111 48.7235 88.408 48.2 88.3167 47.1195C88.3119 47.0762 88.3119 47.0282 88.3167 46.985C88.3167 46.9418 88.5425 42.4848 86.3717 40.386C85.7041 40.0306 82.6159 38.316 79.8351 35.5304C75.6472 31.328 74.2351 26.7319 75.7576 22.237C75.7768 22.189 75.796 22.141 75.82 22.0929C75.9401 21.8672 77.1408 19.8068 81.8907 17.8713C82.3854 17.6744 82.9425 17.9097 83.1442 18.3996C83.3411 18.8943 83.1058 19.4514 82.6159 19.6531C78.9417 21.1467 77.7507 22.6596 77.5442 22.9622C76.3147 26.7276 77.5346 30.4833 81.1702 34.1479C84.023 37.0199 87.3417 38.7297 87.3706 38.7489C87.4475 38.7873 87.5147 38.8402 87.5819 38.893C90.3867 41.4384 90.2715 46.3612 90.2427 47.0337C90.3772 48.7723 89.9449 49.9441 88.9651 50.5108C88.1343 50.9911 87.0392 50.9431 85.6993 50.3763C84.9837 50.0786 84.393 49.704 84.1864 49.5647C81.0983 48.1527 79.1435 49.9009 79.0235 50.0161C78.9562 50.0834 78.8986 50.1266 78.817 50.165C75.2245 52.1486 72.1363 51.9949 70.1672 51.529C68.3373 51.092 67.1174 50.2995 66.762 50.0402C64.8409 49.1949 63.208 49.1949 61.9113 50.0354C60.9267 50.679 60.4608 51.5963 60.4321 51.6491C60.4081 51.7116 60.3792 51.75 60.3408 51.8028C59.7597 52.6145 59.5724 53.3781 59.7741 54.1321C60.2255 55.8083 62.4828 57.1386 63.3137 57.5133C63.6211 57.6525 63.8276 57.9359 63.8708 58.2721C64.4375 62.6714 68.1933 63.6031 68.3565 63.6416C68.3806 63.6464 68.3998 63.6512 68.4238 63.6608C73.2025 65.1256 76.6557 67.4453 78.6776 70.5528C80.4498 73.2711 80.7476 76.0375 80.6899 77.8769C80.6659 78.386 80.2385 78.7943 79.7246 78.7943L79.7297 78.7987Z" fill="white"/>
<path fill-rule="evenodd" clip-rule="evenodd" d="M39.6845 87.0451C38.8441 87.0451 38.0468 86.6081 37.3168 85.7388C36.606 84.8935 35.948 83.64 35.2996 81.8918C35.2564 81.7813 35.2372 81.6661 35.2372 81.5508C35.2372 81.522 35.2468 78.5299 34.3247 74.8558C33.4842 71.5323 31.6687 66.9361 27.8121 63.9487C27.5864 63.7758 24.9112 61.6338 23.6769 56.005C23.2063 53.839 23.0189 52.5183 22.9037 51.7305C22.8605 51.4376 22.822 51.1542 22.7884 51.0005C22.7356 50.9765 22.6683 50.9525 22.6155 50.9285C21.8663 50.6355 20.3054 50.0256 17.0588 47.4272C14.7006 45.5446 12.5154 43.316 10.5703 40.8042C8.09692 37.6249 5.98365 33.9651 4.29308 29.9357C4.08656 29.4506 4.3171 28.8839 4.80217 28.6726C5.28725 28.4661 5.85397 28.6966 6.06524 29.1817C8.9949 36.1649 13.1013 41.794 18.2643 45.9239C21.2851 48.3348 22.6588 48.8775 23.3264 49.1369C23.7394 49.3002 24.1717 49.4683 24.455 49.9582C24.6615 50.3136 24.7144 50.6978 24.82 51.4615C24.9305 52.2251 25.113 53.5027 25.5693 55.5967C26.6451 60.4955 28.8927 62.3398 28.9937 62.4166C28.9985 62.4214 28.9985 62.4166 29.0033 62.4214C30.9196 63.9007 32.5381 65.8361 33.8205 68.1751C34.8339 70.0242 35.6456 72.1327 36.2218 74.4331C37.0815 77.843 37.168 80.6383 37.1824 81.3778C38.5464 84.9751 39.531 85.1288 39.7134 85.124C40.0736 85.1144 40.7124 84.6101 41.4232 83.2317C41.8746 82.3672 42.1724 81.4978 42.2829 81.1713C42.2108 73.1699 45.9378 69.2219 46.0963 69.0635C49.4583 65.6103 51.0047 62.9303 51.7107 61.2878C52.3495 59.7942 52.4263 58.8721 52.4311 58.6271C50.4188 50.8562 41.1736 49.3818 35.8279 49.1944C33.196 49.0984 31.3566 48.8678 29.7285 47.9937C28.0667 47.1004 26.7268 45.5876 25.2667 42.9316C24.0708 41.3227 23.7634 39.9491 24.3542 38.8445C24.8489 37.9128 25.9102 37.322 27.5144 37.0675C28.3837 36.9282 29.1762 36.9426 29.4499 36.9474C33.5562 36.3519 34.3871 33.2637 34.3919 33.2302C34.4111 33.1533 34.4399 33.0765 34.4831 33.0044C36.7404 28.8932 39.8189 27.1259 42.0042 26.3767C44.0694 25.6611 45.7456 25.6899 46.2115 25.7235C48.6561 25.3633 50.2794 24.3451 51.0383 22.6785C51.6242 21.3913 51.4753 20.157 51.4753 20.1474C51.4705 20.0802 51.4657 20.0226 51.4705 19.9553C51.5522 18.7354 51.2544 17.8277 50.558 17.1794C49.0547 15.7914 45.9521 15.8874 44.8811 16.0459C44.5449 16.0939 44.2087 15.9643 43.9926 15.6953C42.619 13.9903 40.9045 13.049 38.9209 12.8906C37.3984 12.7705 36.2553 13.1739 36.2457 13.1739C36.2217 13.1835 36.1977 13.1931 36.1689 13.1979C32.4756 14.2017 29.0993 14.4658 26.1119 13.9904C23.6242 13.5918 21.4197 12.6888 19.5514 11.3008C19.124 10.9839 19.0375 10.3835 19.3545 9.95604C19.6715 9.52859 20.2718 9.44214 20.6993 9.75912C24.3254 12.463 29.4883 13.0105 35.6317 11.3488C35.9006 11.2576 37.2358 10.8446 38.9744 10.9646C40.6554 11.0799 43.052 11.7283 45.1411 14.0817C46.4619 13.9712 49.843 13.8992 51.8505 15.7626C52.9696 16.7952 53.4834 18.2169 53.3826 19.9939C53.4211 20.3973 53.4931 21.8381 52.8159 23.3702C52.1003 25.0031 50.4002 27.0731 46.361 27.6254C46.289 27.635 46.2121 27.635 46.1401 27.6302C46.1305 27.6302 44.5455 27.4957 42.5332 28.2113C39.8869 29.1479 37.7545 31.0402 36.1984 33.8305C36.088 34.1715 35.7566 35.0792 34.9641 36.0446C34.0804 37.1156 32.4379 38.4701 29.6138 38.8543C29.5514 38.8591 29.4937 38.8639 29.4313 38.8591C28.2306 38.7967 26.3815 39.0752 26.0358 39.7332C25.8293 40.1126 26.1318 40.8955 26.8282 41.8224C26.8571 41.8608 26.8811 41.8992 26.9051 41.9376C29.4697 46.6155 31.2996 47.0958 35.8862 47.2639C41.7984 47.4704 52.0567 49.1754 54.3091 58.2573C54.3187 58.3102 54.3331 58.3678 54.3331 58.4206C54.3428 58.5455 54.4004 59.7414 53.5503 61.8114C52.4601 64.4769 50.4093 67.3585 47.4604 70.3843C47.422 70.4227 46.5911 71.3257 45.7795 73.0787C45.0206 74.7309 44.1273 77.4923 44.1849 81.2866C44.1849 81.3826 44.1753 81.4835 44.1417 81.5795C44.1225 81.6324 43.7527 82.8523 43.1091 84.101C42.1245 86.0029 40.9958 86.9875 39.7567 87.0259C39.7519 87.0355 39.7279 87.0355 39.6991 87.0355L39.6845 87.0451Z" fill="white"/>
<g filter="url(#filter0_d_104_2)">
<path d="M92.5692 8.50785L89.0577 5.15091C85.5808 1.82795 80.945 -1.60876e-05 75.997 -1.60876e-05C71.0489 -1.60876e-05 66.4131 1.82795 62.9363 5.15091L59.4247 8.50785C58.6405 9.34369 59.1263 10.2339 59.4247 10.4921L62.9363 13.8491C66.4131 17.172 71.0489 19 75.997 19C80.945 19 85.5808 17.172 89.0577 13.8491L92.5692 10.4921C92.8468 10.2339 93.3812 9.37767 92.5692 8.50785ZM75.997 16.1774C73.3251 16.1774 68.6394 12.1162 68.6394 9.49998C68.6394 6.88375 73.3251 2.64694 75.997 2.64694C78.6688 2.64694 83.8929 6.88375 83.8929 9.49998C83.8929 12.1162 78.6688 16.1774 75.997 16.1774ZM60.9229 9.49998L64.6914 5.8099C66.5651 4.01591 69.5576 2.63719 72.049 1.94406C70.0919 3.30994 66.4859 6.97888 66.4859 9.49998C66.4859 12.0211 70.4509 15.5212 72.4079 16.8803C69.9165 16.1871 65.6679 13.923 63.7941 12.1358L60.9229 9.49998ZM87.6614 13.3769C85.7877 15.1641 82.9298 16.1871 80.4384 16.8803C82.3955 15.5144 86.4052 12.0211 86.4052 9.49998C86.4052 6.97209 82.3955 3.30314 80.4384 1.94406C82.9298 2.63719 85.9671 4.20271 87.8409 5.9967L91.4299 9.33538L87.6614 13.3769Z" fill="white"/>
</g>
</g>
<defs>
<filter id="filter0_d_104_2" x="55" y="0" width="42" height="27" filterUnits="userSpaceOnUse" color-interpolation-filters="sRGB">
<feFlood flood-opacity="0" result="BackgroundImageFix"/>
<feColorMatrix in="SourceAlpha" type="matrix" values="0 0 0 0 0 0 0 0 0 0 0 0 0 0 0 0 0 0 127 0" result="hardAlpha"/>
<feOffset dy="4"/>
<feGaussianBlur stdDeviation="2"/>
<feComposite in2="hardAlpha" operator="out"/>
<feColorMatrix type="matrix" values="0 0 0 0 0 0 0 0 0 0 0 0 0 0 0 0 0 0 0.5 0"/>
<feBlend mode="normal" in2="BackgroundImageFix" result="effect1_dropShadow_104_2"/>
<feBlend mode="normal" in="SourceGraphic" in2="effect1_dropShadow_104_2" result="shape"/>
</filter>
<clipPath id="clip0_104_2">
<rect width="93" height="93" fill="white"/>
</clipPath>
</defs>
</svg>
