<svg width="93" height="93" viewBox="0 0 93 93" fill="none" xmlns="http://www.w3.org/2000/svg">
<path fill-rule="evenodd" clip-rule="evenodd" d="M46.8933 92.9664C40.6737 92.9664 34.6415 91.7465 28.9548 89.3403C23.4701 87.0158 18.5328 83.6922 14.3016 79.4514C10.0608 75.2202 6.74209 70.283 4.41268 64.7982C2.00654 59.1117 0.786621 53.0795 0.786621 46.8597C0.786621 40.6399 2.00652 34.6079 4.41268 28.9212C6.73718 23.4365 10.0608 18.4992 14.3016 14.268C18.5424 10.0368 23.47 6.70852 28.9548 4.37911C34.6413 1.97297 40.6735 0.753052 46.8933 0.753052C53.1131 0.753052 59.145 1.97295 64.8317 4.37911C70.3164 6.70361 75.2538 10.0272 79.485 14.268C83.7258 18.5088 87.0445 23.4364 89.3739 28.9212C91.78 34.6077 92.9999 40.6399 92.9999 46.8597C92.9999 53.0795 91.78 59.1115 89.3739 64.7982C87.0494 70.2829 83.7258 75.2202 79.485 79.4514C75.2538 83.6922 70.3166 87.0109 64.8317 89.3403C59.1453 91.7464 53.1131 92.9664 46.8933 92.9664ZM46.8933 2.67403C22.5343 2.67403 2.70735 22.4998 2.70735 46.86C2.70735 71.2238 22.5331 91.0459 46.8933 91.0459C71.2571 91.0459 91.0792 71.2201 91.0792 46.86C91.0792 22.4998 71.2534 2.67403 46.8933 2.67403Z" fill="white"/>
<path fill-rule="evenodd" clip-rule="evenodd" d="M79.7297 78.7988H79.6913C79.163 78.7795 78.7499 78.3377 78.7643 77.8094C78.8796 74.4955 77.6117 68.4921 67.8812 65.4996C67.6363 65.4372 66.4452 65.1106 65.2061 64.1932C64.0102 63.3191 62.5357 61.7198 62.0411 59.0303C60.9845 58.4636 58.5303 56.9363 57.9107 54.6358C57.5601 53.3343 57.8339 52.0327 58.7272 50.7553C58.9001 50.4191 59.5196 49.324 60.7684 48.4835C62.0891 47.595 64.3465 46.8458 67.6363 48.3298C67.7083 48.3586 67.7756 48.4019 67.8332 48.4499C67.838 48.4547 68.9186 49.2712 70.6956 49.6794C73.0201 50.2125 75.4023 49.8283 77.794 48.5363C78.0534 48.3154 78.7258 47.7919 79.7487 47.4461C80.911 47.0427 82.7841 46.7929 85.0605 47.8591C85.1086 47.8832 85.1566 47.9072 85.1998 47.936C86.1411 48.5844 87.5291 49.1175 87.9998 48.8437C88.2111 48.7236 88.408 48.2001 88.3167 47.1196C88.3119 47.0763 88.3119 47.0283 88.3167 46.9851C88.3167 46.9419 88.5425 42.4849 86.3717 40.3861C85.7041 40.0307 82.6159 38.3161 79.8351 35.5305C75.6472 31.3281 74.2351 26.732 75.7576 22.2371C75.7768 22.1891 75.796 22.1411 75.82 22.093C75.9401 21.8673 77.1408 19.8069 81.8907 17.8714C82.3854 17.6745 82.9425 17.9098 83.1442 18.3997C83.3411 18.8944 83.1058 19.4515 82.6159 19.6532C78.9417 21.1468 77.7507 22.6597 77.5442 22.9623C76.3147 26.7277 77.5346 30.4834 81.1702 34.148C84.023 37.02 87.3417 38.7298 87.3706 38.749C87.4475 38.7874 87.5147 38.8403 87.5819 38.8931C90.3867 41.4385 90.2715 46.3613 90.2427 47.0338C90.3772 48.7724 89.9449 49.9442 88.9651 50.5109C88.1343 50.9912 87.0392 50.9432 85.6993 50.3764C84.9837 50.0787 84.393 49.7041 84.1864 49.5648C81.0983 48.1528 79.1435 49.901 79.0235 50.0162C78.9562 50.0835 78.8986 50.1267 78.817 50.1651C75.2245 52.1487 72.1363 51.995 70.1672 51.5291C68.3373 51.0921 67.1174 50.2996 66.762 50.0403C64.8409 49.195 63.208 49.195 61.9113 50.0355C60.9267 50.6791 60.4608 51.5964 60.4321 51.6492C60.4081 51.7117 60.3792 51.7501 60.3408 51.8029C59.7597 52.6146 59.5724 53.3782 59.7741 54.1322C60.2255 55.8084 62.4828 57.1387 63.3137 57.5134C63.6211 57.6526 63.8276 57.936 63.8708 58.2722C64.4375 62.6715 68.1933 63.6032 68.3565 63.6417C68.3806 63.6465 68.3998 63.6513 68.4238 63.6609C73.2025 65.1257 76.6557 67.4454 78.6776 70.5529C80.4498 73.2712 80.7476 76.0376 80.6899 77.877C80.6659 78.3861 80.2385 78.7944 79.7246 78.7944L79.7297 78.7988Z" fill="white"/>
<path fill-rule="evenodd" clip-rule="evenodd" d="M39.6845 87.045C38.8441 87.045 38.0468 86.608 37.3168 85.7387C36.606 84.8934 35.948 83.6399 35.2996 81.8917C35.2564 81.7812 35.2372 81.666 35.2372 81.5507C35.2372 81.5219 35.2468 78.5298 34.3247 74.8557C33.4842 71.5322 31.6687 66.936 27.8121 63.9486C27.5864 63.7757 24.9112 61.6337 23.6769 56.0049C23.2063 53.8389 23.0189 52.5182 22.9037 51.7304C22.8605 51.4375 22.822 51.1541 22.7884 51.0004C22.7356 50.9764 22.6683 50.9524 22.6155 50.9284C21.8663 50.6354 20.3054 50.0255 17.0588 47.4271C14.7006 45.5445 12.5154 43.3159 10.5703 40.8041C8.09692 37.6248 5.98365 33.965 4.29308 29.9356C4.08656 29.4505 4.3171 28.8838 4.80217 28.6725C5.28725 28.466 5.85397 28.6965 6.06524 29.1816C8.9949 36.1648 13.1013 41.7939 18.2643 45.9238C21.2851 48.3347 22.6588 48.8774 23.3264 49.1368C23.7394 49.3001 24.1717 49.4682 24.455 49.9581C24.6615 50.3135 24.7144 50.6977 24.82 51.4614C24.9305 52.225 25.113 53.5026 25.5693 55.5966C26.6451 60.4954 28.8927 62.3397 28.9937 62.4165C28.9985 62.4213 28.9985 62.4165 29.0033 62.4213C30.9196 63.9006 32.5381 65.836 33.8205 68.175C34.8339 70.0241 35.6456 72.1326 36.2218 74.433C37.0815 77.8429 37.168 80.6382 37.1824 81.3777C38.5464 84.975 39.531 85.1287 39.7134 85.1239C40.0736 85.1143 40.7124 84.61 41.4232 83.2316C41.8746 82.3671 42.1724 81.4977 42.2829 81.1712C42.2108 73.1698 45.9378 69.2218 46.0963 69.0634C49.4583 65.6102 51.0047 62.9302 51.7107 61.2877C52.3495 59.7941 52.4263 58.872 52.4311 58.627C50.4188 50.8561 41.1736 49.3817 35.8279 49.1943C33.196 49.0983 31.3566 48.8677 29.7285 47.9936C28.0667 47.1003 26.7268 45.5875 25.2667 42.9315C24.0708 41.3226 23.7634 39.949 24.3542 38.8444C24.8489 37.9127 25.9102 37.3219 27.5144 37.0674C28.3837 36.9281 29.1762 36.9425 29.4499 36.9473C33.5562 36.3518 34.3871 33.2636 34.3919 33.2301C34.4111 33.1532 34.4399 33.0764 34.4831 33.0043C36.7404 28.8931 39.8189 27.1258 42.0042 26.3766C44.0694 25.661 45.7456 25.6898 46.2115 25.7234C48.6561 25.3632 50.2794 24.345 51.0383 22.6784C51.6242 21.3912 51.4753 20.1569 51.4753 20.1473C51.4705 20.0801 51.4657 20.0225 51.4705 19.9552C51.5522 18.7353 51.2544 17.8276 50.558 17.1793C49.0547 15.7913 45.9521 15.8873 44.8811 16.0458C44.5449 16.0938 44.2087 15.9642 43.9926 15.6952C42.619 13.9902 40.9045 13.0489 38.9209 12.8905C37.3984 12.7704 36.2553 13.1738 36.2457 13.1738C36.2217 13.1834 36.1977 13.193 36.1689 13.1978C32.4756 14.2016 29.0993 14.4657 26.1119 13.9903C23.6242 13.5917 21.4197 12.6887 19.5514 11.3007C19.124 10.9838 19.0375 10.3834 19.3545 9.95592C19.6715 9.52847 20.2718 9.44202 20.6993 9.759C24.3254 12.4629 29.4883 13.0104 35.6317 11.3487C35.9006 11.2575 37.2358 10.8445 38.9744 10.9645C40.6554 11.0798 43.052 11.7282 45.1411 14.0816C46.4619 13.9711 49.843 13.8991 51.8505 15.7625C52.9696 16.7951 53.4834 18.2168 53.3826 19.9938C53.4211 20.3972 53.4931 21.838 52.8159 23.3701C52.1003 25.003 50.4002 27.073 46.361 27.6253C46.289 27.6349 46.2121 27.6349 46.1401 27.6301C46.1305 27.6301 44.5455 27.4956 42.5332 28.2112C39.8869 29.1478 37.7545 31.0401 36.1984 33.8304C36.088 34.1714 35.7566 35.0791 34.9641 36.0445C34.0804 37.1155 32.4379 38.47 29.6138 38.8542C29.5514 38.859 29.4937 38.8638 29.4313 38.859C28.2306 38.7966 26.3815 39.0751 26.0358 39.7331C25.8293 40.1125 26.1318 40.8954 26.8282 41.8223C26.8571 41.8607 26.8811 41.8991 26.9051 41.9375C29.4697 46.6154 31.2996 47.0957 35.8862 47.2638C41.7984 47.4703 52.0567 49.1753 54.3091 58.2572C54.3187 58.3101 54.3331 58.3677 54.3331 58.4205C54.3428 58.5454 54.4004 59.7413 53.5503 61.8113C52.4601 64.4768 50.4093 67.3584 47.4604 70.3842C47.422 70.4226 46.5911 71.3256 45.7795 73.0786C45.0206 74.7308 44.1273 77.4922 44.1849 81.2865C44.1849 81.3825 44.1753 81.4834 44.1417 81.5794C44.1225 81.6323 43.7527 82.8522 43.1091 84.1009C42.1245 86.0028 40.9958 86.9874 39.7567 87.0258C39.7519 87.0354 39.7279 87.0354 39.6991 87.0354L39.6845 87.045Z" fill="white"/>
</svg>
