<svg width="116" height="128" viewBox="0 0 116 128" fill="none" xmlns="http://www.w3.org/2000/svg">
<path d="M28.9731 101.801L28.9733 101.801C34.7221 104.233 40.8206 105.466 47.1067 105.466C53.393 105.466 59.4915 104.233 65.2399 101.801L65.2405 101.801C70.7839 99.4464 75.775 96.0916 80.0519 91.8051C84.3383 87.5282 87.6982 82.5371 90.0476 76.9934L90.0478 76.9931C92.4801 71.2444 93.7133 65.1461 93.7133 58.8598C93.7133 52.5735 92.4801 46.475 90.0478 40.7265L90.0475 40.7258C87.693 35.182 84.3381 30.2008 80.0519 25.9145C75.7751 21.6281 70.7839 18.2684 65.2402 15.9189L65.2399 15.9188C59.4912 13.4863 53.393 12.2532 47.1067 12.2532C40.8204 12.2532 34.7219 13.4864 28.9733 15.9188L28.9727 15.919C23.4285 18.2736 18.4475 21.6382 14.1618 25.9141C9.87522 30.191 6.51527 35.1823 4.1657 40.7262L4.16558 40.7265C1.73316 46.4752 0.5 52.5735 0.5 58.8598C0.5 65.1461 1.73318 71.2446 4.16558 76.9931L4.16584 76.9938C6.5201 82.5371 9.87484 87.5281 14.1614 91.8051C18.4382 96.0915 23.4294 99.4513 28.9731 101.801ZM3.42073 58.8601C3.42073 34.7761 23.0238 15.1741 47.1067 15.1741C71.1906 15.1741 90.7926 34.776 90.7926 58.8601C90.7926 82.9441 71.1943 102.546 47.1067 102.546C23.0226 102.546 3.42073 82.9477 3.42073 58.8601Z" fill="white" stroke="white"/>
<path d="M79.9431 91.2987H81.2868L80.8818 90.9489C81.1839 90.6945 81.3829 90.3209 81.4027 89.9004L81.4028 89.9004L81.403 89.8926C81.4628 87.9872 81.1549 85.11 79.3101 82.2801C77.2071 79.0481 73.6429 76.675 68.7993 75.1875C68.7522 75.1703 68.7119 75.1604 68.6781 75.1534C68.4698 75.1026 65.0968 74.2198 64.5801 70.2082C64.5152 69.7034 64.2017 69.2699 63.7333 69.0578L63.7326 69.0575C63.3517 68.8857 62.6175 68.4813 61.9303 67.9228C61.2313 67.3546 60.6549 66.6865 60.4705 66.0028C60.3181 65.4332 60.4396 64.8225 60.9595 64.0955C60.9617 64.0926 60.9639 64.0895 60.9663 64.0863C60.9989 64.0418 61.0533 63.9676 61.0985 63.8623C61.1795 63.7122 61.596 62.9788 62.397 62.4547C63.4952 61.7431 64.9219 61.6947 66.7265 62.4771C67.1671 62.7904 68.4227 63.5755 70.2644 64.0153L70.2654 64.0156C72.3289 64.5038 75.5436 64.657 79.2595 62.6096C79.392 62.545 79.4906 62.4687 79.5851 62.3749C79.5862 62.3739 79.5877 62.3725 79.5897 62.3707C79.5941 62.3667 79.6003 62.3612 79.6083 62.3543C79.6243 62.3404 79.6471 62.3212 79.6765 62.298C79.7353 62.2516 79.8197 62.1894 79.9283 62.1203C80.1459 61.9818 80.4577 61.8175 80.8529 61.6954C81.6267 61.4563 82.7478 61.3693 84.1559 62.0031C84.4037 62.1675 85 62.538 85.7194 62.8374C87.1246 63.4316 88.4026 63.5369 89.4287 62.9437L89.4288 62.9436C90.6488 62.238 91.0902 60.8268 90.9568 59.025C90.9725 58.6237 90.9992 57.2129 90.679 55.5701C90.3524 53.8936 89.6503 51.9013 88.1313 50.5227L88.1181 50.5108L88.1042 50.4998L88.0943 50.492C88.0327 50.4436 87.9306 50.3631 87.8073 50.3016L87.807 50.3022C87.7986 50.2977 87.7894 50.2926 87.7792 50.287C87.2519 49.9982 84.3156 48.3901 81.7385 45.7958C78.212 42.2411 77.0951 38.6973 78.2096 35.1897C78.463 34.851 79.6468 33.4865 83.0176 32.1163L83.0196 32.1154C83.7641 31.8089 84.1197 30.9624 83.8221 30.2147L83.8222 30.2147L83.8199 30.2092C83.5134 29.4647 82.6669 29.1091 81.9192 29.4067L81.9192 29.4067L81.9154 29.4083C77.0719 31.3819 75.7741 33.5158 75.592 33.858L75.5918 33.8579L75.586 33.8697C75.5527 33.9364 75.5269 34.0009 75.5088 34.046L75.5067 34.0513L75.5017 34.0638L75.4974 34.0766C73.8975 38.7999 75.4128 43.587 79.6943 47.8833L79.6946 47.8836C82.4458 50.6395 85.486 52.3623 86.2856 52.7928C87.2174 53.7281 87.6706 55.2023 87.8776 56.5332C88.066 57.7451 88.038 58.7457 88.0312 58.9485C88.0245 59.0204 88.0249 59.0956 88.0323 59.1669C88.0746 59.672 88.0466 60.0162 87.9977 60.2303C87.9752 60.3287 87.9521 60.3846 87.938 60.4132C87.9078 60.4171 87.8517 60.4204 87.7604 60.4111C87.6001 60.3947 87.3923 60.3453 87.1523 60.2628C86.6731 60.0979 86.1313 59.8234 85.6968 59.5241L85.6968 59.5241L85.6905 59.5199C85.6211 59.4736 85.5489 59.4375 85.5053 59.4157L85.4979 59.412L85.4979 59.4118L85.4859 59.4062C83.0744 58.2767 81.0649 58.5344 79.8 58.973C78.7474 59.3292 78.0374 59.8599 77.7249 60.1204C75.4395 61.3438 73.196 61.6908 71.0207 61.1919C70.1811 60.9991 69.5065 60.7097 69.0435 60.4695C68.8122 60.3495 68.6347 60.2422 68.5168 60.1662C68.4578 60.1282 68.414 60.0982 68.386 60.0785C68.3785 60.0732 68.3722 60.0687 68.3672 60.0651C68.3628 60.062 68.3594 60.0594 68.3568 60.0575C68.272 59.9883 68.1675 59.92 68.0468 59.8701C64.5938 58.3156 62.1565 59.0905 60.7027 60.0685L60.7026 60.0686C59.3892 60.9525 58.722 62.0942 58.5117 62.4962C57.5633 63.8655 57.2486 65.308 57.6413 66.7657C57.9861 68.046 58.8311 69.0815 59.6911 69.8549C60.4527 70.5398 61.2545 71.0448 61.8089 71.356C62.3724 74.0566 63.8847 75.6903 65.1233 76.5959C66.4168 77.5532 67.6601 77.9039 67.9589 77.9809C72.7299 79.4503 75.3701 81.6377 76.8117 83.8103C78.2574 85.9892 78.5331 88.2071 78.478 89.7919L78.4779 89.7957C78.456 90.5973 79.0831 91.269 79.8864 91.2984L79.8955 91.2987H79.9047H79.9431Z" fill="white" stroke="white"/>
<path d="M40.0475 99.5451H39.8979C38.8638 99.5451 37.9382 99.0021 37.1473 98.0603C36.3833 97.1518 35.7018 95.8379 35.0456 94.0694C34.9787 93.8966 34.9506 93.7204 34.9506 93.5508V93.5505C34.9507 93.5124 34.9566 90.5776 34.0532 86.9778C33.2232 83.6963 31.4455 79.231 27.7203 76.3448C27.4116 76.108 24.664 73.8678 23.4019 68.1121L23.4017 68.1112C22.9434 66.0017 22.7512 64.6851 22.6342 63.8843L22.6224 63.8035C22.6132 63.7411 22.6045 63.681 22.5962 63.6237C22.582 63.5265 22.569 63.4374 22.557 63.359C21.7322 63.0342 20.1267 62.3523 16.9597 59.8176C14.5694 57.9092 12.3568 55.6522 10.3887 53.1108C7.8862 49.894 5.75147 46.1955 4.04539 42.1291C3.73116 41.3874 4.08457 40.5328 4.81587 40.2142L4.8197 40.2125L4.8197 40.2126C5.56197 39.8966 6.41815 40.2499 6.73703 40.9821L6.73973 40.9883L6.73969 40.9883C9.64164 47.9054 13.701 53.4628 18.79 57.5334C21.7727 59.9139 23.1028 60.4307 23.7199 60.6705L23.7209 60.6708L23.7236 60.6719C23.7355 60.6766 23.7476 60.6814 23.7598 60.6862C24.1603 60.8441 24.7316 61.0693 25.1008 61.7072M40.0475 99.5451L37.3958 93.3778C37.3814 92.6383 37.2949 89.843 36.4352 86.4331L36.9202 86.3116C36.9201 86.3114 36.9201 86.3111 36.92 86.3109C36.3346 83.9738 35.5083 81.825 34.4723 79.9348L34.4723 79.9347C33.1621 77.5449 31.5029 75.5565 29.53 74.0316C29.523 74.0259 29.5154 74.0201 29.5072 74.0142C29.502 74.0105 29.4965 74.0066 29.4907 74.0028C29.4456 73.9647 29.3228 73.8565 29.147 73.6672C28.9236 73.4266 28.6171 73.0579 28.2788 72.541C27.6027 71.5084 26.7958 69.879 26.271 67.4895C25.8254 65.4443 25.6436 64.1872 25.5333 63.4252L25.5287 63.393C25.5286 63.3924 25.5285 63.3918 25.5284 63.3912C25.5246 63.3636 25.5208 63.3362 25.5171 63.3092C25.4228 62.6252 25.3571 62.1484 25.1008 61.7072M40.0475 99.5451L40.0842 99.521M40.0475 99.5451L40.0842 99.521M25.1008 61.7072C25.1008 61.7071 25.1007 61.7071 25.1007 61.707L24.6684 61.9582L25.1012 61.7079C25.1011 61.7077 25.1009 61.7074 25.1008 61.7072ZM40.0842 99.521C41.5637 99.4259 42.7826 98.2314 43.7665 96.3309L43.7669 96.3301C44.1005 95.683 44.3615 95.0466 44.5411 94.5673C44.7018 94.1387 44.8363 93.7205 44.8257 93.7484M40.0842 99.521L26.6889 51.974C26.6856 51.9937 26.6661 52.1114 26.774 52.3944C26.8884 52.6946 27.1095 53.0804 27.4413 53.5221M44.8257 93.7484L44.827 93.7447C44.8862 93.5755 44.8983 93.4127 44.8983 93.2866L44.8982 93.279C44.8419 89.57 45.7147 86.8825 46.4469 85.2882C47.2337 83.5889 48.0305 82.7347 48.0273 82.7379L48.0274 82.7379L48.0319 82.7333C51.0059 79.6817 53.1029 76.7474 54.2262 74.0013C55.0868 71.9058 55.0623 70.6408 55.046 70.3966C55.0425 70.2971 55.0188 70.1881 55.015 70.1704L55.0144 70.168L55.0116 70.1524L55.0078 70.1369C53.834 65.4041 50.5674 62.6051 46.8859 60.9751C43.217 59.3508 39.1018 58.8685 36.1176 58.7642M44.8257 93.7484L44.8251 93.7501L44.8257 93.7484ZM36.1176 58.7642C36.1177 58.7642 36.1178 58.7642 36.1179 58.7642L36.0996 59.2639L36.117 58.7642C36.1172 58.7642 36.1174 58.7642 36.1176 58.7642ZM36.1176 58.7642C33.817 58.6799 32.3239 58.5156 31.0874 57.8514C29.8643 57.1945 28.8238 56.008 27.5569 53.6972L27.55 53.6847L27.5425 53.6726L27.5397 53.6681C27.5171 53.6319 27.4833 53.5779 27.4413 53.5221M27.4413 53.5221L27.0423 53.8218L27.4411 53.5217C27.4412 53.5218 27.4412 53.522 27.4413 53.5221ZM36.0238 61.6941L36.0231 61.6941C33.3847 61.5978 31.443 61.3671 29.7054 60.4342L29.7051 60.4341C27.9285 59.4791 26.5338 57.8794 25.0583 55.2022C23.839 53.5509 23.401 51.9666 24.1262 50.6096M36.0238 61.6941L27.7278 49.0675M36.0238 61.6941C38.6704 61.7869 42.2485 62.1984 45.3985 63.5276C48.5193 64.8445 51.1716 67.0379 52.1419 70.6817M36.0238 61.6941L52.1419 70.6817M24.1262 50.6096C24.1264 50.6093 24.1265 50.609 24.1267 50.6087L24.5676 50.8445L24.126 50.61C24.126 50.6099 24.1261 50.6098 24.1262 50.6096ZM24.1262 50.6096C24.7283 49.476 25.9786 48.8389 27.6487 48.5738M27.6487 48.5738L27.7278 49.0675M27.6487 48.5738C27.6489 48.5738 27.6492 48.5737 27.6494 48.5737L27.7278 49.0675M27.6487 48.5738C28.5228 48.4337 29.3188 48.4415 29.6309 48.4468C31.5307 48.1619 32.6468 47.3141 33.291 46.5546C33.6187 46.1684 33.8287 45.7995 33.956 45.5286C34.0196 45.3934 34.0622 45.2835 34.0882 45.2094C34.1013 45.1723 34.11 45.1447 34.115 45.1278L34.1186 45.1153L34.1202 45.1091C34.1481 44.9973 34.192 44.876 34.2622 44.7565C36.5886 40.5239 39.7738 38.6861 42.0547 37.904C44.1257 37.1865 45.826 37.1867 46.4039 37.2211C48.7167 36.8694 50.137 35.9199 50.7966 34.4713C51.2829 33.4029 51.2068 32.3895 51.191 32.1829L51.1899 32.183C51.1896 32.1781 51.1892 32.173 51.1888 32.1676C51.1845 32.1088 51.178 32.0209 51.1851 31.9208C51.2596 30.8053 50.9867 30.0633 50.4312 29.5458C49.7974 28.9613 48.7767 28.6551 47.7121 28.5293C46.6625 28.4052 45.6636 28.4671 45.1677 28.5405L45.1651 28.5409C44.6561 28.6136 44.1443 28.4167 43.8164 28.0087C42.5206 26.4004 40.9281 25.5354 39.0945 25.389C38.3858 25.3332 37.7637 25.3991 37.3178 25.4793C37.0954 25.5193 36.9184 25.5626 36.7981 25.5953C36.7381 25.6116 36.692 25.6253 36.6611 25.6348L36.6249 25.6461C36.598 25.6565 36.5521 25.6731 36.4965 25.685C32.7586 26.6989 29.3151 26.9725 26.2467 26.4842L26.2462 26.4841C23.6859 26.0739 21.4048 25.1421 19.4666 23.7022C18.8157 23.2192 18.6864 22.3053 19.1663 21.6582L19.1663 21.6582C19.6492 21.0069 20.5632 20.8775 21.2105 21.3575L21.2116 21.3583C24.6672 23.935 29.6474 24.5041 35.6999 22.8701C36.0332 22.7586 37.4225 22.3416 39.222 22.4658L27.7278 49.0675M29.2123 73.919C29.213 73.919 29.2142 73.919 29.2154 73.919L29.2129 73.919H29.2123ZM29.2123 73.919C29.2118 73.919 29.2116 73.919 29.2118 73.919H29.2119H29.2121H29.2123ZM52.1419 70.6817C52.1255 70.9532 52.0242 71.7819 51.4647 73.0904L52.1419 70.6817ZM39.4758 96.2669C39.1012 95.8514 38.5521 94.9987 37.8938 93.2806L51.4644 73.0912C50.7855 74.6703 49.2764 77.2991 45.9534 80.7127C45.7013 80.9668 41.9494 85.0094 41.9957 93.0904C41.8704 93.457 41.594 94.233 41.1934 95.0003L41.1922 95.0025C40.8515 95.6632 40.5411 96.0881 40.2931 96.3412C40.0811 96.5575 39.9544 96.6091 39.9208 96.6208C39.8687 96.604 39.7163 96.5337 39.4758 96.2669ZM39.9344 96.6247C39.9387 96.6251 39.9409 96.6256 39.9409 96.6257C39.9408 96.6259 39.9387 96.6257 39.9344 96.6247ZM26.689 51.9712L26.6918 51.9657C26.7049 51.9409 26.7711 51.8598 26.9763 51.7595C27.169 51.6653 27.4285 51.5814 27.7336 51.5143C28.3417 51.3807 29.0567 51.3298 29.6136 51.3582C29.7109 51.365 29.7989 51.3581 29.8536 51.3538C29.8577 51.3534 29.8617 51.3531 29.8655 51.3528L29.8801 51.3517L29.8946 51.3497C32.8631 50.9459 34.6131 49.5142 35.5631 48.3628L35.5639 48.3619C36.376 47.3726 36.7366 46.438 36.8717 46.0325C38.3751 43.3557 40.4106 41.5684 42.9134 40.6826L42.9141 40.6824C44.6793 40.0547 46.0884 40.1147 46.3203 40.1282L46.3202 40.1291C46.4131 40.1353 46.5253 40.1364 46.6405 40.121L46.6421 40.1208C50.8632 39.5436 52.7055 37.3545 53.4871 35.5713C54.1932 33.9731 54.1397 32.4739 54.0972 31.9848C54.1955 30.104 53.6432 28.5398 52.4035 27.3956C51.2976 26.3694 49.8399 25.897 48.5304 25.6882C47.3615 25.5018 46.2686 25.5189 45.5607 25.565C43.4053 23.2422 40.9568 22.5848 39.2222 22.4658L26.689 51.9712ZM34.1194 45.1124L34.1193 45.113C34.1197 45.1114 34.12 45.1101 34.1203 45.1091C34.1211 45.1057 34.1213 45.1053 34.1203 45.1091C34.1201 45.11 34.1198 45.1111 34.1194 45.1124Z" fill="white" stroke="white"/>
<g filter="url(#filter0_bd_106_48)">
<path fill-rule="evenodd" clip-rule="evenodd" d="M88 49C101.228 49 112 59.7633 112 72.9814C112 84.6888 105.953 91.109 99.5276 101.495L88 120L76.4724 101.495C70.0472 91.109 64 84.6888 64 72.9814C64 59.7633 74.7717 49 88 49ZM88 58.8191C95.3701 58.8191 101.228 64.8617 101.228 72.0372C101.228 79.4016 95.3701 85.2553 88 85.2553C80.6299 85.2553 74.7717 79.4016 74.7717 72.0372C74.7717 64.8617 80.6299 58.8191 88 58.8191Z" fill="white"/>
<path d="M88 49.5C100.953 49.5 111.5 60.0398 111.5 72.9814C111.5 82.3013 107.63 88.1726 102.721 95.6191C101.56 97.3796 100.342 99.2281 99.1027 101.231C99.1026 101.231 99.1025 101.231 99.1024 101.232L88 119.054L76.8976 101.232C76.8975 101.231 76.8974 101.231 76.8973 101.231C75.6581 99.2281 74.4396 97.3796 73.2791 95.6191C68.3703 88.1726 64.5 82.3013 64.5 72.9814C64.5 60.0398 75.0474 49.5 88 49.5ZM101.728 72.0372C101.728 64.5898 95.6505 58.3191 88 58.3191C80.3495 58.3191 74.2717 64.5898 74.2717 72.0372C74.2717 79.6781 80.3541 85.7553 88 85.7553C95.6459 85.7553 101.728 79.6781 101.728 72.0372Z" stroke="white"/>
</g>
<defs>
<filter id="filter0_bd_106_48" x="55" y="40" width="66" height="89" filterUnits="userSpaceOnUse" color-interpolation-filters="sRGB">
<feFlood flood-opacity="0" result="BackgroundImageFix"/>
<feGaussianBlur in="BackgroundImageFix" stdDeviation="4.5"/>
<feComposite in2="SourceAlpha" operator="in" result="effect1_backgroundBlur_106_48"/>
<feColorMatrix in="SourceAlpha" type="matrix" values="0 0 0 0 0 0 0 0 0 0 0 0 0 0 0 0 0 0 127 0" result="hardAlpha"/>
<feOffset dy="4"/>
<feGaussianBlur stdDeviation="2"/>
<feComposite in2="hardAlpha" operator="out"/>
<feColorMatrix type="matrix" values="0 0 0 0 0 0 0 0 0 0 0 0 0 0 0 0 0 0 0.25 0"/>
<feBlend mode="normal" in2="effect1_backgroundBlur_106_48" result="effect2_dropShadow_106_48"/>
<feBlend mode="normal" in="SourceGraphic" in2="effect2_dropShadow_106_48" result="shape"/>
</filter>
</defs>
</svg>
