<svg width="89" height="76" viewBox="0 0 89 76" fill="none" xmlns="http://www.w3.org/2000/svg">
<path d="M77.8454 40.4929C74.7844 40.4929 72.0424 41.8329 70.1524 43.9499C71.0524 45.1389 71.7074 46.5209 72.0844 47.9729C72.8594 47.9869 73.6334 47.9979 74.4084 48.0119C74.9194 46.3969 75.6744 44.7439 76.3924 43.0449C76.8784 41.8949 78.5504 42.8849 78.0694 44.0249C77.4924 45.3879 76.8434 46.7239 76.3704 48.0349C76.9844 48.0419 77.5994 48.0509 78.2154 48.0529C79.4684 48.0569 79.4684 49.9979 78.2154 49.9939C77.4204 49.9919 76.6254 49.9729 75.8304 49.9629C75.4784 51.9089 75.8314 53.8029 77.7764 55.6559C78.6844 56.5209 77.3084 57.8919 76.4024 57.0289C73.9934 54.7339 73.5334 52.3779 73.9354 49.9379C73.4284 49.9289 72.9214 49.9259 72.4144 49.9169C72.6214 52.3889 72.0244 54.8999 70.4574 56.8879C70.2514 57.1499 70.0024 57.2399 69.7644 57.2179C71.6554 59.5999 74.5694 61.1319 77.8464 61.1319C83.5454 61.1319 88.1664 56.5109 88.1664 50.8119C88.1664 45.1129 83.5444 40.4929 77.8454 40.4929Z" fill="white"/>
<path d="M70.4884 49.893C69.5154 49.878 68.5454 49.858 67.5744 49.855C67.5454 50.17 67.5254 50.49 67.5254 50.813C67.5254 52.673 68.0244 54.415 68.8864 55.922C68.9184 55.783 68.9804 55.646 69.0834 55.516C70.3284 53.938 70.7224 51.897 70.4884 49.893Z" fill="white"/>
<path d="M68.9333 45.6249C68.5163 46.3409 68.1813 47.1059 67.9443 47.9179C68.6483 47.9249 69.3523 47.9369 70.0563 47.9459C69.7853 47.1179 69.3983 46.3359 68.9333 45.6249Z" fill="white"/>
<path d="M69.7634 57.2189C69.4394 56.8109 69.1464 56.3769 68.8864 55.9219C68.7404 56.5419 69.2264 57.1699 69.7634 57.2189Z" fill="white"/>
<path d="M67.5194 47.913C66.2654 47.909 66.2654 49.851 67.5194 49.854C67.5374 49.854 67.5554 49.855 67.5744 49.855C67.6354 49.188 67.7624 48.542 67.9444 47.917C67.8024 47.917 67.6614 47.913 67.5194 47.913Z" fill="white"/>
<path d="M69.1904 42.8479C68.2994 41.9659 66.9254 43.3389 67.8164 44.2209C68.2344 44.6349 68.6014 45.1159 68.9334 45.6239C69.2844 45.0239 69.6934 44.4649 70.1524 43.9489C69.8584 43.5609 69.5374 43.1919 69.1904 42.8479Z" fill="white"/>
<path d="M74.4472 28.1009C72.8902 30.8929 70.4922 32.5899 67.6312 33.8519C66.2012 34.4829 64.8302 34.6919 63.5022 34.6059C60.8482 31.2279 59.0682 25.8559 57.8302 22.8519C54.8572 15.6349 50.5702 8.98194 43.0172 6.07194C31.4512 1.61494 21.1432 13.9879 12.8282 19.8509C12.7482 19.9069 12.7052 19.9749 12.6502 20.0399C11.6792 20.4059 11.9182 22.0679 13.0982 21.9509C13.3082 21.9299 13.5162 21.9049 13.7242 21.8819C13.8532 22.0149 14.0122 22.1269 14.2382 22.1719C17.5652 22.8299 20.1872 24.6309 23.2162 26.0129C25.5552 27.0799 28.2162 27.0279 30.7162 26.8459C31.1292 26.8159 31.5372 26.7739 31.9442 26.7279C31.6712 27.3069 31.3582 27.8749 30.9632 28.4199C30.2102 29.4599 31.7612 30.7249 32.5202 29.6769C33.2702 28.6409 33.8122 27.5449 34.2082 26.4169C36.6832 26.0359 39.1252 25.6009 41.7092 25.7789C46.0732 26.0799 49.6572 29.0489 52.9502 31.6169C55.9192 33.9309 59.0122 36.0449 62.6022 36.5099C65.5922 39.9699 69.2932 41.3099 74.0772 37.4339C75.0732 36.6249 73.9132 34.9959 72.9112 35.8089C69.9272 38.2279 67.4662 38.0309 65.4252 36.5219C65.5132 36.5109 65.5992 36.5079 65.6892 36.4949C70.0932 35.8639 74.1562 32.7209 76.2772 28.9159C76.9022 27.7889 75.0722 26.9809 74.4472 28.1009ZM32.6932 24.5609C31.9792 24.6639 31.2592 24.7639 30.5282 24.8539C25.5822 25.4639 21.9902 22.8499 17.8342 21.1979C19.6472 20.7569 21.3892 20.0949 22.9972 19.0129C24.0682 18.2919 22.8992 16.6699 21.8312 17.3879C20.2702 18.4379 18.5572 19.0259 16.7772 19.4009C20.7152 16.3489 24.4412 13.0259 28.6652 10.3559C28.6932 10.3379 28.7212 10.3249 28.7482 10.3079C31.6372 14.2579 33.8052 19.7129 32.6932 24.5609ZM60.7652 34.0219C59.3222 33.5099 57.9252 32.7199 56.5522 31.8109C52.7822 29.3129 49.5042 25.6719 44.9932 24.4579C41.4692 23.5099 38.1652 23.8029 34.7622 24.2699C35.6282 19.1389 33.5562 13.5719 30.5022 9.32594C38.7272 5.20794 46.7432 8.32994 52.1852 16.1399C54.4802 19.4309 57.0112 28.1419 60.7652 34.0219Z" fill="white"/>
<path d="M25.6011 14.067C24.5531 14.819 25.7201 16.443 26.7671 15.692C27.8141 14.939 26.6481 13.314 25.6011 14.067Z" fill="white"/>
<path d="M38.8201 27.96C38.9791 30.185 39.8561 32.311 40.3211 34.476C39.0081 32.279 37.6881 30.087 36.2131 27.992C35.4701 26.937 33.8461 28.104 34.5881 29.158C36.8031 32.304 38.6711 35.665 40.6861 38.937C41.1561 39.701 42.3521 39.333 42.4851 38.517C43.1011 34.736 41.0771 31.469 40.8131 27.774C40.7191 26.482 38.7281 26.676 38.8201 27.96Z" fill="white"/>
<path d="M31.0161 6.17795C34.6821 3.45195 39.0041 1.48594 43.5131 2.07594C43.3391 2.13694 43.1651 2.19794 42.9851 2.24594C42.0401 2.54194 42.1811 4.06395 43.1701 4.17095C45.3381 4.40595 47.4881 4.60895 49.4941 5.29895C49.1261 5.73395 49.1731 6.45594 49.8191 6.84194C52.2691 8.30494 54.3771 9.91094 56.2091 11.9399C55.2971 11.7269 54.3811 11.5309 53.4551 11.3569C52.1851 11.1189 51.8641 13.0929 53.1311 13.3299C54.9921 13.6789 56.8221 14.1239 58.6561 14.5959C59.5371 14.8229 60.0951 13.6909 59.6311 13.0259C57.8971 10.5539 55.8381 8.59395 53.4851 6.88995C54.0831 6.57495 54.3851 5.76395 53.7041 5.25995C51.5551 3.66995 49.1931 3.00495 46.6961 2.60695C46.7471 2.57195 46.7961 2.54294 46.8471 2.50694C47.4281 2.10494 47.4031 1.02594 46.6701 0.780945C40.6441 -1.23906 34.7791 0.886945 29.8511 4.55295C28.8161 5.32195 29.9801 6.94795 31.0161 6.17795Z" fill="white"/>
<path d="M1.95733 47.299C3.51433 44.508 5.91133 42.811 8.77233 41.548C10.2023 40.916 11.5743 40.707 12.9023 40.793C15.5563 44.172 17.3363 49.543 18.5733 52.548C21.5463 59.766 25.8343 66.418 33.3873 69.328C44.9533 73.785 55.2623 61.412 63.5763 55.549C63.6563 55.493 63.6993 55.425 63.7543 55.36C64.7253 54.995 64.4863 53.333 63.3073 53.45C63.0963 53.471 62.8893 53.497 62.6803 53.519C62.5513 53.385 62.3933 53.274 62.1663 53.229C58.8403 52.571 56.2173 50.77 53.1873 49.389C50.8493 48.321 48.1873 48.373 45.6873 48.555C45.2753 48.585 44.8673 48.627 44.4603 48.674C44.7333 48.094 45.0463 47.526 45.4413 46.981C46.1953 45.942 44.6443 44.676 43.8853 45.725C43.1353 46.76 42.5933 47.856 42.1973 48.985C39.7223 49.366 37.2813 49.801 34.6973 49.623C30.3333 49.321 26.7493 46.353 23.4563 43.785C20.4883 41.471 17.3943 39.357 13.8043 38.892C10.8143 35.431 7.11433 34.091 2.33033 37.968C1.33333 38.776 2.49333 40.406 3.49633 39.593C6.48033 37.175 8.94133 37.371 10.9823 38.88C10.8933 38.892 10.8073 38.895 10.7173 38.907C6.31433 39.538 2.25133 42.682 0.12933 46.487C-0.49867 47.612 1.33133 48.419 1.95733 47.299ZM43.7103 50.84C44.4243 50.737 45.1443 50.637 45.8753 50.547C50.8203 49.937 54.4123 52.551 58.5683 54.203C56.7563 54.644 55.0133 55.305 53.4063 56.387C52.3363 57.108 53.5043 58.731 54.5723 58.012C56.1333 56.961 57.8473 56.374 59.6273 55.999C55.6893 59.051 51.9633 62.374 47.7383 65.045C47.7113 65.063 47.6833 65.075 47.6543 65.092C44.7663 61.143 42.5983 55.688 43.7103 50.84ZM15.6383 41.379C17.0803 41.891 18.4783 42.681 19.8513 43.59C23.6213 46.088 26.8983 49.729 31.4093 50.944C34.9333 51.891 38.2373 51.598 41.6403 51.132C40.7743 56.263 42.8463 61.831 45.8993 66.076C37.6743 70.194 29.6583 67.072 24.2163 59.262C21.9233 55.969 19.3913 47.259 15.6383 41.379Z" fill="white"/>
<path d="M50.8024 61.334C51.8494 60.582 50.6834 58.957 49.6364 59.709C48.5874 60.461 49.7554 62.086 50.8024 61.334Z" fill="white"/>
<path d="M37.5833 47.442C37.4243 45.217 36.5473 43.09 36.0823 40.925C37.3953 43.122 38.7153 45.315 40.1903 47.409C40.9323 48.465 42.5573 47.297 41.8153 46.243C39.6003 43.097 37.7323 39.736 35.7173 36.464C35.2473 35.7 34.0513 36.068 33.9183 36.885C33.3023 40.666 35.3263 43.932 35.5903 47.627C35.6843 48.918 37.6753 48.725 37.5833 47.442Z" fill="white"/>
<path d="M45.3864 69.223C41.7204 71.95 37.3984 73.915 32.8894 73.325C33.0634 73.264 33.2374 73.204 33.4174 73.155C34.3624 72.859 34.2214 71.337 33.2324 71.23C31.0644 70.995 28.9144 70.792 26.9084 70.102C27.2764 69.666 27.2294 68.946 26.5834 68.559C24.1334 67.096 22.0264 65.49 20.1934 63.461C21.1064 63.674 22.0224 63.869 22.9484 64.043C24.2174 64.281 24.5384 62.307 23.2714 62.07C21.4104 61.72 19.5814 61.275 17.7474 60.804C16.8654 60.577 16.3074 61.708 16.7724 62.373C18.5064 64.845 20.5644 66.805 22.9184 68.509C22.3204 68.824 22.0184 69.636 22.6994 70.14C24.8484 71.73 27.2094 72.394 29.7074 72.792C29.6554 72.827 29.6074 72.856 29.5554 72.892C28.9734 73.294 29.0004 74.373 29.7314 74.619C35.7584 76.639 41.6224 74.514 46.5504 70.848C47.5854 70.079 46.4214 68.453 45.3864 69.223Z" fill="white"/>
</svg>
