<svg width="55" height="42" viewBox="0 0 55 42" fill="none" xmlns="http://www.w3.org/2000/svg">
<path d="M24.3558 38.7735C23.8639 38.3254 23.5565 37.6788 23.5565 36.9566C23.5565 35.5948 24.6494 34.5019 26.0112 34.5019C27.373 34.5019 28.466 35.5948 28.466 36.9566C28.466 37.9863 27.8411 38.8623 26.9476 39.2283L27.0582 39.1986C27.7268 38.8836 28.2309 38.2771 28.4119 37.5455L28.5127 37.1382L28.9313 37.1667L44.7255 38.2424L45.1436 38.2708L45.1886 38.6874C45.3231 39.9313 46.3709 40.9049 47.6397 40.9049C48.7751 40.9049 49.7366 40.1249 50.0242 39.0684L50.0294 38.9916C49.7754 40.0775 48.8062 40.8795 47.6397 40.8795C46.2779 40.8795 45.185 39.7865 45.1849 38.4247C45.185 37.0629 46.2779 35.9699 47.6397 35.9699C48.9242 35.9699 49.9695 36.9423 50.084 38.1955L50.0881 38.1363C49.9776 37.203 49.3519 36.4283 48.4981 36.1089L48.1062 35.9623L48.1814 35.5507L50.5928 22.3541L50.6684 21.9403L51.089 21.944C51.1059 21.9441 51.1203 21.945 51.131 21.9459C52.3454 21.9359 53.3545 21.0347 53.5462 19.8618L53.5449 19.7858C53.3895 20.9948 52.3639 21.9206 51.1106 21.9206C49.7488 21.9206 48.6559 20.8276 48.6558 19.4658C48.6559 18.104 49.7488 17.0111 51.1106 17.0111C52.3364 17.0111 53.3444 17.8967 53.5335 19.0668L53.5314 18.9343C53.2856 17.8231 52.2897 16.9867 51.1104 16.9867C49.9031 16.9867 48.8898 17.8649 48.6759 19.0174L48.5993 19.4302L48.1794 19.4261L26.5349 19.2157L26.1153 19.2116L26.0466 18.7977C25.8513 17.622 24.8301 16.7203 23.6077 16.7202L24.3558 38.7735ZM24.3558 38.7735L24.3007 38.7369C23.8264 38.2815 23.531 37.6522 23.531 36.9566C23.531 35.8612 24.2592 34.9294 25.263 34.6067L25.6616 34.4785L25.6054 34.0635L23.9852 22.1007L23.9289 21.6851L23.5098 21.6682C22.1896 21.6149 21.1277 20.5267 21.1276 19.1996C21.1277 18.9845 21.1654 18.7704 21.2276 18.5461L21.34 18.1409L20.9601 17.9607L13.2953 14.3256L12.9166 14.146L12.6736 14.4875C12.2204 15.1246 11.4839 15.5391 10.6556 15.5391C9.29193 15.5391 8.17542 14.4226 8.1754 13.0589C8.17541 12.3996 8.43979 11.7989 8.86971 11.3499L9.16032 11.0464L8.9114 10.7079L5.70088 6.3417L5.45133 6.00233L5.07453 6.19065C4.73452 6.36058 4.36701 6.46032 3.98021 6.46033L24.3558 38.7735ZM21.3468 18.1155L20.9679 17.9357L13.3031 14.2986L12.9233 14.1184L13.0356 13.7133C13.0979 13.4889 13.1356 13.2749 13.1356 13.0597C13.1356 11.696 12.0191 10.5796 10.6554 10.5795C10.2678 10.5795 9.89966 10.6783 9.56084 10.8474L9.18423 11.0354L8.93481 10.6963L5.72429 6.33216L5.47525 5.99364L5.76589 5.69008C6.19583 5.24105 6.4602 4.6404 6.46022 3.98106L21.3468 18.1155ZM21.3468 18.1155L21.5898 17.7737M21.3468 18.1155L21.5898 17.7737M21.5898 17.7737C22.0432 17.1357 22.7793 16.7203 23.6077 16.7202L21.5898 17.7737ZM3.9802 6.96033C4.4551 6.96033 4.89867 6.8375 5.29805 6.6379L8.50858 11.0041C7.99543 11.54 7.67541 12.2624 7.6754 13.0589M10.6556 16.0391C11.6555 16.0391 12.5398 15.5381 13.081 14.7774L20.7458 18.4125C20.6758 18.6648 20.6277 18.9256 20.6276 19.1996C20.6277 20.799 21.9053 22.1039 23.4897 22.1678M25.11 34.1306C23.9104 34.5163 23.0311 35.6327 23.031 36.9566M21.1822 17.484L13.5175 13.8469C13.5874 13.5946 13.6356 13.3337 13.6356 13.0597C13.6356 11.4199 12.2953 10.0796 10.6554 10.0795C10.1809 10.0795 9.73673 10.2008 9.33757 10.4001L6.12704 6.03587C6.64018 5.49994 6.96021 4.77754 6.96022 3.98105M0.5 3.9801V3.98011C0.500026 5.89609 2.06422 7.46028 3.98019 7.46033H3.9802C4.38862 7.46033 4.77424 7.38354 5.13034 7.25384L7.87211 10.9825C7.4378 11.5608 7.17541 12.2786 7.1754 13.0589C7.17543 14.9749 8.73961 16.5391 10.6556 16.5391C11.6742 16.5391 12.5874 16.095 13.2221 15.3976L20.171 18.6932C20.144 18.8548 20.1276 19.0237 20.1276 19.1996C20.1277 20.9263 21.3987 22.355 23.047 22.6245L24.5618 33.8087C23.3713 34.358 22.5311 35.5548 22.531 36.9566C22.531 37.9635 22.9686 38.8631 23.6476 39.4956L23.6776 39.5235L23.7117 39.5462L24.571 40.1169L24.6092 40.1423L24.6513 40.1603C25.0227 40.3188 25.4265 40.4135 25.8479 40.4331L25.8779 40.5512L26.3672 40.4197L27.3587 40.1534L27.3979 40.1428L27.4349 40.1261C28.2704 39.7484 28.9274 39.0507 29.2556 38.1911L44.2656 39.2134C44.6239 40.7472 45.9922 41.9049 47.6397 41.9049C49.2664 41.9049 50.6233 40.7752 51.0044 39.2727L51.0155 39.2289L51.0186 39.1839L51.0888 38.1603L51.0917 38.1177L51.0874 38.0753C50.9661 36.8856 50.2498 35.8735 49.2356 35.3448L51.5053 22.9236C53.0712 22.7447 54.3135 21.5149 54.5414 19.9693L54.5474 19.9291L54.5467 19.8884L54.5305 18.8702L54.5297 18.8241L54.5206 18.7789C54.1993 17.1918 52.7925 15.9867 51.1104 15.9867C49.5566 15.9867 48.2411 17.0156 47.7958 18.4224L26.9378 18.2196C26.513 16.7813 25.1852 15.7203 23.6077 15.7202H23.6076C22.5882 15.7203 21.6753 16.1657 21.041 16.8636L14.0923 13.5662C14.1192 13.4046 14.1356 13.2357 14.1356 13.0598C14.1356 11.1438 12.5714 9.57957 10.6554 9.57952C10.2478 9.57952 9.86209 9.6553 9.50549 9.78454L6.76356 6.05735C7.19783 5.47905 7.46021 4.7613 7.46022 3.98106V3.98104C7.46019 2.06532 5.8964 0.500045 3.98021 0.5H3.98019C2.06424 0.500045 0.500026 2.06413 0.5 3.9801ZM26.3529 39.3881L26.2919 39.4045L26.1795 39.4163C26.1524 39.4191 26.1274 39.4225 26.1073 39.4253C26.0839 39.4286 26.0724 39.4303 26.0558 39.4325C26.0267 39.4364 26.0158 39.4369 26.0112 39.4369C25.6828 39.4369 25.3699 39.3732 25.0842 39.2574L24.9751 39.1848C25.2894 39.3303 25.6403 39.4114 26.0112 39.4114C26.1273 39.4114 26.2413 39.4035 26.3529 39.3881ZM51.04 22.9416C51.0393 22.9416 51.0386 22.9415 51.0402 22.9417L51.04 22.9416ZM3.9802 6.46033C2.61651 6.46029 1.50003 5.34381 1.5 3.98011L3.9802 6.46033ZM1.5 3.9801C1.50003 2.61646 2.61648 1.50005 3.98019 1.5L1.5 3.9801ZM3.98021 1.5C5.34367 1.50005 6.46019 2.61716 6.46022 3.98104L3.98021 1.5ZM3.98022 1.52534H3.98018C2.6184 1.52539 1.52546 2.61834 1.52544 3.9801V3.98011C1.52546 5.34188 2.61837 6.43493 3.98018 6.43498H3.98022C5.34202 6.43493 6.43493 5.34188 6.43495 3.98011V3.9801C6.43493 2.61834 5.34199 1.52539 3.98022 1.52534ZM26.5388 19.2404L26.119 19.2364L26.0424 19.6491C25.8759 20.546 25.2174 21.2723 24.3542 21.5493L23.9554 21.6772L24.0115 22.0923L25.6278 34.0552L25.684 34.4718L26.1041 34.4879C27.3326 34.535 28.3313 35.484 28.4622 36.6938L28.5072 37.1103L28.9252 37.1389L44.7195 38.2164L45.1384 38.2449L45.2389 37.8373C45.5047 36.7602 46.4694 35.9558 47.6148 35.9444C47.6266 35.9453 47.6409 35.9461 47.657 35.9462L48.076 35.9486L48.1515 35.5363L50.569 22.3398L50.6444 21.9281L50.2523 21.7814C49.431 21.4742 48.8176 20.7486 48.6718 19.8668L48.6032 19.4525L48.1833 19.4484L26.5388 19.2404ZM47.575 35.9396L47.5776 35.94C47.5755 35.9397 47.5739 35.9395 47.575 35.9396ZM23.6079 16.7449H23.6078C22.2461 16.7449 21.1531 17.8378 21.1531 19.1996C21.1531 20.5614 22.246 21.6544 23.6078 21.6544C24.9697 21.6544 26.0626 20.5614 26.0626 19.1996C26.0626 17.8378 24.9696 16.7449 23.6079 16.7449ZM13.1104 13.0589C13.1103 11.6971 12.0174 10.6042 10.6556 10.6042C9.2938 10.6042 8.20087 11.6971 8.20085 13.0589C8.20087 14.4207 9.2938 15.5137 10.6556 15.5137C12.0174 15.5137 13.1103 14.4207 13.1104 13.0589Z" stroke="white"/>
</svg>
