<svg width="95" height="77" viewBox="0 0 95 77" fill="none" xmlns="http://www.w3.org/2000/svg">
<path fill-rule="evenodd" clip-rule="evenodd" d="M2.9802 0C1.34037 3.8757e-05 2.2479e-05 1.3403 0 2.9801C2.2479e-05 4.61995 1.34037 5.96029 2.9802 5.96033C3.4551 5.96033 3.89867 5.8375 4.29805 5.6379L7.50858 10.0041C6.99543 10.54 6.67541 11.2624 6.6754 12.0589C6.67543 13.6987 8.01577 15.0391 9.6556 15.0391C10.6555 15.0391 11.5398 14.5381 12.081 13.7774L19.7458 17.4125C19.6758 17.6648 19.6277 17.9256 19.6276 18.1996C19.6277 19.799 20.9053 21.1039 22.4897 21.1678L24.11 33.1306C22.9104 33.5163 22.0311 34.6327 22.031 35.9566C22.031 36.8148 22.4034 37.5848 22.9884 38.1297L9.88392 58.3842C9.52656 58.2319 9.13383 58.1479 8.72229 58.1479C7.08245 58.1479 5.74211 59.4882 5.74209 61.128C5.74211 62.7678 7.08245 64.1081 8.72229 64.1082C10.3621 64.1081 11.7025 62.7678 11.7025 61.128C11.7025 60.2678 11.3285 59.4961 10.7411 58.951L23.8476 38.7004C24.2054 38.8531 24.5991 38.9369 25.0112 38.9369C25.0866 38.9369 25.1575 38.9213 25.2315 38.9136L28.2738 50.8625C27.2388 51.3309 26.5114 52.3688 26.5113 53.5742C26.5114 55.1222 27.7099 56.3898 29.2232 56.5284L30.4329 70.7925C29.1593 71.1312 28.2098 72.2857 28.2097 73.6625C28.2098 75.3023 29.5501 76.6427 31.1899 76.6427C32.8298 76.6427 34.1701 75.3023 34.1701 73.6625C34.1701 72.1138 32.9705 70.8461 31.4563 70.7084L30.2486 56.4462C30.5871 56.3563 30.9055 56.2149 31.1859 56.0197L40.2908 65.2527C39.9398 65.7416 39.728 66.3366 39.728 66.9811C39.728 68.6209 41.0683 69.9613 42.7082 69.9614C44.348 69.9613 45.6883 68.6209 45.6884 66.9811C45.6883 65.3413 44.348 64.0009 42.7082 64.0009C42.081 64.0009 41.4991 64.1997 41.0178 64.5336L31.911 55.2987C32.2603 54.8105 32.4717 54.2171 32.4717 53.5742C32.4717 51.9344 31.1314 50.594 29.4915 50.594C29.4148 50.594 29.3426 50.6095 29.2672 50.6173L26.2289 38.6705C27.0537 38.2977 27.676 37.5598 27.8973 36.6656L43.6915 37.7412C43.8527 39.2315 45.1082 40.4049 46.6397 40.4049C48.0282 40.4049 49.1925 39.4398 49.5198 38.1497L67.7454 39.4656C67.887 40.8446 68.9676 41.9421 70.3391 42.1093L70.9139 52.7182C69.8316 52.9709 68.9548 53.8128 68.6888 54.9234C68.307 56.5187 69.3004 58.1354 70.8959 58.5164C71.3903 58.6346 71.8828 58.6071 72.3439 58.4854L77.9999 70.7286C77.4128 71.1366 76.9691 71.7449 76.7942 72.4751C76.4125 74.0704 77.4058 75.6872 79.0013 76.0682C80.5953 76.4484 82.2107 75.4568 82.5923 73.8631C82.9727 72.2685 81.98 70.6508 80.3852 70.2699C80.1247 70.2075 79.8578 70.1804 79.5901 70.1897C79.3613 70.1975 79.1416 70.2405 78.9272 70.2978L73.2752 58.0587C73.546 57.8719 73.7924 57.6481 73.9902 57.3798L84.6913 62.6531C84.6777 62.7 84.6568 62.7435 84.6452 62.7915C84.2635 64.3868 85.2569 66.0035 86.8523 66.3845C88.4462 66.7651 90.0614 65.7752 90.4434 64.1814C90.8249 62.5867 89.8327 60.9702 88.2383 60.5884C88.0304 60.5384 87.8151 60.5106 87.6013 60.5063C86.6094 60.4869 85.7065 60.9685 85.1459 61.732L74.4388 56.4526C74.4528 56.4053 74.4753 56.3627 74.4869 56.3142C74.8685 54.7195 73.8763 53.1029 72.2818 52.7211C72.1687 52.6939 72.0523 52.6751 71.9372 52.6611L71.3685 42.0641C72.6856 41.7564 73.6757 40.5738 73.6757 39.1661C73.6757 38.6759 73.545 38.219 73.3332 37.8102L89.4119 25.627C89.9445 26.1223 90.6521 26.4322 91.4327 26.4322C93.0726 26.4321 94.4129 25.0918 94.4129 23.4519C94.4129 21.8121 93.0726 20.4717 91.4327 20.4717C90.2458 20.4717 89.2234 21.1785 88.745 22.1881L74.0623 18.1766C74.0708 18.0847 74.0902 17.9959 74.0902 17.9021C74.0902 16.2623 72.7498 14.922 71.11 14.9219C69.6183 14.922 68.3864 16.0347 68.1739 17.4695L53.0305 17.8781C52.7553 16.5183 51.5487 15.4867 50.1104 15.4867C48.6557 15.4867 47.441 16.5432 47.1843 17.9262L25.5398 17.7157C25.3056 16.3058 24.0816 15.2203 22.6077 15.2202C21.6072 15.2203 20.7234 15.7226 20.1822 16.484L12.5175 12.8469C12.5874 12.5946 12.6356 12.3337 12.6356 12.0597C12.6356 10.4199 11.2953 9.07956 9.65542 9.07952C9.18086 9.07952 8.73673 9.20084 8.33756 9.40005L5.12704 5.03587C5.64018 4.49994 5.96021 3.77754 5.96022 2.98105C5.9602 1.34124 4.62003 3.8757e-05 2.9802 0ZM2.9802 1.02534C4.06585 1.02538 4.93494 1.89448 4.93495 2.9801C4.93494 4.06576 4.06585 4.93494 2.9802 4.93498C1.89455 4.93494 1.02546 4.06576 1.02544 2.9801C1.02546 1.89448 1.89455 1.02538 2.9802 1.02534ZM9.6556 10.1042C10.7413 10.1042 11.6103 10.9733 11.6104 12.0589C11.6103 13.1446 10.7413 14.0137 9.6556 14.0137C8.56995 14.0137 7.70086 13.1446 7.70085 12.0589C7.70086 10.9733 8.56995 10.1042 9.6556 10.1042ZM71.1102 15.9464C72.1958 15.9464 73.0649 16.8155 73.0649 17.9012C73.0649 18.9869 72.1958 19.856 71.1102 19.856C70.0245 19.856 69.1554 18.9869 69.1554 17.9012C69.1554 16.8155 70.0245 15.9464 71.1102 15.9464ZM22.6078 16.2449C23.6935 16.2449 24.5626 17.114 24.5626 18.1996C24.5626 19.2852 23.6935 20.1544 22.6078 20.1544C21.5222 20.1544 20.6531 19.2852 20.6531 18.1996C20.6531 17.114 21.5222 16.2449 22.6078 16.2449ZM50.1106 16.5111C51.1962 16.5111 52.0653 17.3802 52.0653 18.4659C52.0653 19.5515 51.1962 20.4206 50.1106 20.4206C49.0249 20.4206 48.1558 19.5515 48.1558 18.4659C48.1558 17.3802 49.0249 16.5111 50.1106 16.5111ZM68.1901 18.4919C68.466 19.8508 69.6726 20.8813 71.1102 20.8813C72.2971 20.8813 73.3195 20.1745 73.798 19.1649L88.4806 23.1726C88.4717 23.2656 88.4527 23.3558 88.4527 23.4508C88.4527 23.9419 88.5847 24.3993 88.7972 24.8087L72.7166 36.9899C72.1839 36.4947 71.4764 36.1848 70.6957 36.1848C69.3057 36.1848 68.1393 37.1516 67.8136 38.4439L49.59 37.126C49.4734 35.9824 48.7144 35.03 47.6733 34.6406L50.0847 21.4439C50.0936 21.444 50.1017 21.446 50.1106 21.446C51.6031 21.446 52.8351 20.3321 53.0468 18.8964L68.1901 18.4919ZM25.534 18.7404L47.1785 18.9484C47.3541 20.0106 48.0919 20.8812 49.0771 21.2497L46.6597 34.4462C46.6528 34.4462 46.6465 34.4442 46.6396 34.4442C45.2444 34.4442 44.0741 35.4181 43.7535 36.7175L27.9593 35.64C27.8021 34.1871 26.6031 33.0449 25.1233 32.9882L23.507 21.0254C24.5398 20.694 25.3329 19.8237 25.534 18.7404ZM91.4328 21.4962C92.5184 21.4962 93.3875 22.3654 93.3875 23.451C93.3875 24.5366 92.5184 25.4057 91.4328 25.4057C90.3471 25.4057 89.4781 24.5366 89.478 23.451C89.4781 22.3654 90.3471 21.4962 91.4328 21.4962ZM25.0112 34.0019C26.0969 34.0019 26.966 34.871 26.966 35.9566C26.966 37.0423 26.0969 37.9114 25.0112 37.9114C23.9256 37.9114 23.0565 37.0423 23.0565 35.9566C23.0565 34.871 23.9256 34.0019 25.0112 34.0019ZM46.6397 35.4699C47.7253 35.4699 48.5944 36.339 48.5944 37.4247C48.5944 38.5103 47.7253 39.3795 46.6397 39.3795C45.554 39.3795 44.685 38.5103 44.6849 37.4247C44.685 36.339 45.554 35.4699 46.6397 35.4699ZM70.6956 37.2104C71.7812 37.2104 72.6503 38.0795 72.6503 39.1651C72.6503 40.2508 71.7812 41.1199 70.6956 41.1199C69.6099 41.1199 68.7408 40.2508 68.7408 39.1651C68.7408 38.0795 69.6099 37.2104 70.6956 37.2104ZM29.4915 51.6206C30.5772 51.6207 31.4463 52.4899 31.4463 53.5755C31.4463 54.6611 30.5772 55.5301 29.4915 55.5302C28.4059 55.5301 27.5368 54.6611 27.5368 53.5755C27.5368 52.4899 28.4059 51.6207 29.4915 51.6206ZM71.5167 53.6635C71.6922 53.6596 71.8709 53.6752 72.0415 53.7174C72.0408 53.7174 72.0422 53.7174 72.0415 53.7174C73.0978 53.9698 73.7423 55.0166 73.4896 56.0728C73.2366 57.1284 72.19 57.7716 71.1343 57.5187C71.135 57.5187 71.1336 57.5187 71.1343 57.5187C70.078 57.2664 69.4335 56.2197 69.6862 55.1635C69.6862 55.1642 69.6862 55.1628 69.6862 55.1635C69.8908 54.3068 70.6367 53.6953 71.5167 53.6635ZM8.72229 59.1733C9.80794 59.1734 10.677 60.0425 10.677 61.1281C10.677 62.2137 9.80794 63.0828 8.72229 63.0828C7.63663 63.0828 6.76755 62.2137 6.76753 61.1281C6.76755 60.0425 7.63663 59.1734 8.72229 59.1733ZM87.5814 61.5306C87.722 61.5334 87.8612 61.55 87.998 61.5849C87.9973 61.5849 87.9986 61.5849 87.998 61.5849C89.0542 61.8372 89.6987 62.8841 89.446 63.9402C89.193 64.9959 88.1464 65.6391 87.0907 65.3863C87.0914 65.3863 87.09 65.3863 87.0907 65.3863C86.0344 65.134 85.3899 64.0871 85.6426 63.0309C85.8571 62.1348 86.6601 61.5127 87.5814 61.5306ZM42.7082 65.0275C43.7938 65.0276 44.6629 65.8967 44.6629 66.9823C44.6629 68.0679 43.7938 68.937 42.7082 68.9371C41.6225 68.937 40.7534 68.0679 40.7534 66.9823C40.7534 65.8967 41.6225 65.0276 42.7082 65.0275ZM79.6262 71.2143C79.8017 71.2065 79.978 71.2259 80.1489 71.2662C81.2052 71.5185 81.8476 72.5654 81.5949 73.6215C81.5949 73.6209 81.5949 73.6222 81.5949 73.6215C81.3427 74.6778 80.2958 75.3223 79.2396 75.0696C79.2403 75.0696 79.2389 75.0696 79.2396 75.0696C78.1834 74.8173 77.5389 73.7704 77.7916 72.7142C77.7916 72.7149 77.7916 72.7136 77.7916 72.7142C77.9965 71.8563 78.7446 71.2445 79.6262 71.2143ZM31.1899 71.709C32.2756 71.709 33.1447 72.5781 33.1447 73.6638C33.1447 74.7494 32.2756 75.6185 31.1899 75.6185C30.1043 75.6185 29.2352 74.7494 29.2352 73.6638C29.2352 72.5781 30.1043 71.709 31.1899 71.709Z" fill="white"/>
</svg>
