<svg width="71" height="77" viewBox="0 0 71 77" fill="none" xmlns="http://www.w3.org/2000/svg">
<path d="M63.2628 19.6708C63.2068 19.3568 63.1448 19.0438 63.0708 18.7348C62.5708 16.6638 59.9658 16.7688 59.1688 18.6568C58.9038 19.2498 58.7228 19.8658 58.5868 20.4938C58.6298 22.5348 58.3378 24.6668 58.3108 26.0618C58.2898 27.1658 56.6428 27.1608 56.6018 26.0618C56.5278 24.0968 56.4008 21.7368 56.9328 19.6858C56.8428 18.4508 56.5598 17.3918 55.8898 16.8618C53.3878 14.8838 53.0648 24.2788 52.8618 26.1768C52.8618 26.1798 52.8618 26.1818 52.8618 26.1848C52.8528 26.2778 52.8408 26.3578 52.8318 26.4118C52.6568 27.3828 51.1568 27.1248 51.1528 26.1848C51.1398 22.4278 51.0418 18.6718 51.0288 14.9148C51.0248 13.8118 52.7338 13.8128 52.7388 14.9148C52.7398 15.3418 52.7498 15.7688 52.7528 16.1948C53.4338 15.0038 54.4568 14.4008 56.0188 15.0248C57.0398 15.4328 57.6668 16.2348 58.0518 17.2338C59.0148 15.8378 60.6308 14.3098 62.4028 14.7968C63.6848 15.1498 64.2988 16.4238 64.6148 17.7308C65.0968 17.3758 65.6838 17.1088 66.2938 16.9608C64.8548 12.9948 61.0638 10.1548 56.5998 10.1548C50.9008 10.1548 46.2798 14.7758 46.2798 20.4758C46.2798 26.1758 50.9008 30.7958 56.5998 30.7958C59.0568 30.7958 61.3108 29.9338 63.0828 28.5008C63.0238 26.7448 62.9518 24.9888 62.9058 23.2298C62.8708 21.9838 62.8698 20.7948 63.2628 19.6708Z" fill="white"/>
<path d="M69.6377 17.8578C68.8867 16.8578 67.5387 16.6588 66.2907 16.9628C66.4897 17.5128 66.6457 18.0828 66.7497 18.6728C66.0317 18.7288 65.4287 19.2108 64.9457 20.1458C65.1087 22.2308 65.0987 24.3128 65.0447 26.3958C64.4887 27.1858 63.8297 27.8958 63.0797 28.5018C63.0837 28.6128 63.0887 28.7238 63.0917 28.8348C61.8047 29.7718 60.5227 30.6198 59.4997 31.3918C58.6317 32.0468 59.4817 33.5318 60.3617 32.8678C61.1127 32.3008 62.0897 31.6148 63.1407 30.8348C63.1507 31.3898 63.1617 31.9448 63.1617 32.5008C63.1637 33.6038 64.8587 33.6028 64.8717 32.5008C64.8837 31.4808 64.9137 30.4618 64.9477 29.4438C68.8977 26.2718 72.7777 22.0368 69.6377 17.8578Z" fill="white"/>
<path d="M55.4286 67.8219C52.2196 64.4989 46.1426 64.4869 40.8606 65.7949C44.2706 61.6739 45.4966 55.8159 43.9356 50.5139C43.7846 49.9969 43.2366 49.6599 42.7066 49.8149C37.4746 51.3419 32.4216 55.5479 30.0806 60.7209C26.9436 57.2189 20.9296 56.5899 17.0876 59.0919C15.4516 60.1569 11.7866 62.2829 10.9676 59.0139C10.6966 57.9339 10.6286 56.7819 10.4626 55.6819C10.0516 52.9519 8.79261 52.6959 10.4116 50.5759C11.8136 50.0399 13.0926 49.2959 14.1796 48.2369C15.1046 47.3369 13.6896 45.9229 12.7656 46.8229C11.9876 47.5809 11.0856 48.1419 10.0986 48.5589C10.0566 48.5499 10.0176 48.5349 9.97261 48.5299C7.40361 48.2529 9.09161 45.1819 9.43661 44.0459C9.62261 43.4369 9.11361 42.7589 8.47261 42.7799C7.69161 42.8049 0.972611 43.5669 2.35361 40.9149C3.38061 38.9419 4.80061 37.1959 5.83261 35.2189C6.62461 33.6979 6.64561 31.6149 6.76461 29.9479C7.00561 26.5389 7.02861 23.9559 8.53561 21.2549C11.2526 24.3629 20.3626 23.2279 19.8576 17.4979C19.3156 11.3489 11.8726 9.53087 7.09561 11.6499C6.68061 11.8339 6.26461 12.0499 5.85661 12.2929C7.25361 6.69887 17.6436 7.62487 21.0086 10.3849C24.8796 13.5609 23.7266 21.1429 23.7156 25.5609C23.7076 28.4699 23.7726 32.4629 26.0746 34.6439C28.7276 37.1559 39.0356 38.0759 36.6096 43.5239C36.0886 44.6909 37.8126 45.7109 38.3366 44.5339C40.7366 39.1439 37.0856 36.9199 32.2126 35.5729C22.7056 32.9439 26.5426 21.8769 25.2266 14.3939C24.4646 10.0609 20.2736 7.22387 15.7876 6.35587C18.5366 5.98687 21.2756 5.50387 24.0586 5.46487C31.8106 5.35687 32.8746 11.8449 31.7126 17.9219C30.5596 23.9529 28.5966 32.9539 37.4736 32.7779C38.7616 32.7529 38.7636 30.7529 37.4736 30.7779C27.5546 30.9739 36.3006 15.0229 33.6836 9.31087C30.8986 3.23487 25.2626 3.13887 19.5126 3.81787C22.9586 2.45887 26.6816 1.98187 30.4156 2.09087C38.0196 2.31287 41.9136 7.31187 42.1746 14.6589C42.4466 22.2879 39.9726 29.8459 42.2286 37.3869C43.6746 42.2249 49.5276 43.5919 52.7986 39.5779C56.0446 35.5969 52.0476 30.5509 47.7236 30.5269C46.4336 30.5199 46.4346 32.5199 47.7236 32.5269C51.1226 32.5459 53.1126 36.0449 50.8386 38.8339C48.3856 41.8439 45.0906 39.2539 44.1556 36.8549C43.2086 34.4199 43.2466 31.5709 43.2236 28.9949C43.1656 22.2939 45.0666 15.7059 43.4396 9.06087C40.5656 -2.67313 23.7606 -1.21013 15.7176 3.41387C15.3086 3.64887 15.1886 4.02987 15.2506 4.38687C13.5846 4.60687 11.9686 4.78187 10.4726 4.77787C9.51161 4.77487 9.26961 5.88187 9.74061 6.44987C6.57361 7.25687 4.08561 9.37287 3.72261 13.0279C3.69361 13.3219 3.78461 13.5399 3.93161 13.6989C1.05361 16.2589 -0.479388 20.0809 3.46761 22.8909C4.52161 23.6409 5.51861 21.9049 4.47761 21.1639C0.519612 18.3469 5.53961 14.3919 8.33161 13.2899C12.1066 11.8019 16.7426 13.1859 17.8366 17.4439C18.7626 21.0439 10.1566 22.4519 9.80661 19.3909C9.84961 19.3389 9.88561 19.2869 9.92961 19.2349C10.2316 18.8709 10.2276 18.4479 10.0636 18.1089C10.2486 17.6969 10.5236 17.2429 10.9296 16.7349C11.7266 15.7379 10.3216 14.3139 9.51561 15.3209C8.48761 16.6069 7.97661 17.7279 7.83161 18.6929C6.07061 21.0429 5.12061 23.3759 4.87361 26.4539C4.67461 28.9379 4.73661 31.2859 4.25861 33.7629C3.91361 35.5409 2.14561 37.4639 1.19161 38.9599C-2.33639 44.4919 2.66761 44.9009 7.12161 44.8149C6.44561 47.1959 6.17661 49.2149 8.23861 50.1039C7.91861 50.5119 7.59761 50.9199 7.26561 51.3209C6.99661 51.6449 6.83161 52.1489 7.10961 52.5329C9.20661 55.4389 7.71061 60.8559 11.1526 62.7179C12.4716 63.4309 14.5426 62.7319 15.7276 62.1419C19.9006 60.0669 24.9856 57.8669 28.7656 62.2359C28.9536 62.4529 29.1696 62.5369 29.3826 62.5479C28.9796 63.8389 28.7416 65.1719 28.7226 66.5279C28.7036 67.8189 30.7036 67.8169 30.7226 66.5279C30.8136 60.1329 36.3796 54.2179 42.2616 52.0699C43.6006 58.3029 40.8266 65.5039 34.7066 68.0629C34.5696 68.1209 34.4586 68.1989 34.3666 68.2889C34.1466 68.4139 33.9196 68.5379 33.7176 68.6649C32.6306 69.3509 33.6326 71.0829 34.7276 70.3919C39.0716 67.6499 49.3346 65.0469 53.7036 68.9679C49.1106 75.0569 42.3616 74.6109 35.4886 73.5639C34.2276 73.3729 33.6856 75.2989 34.9576 75.4939C42.9746 76.7149 50.3966 76.9059 55.5866 69.7839C55.8406 69.4349 55.8136 69.0939 55.6396 68.8289C55.7586 68.5099 55.7356 68.1389 55.4286 67.8219Z" fill="white"/>
<path d="M16.9716 28.7789C14.3976 29.0489 11.8756 29.1569 9.76458 30.8219C8.95958 31.4569 9.69658 32.4709 10.5356 32.4649C10.6066 32.8949 10.9086 33.2789 11.4726 33.2789C12.4216 33.2789 12.6666 32.1989 12.2186 31.6269C13.6786 30.9729 15.4126 30.9419 16.9726 30.7789C18.2416 30.6459 18.2536 28.6449 16.9716 28.7789Z" fill="white"/>
<path d="M30.4717 40.0288C31.7617 40.0288 31.7617 38.0288 30.4717 38.0288C29.1817 38.0288 29.1817 40.0288 30.4717 40.0288Z" fill="white"/>
<path d="M57.4717 58.279C54.9967 58.3 52.5917 58.536 50.2567 59.095C51.3887 57.802 52.3437 56.355 53.0847 54.783C53.6317 53.624 51.9077 52.608 51.3577 53.773C50.0407 56.565 48.0507 58.961 45.4657 60.665C45.3427 60.746 45.2507 60.841 45.1797 60.944C44.1017 61.547 45.0927 63.214 46.2257 62.641C49.7717 60.851 53.5357 60.312 57.4707 60.278C58.7607 60.267 58.7617 58.267 57.4717 58.279Z" fill="white"/>
<path d="M54.8815 44.3268C49.6085 43.1168 43.6075 44.4628 38.3405 45.0318C33.8955 45.5108 29.7815 45.1008 25.7385 43.0328C22.3965 41.3228 22.7165 37.4308 22.7205 34.2788C22.7225 32.9888 20.7225 32.9888 20.7205 34.2788C20.7085 41.5788 23.3695 46.2808 31.4765 47.0448C36.9805 47.5648 42.4325 46.4668 47.9145 46.0678C50.5095 45.8788 53.0615 45.9608 55.6055 46.5438C60.5995 47.6898 65.2095 54.6688 60.7625 59.0718C59.8455 59.9798 61.2595 61.3938 62.1765 60.4858C68.3435 54.3808 61.7125 45.8938 54.8815 44.3268Z" fill="white"/>
</svg>
