<svg width="82" height="38" viewBox="0 0 82 38" fill="none" xmlns="http://www.w3.org/2000/svg">
<path fill-rule="evenodd" clip-rule="evenodd" d="M78.3581 0.000473107C76.716 0.00353491 75.3744 1.34657 75.3739 2.98874C75.3733 4.17617 76.078 5.19866 77.0864 5.68048L70.5872 29.2337C70.4903 29.2259 70.3961 29.2027 70.2968 29.2027C69.3591 29.2036 68.526 29.6509 67.9777 30.3322L45.2977 17.8567C45.4023 17.5533 45.4719 17.2335 45.472 16.8954C45.4728 15.2505 44.1287 13.9056 42.4838 13.9051C40.8407 13.9082 39.4948 15.2523 39.4957 16.8954C39.4959 17.5593 39.7229 18.1686 40.0925 18.6659L27.4527 31.9345C26.9779 31.6159 26.4081 31.428 25.7964 31.4278H25.7924C24.6599 31.4291 23.6826 32.0752 23.1767 33.01L5.9344 27.34C5.95545 27.1978 5.97843 27.0555 5.97846 26.9074C5.97806 25.3981 4.79408 24.2597 3.33674 24.0634C3.24311 23.9728 3.11851 23.9213 2.98825 23.9192C2.96817 23.9194 2.94605 23.9207 2.92612 23.9231C2.90588 23.9258 2.88582 23.9297 2.86604 23.9347C2.82636 23.9449 2.78803 23.9597 2.75188 23.979C2.70929 24.002 2.67018 24.0309 2.63571 24.065C1.18163 24.2646 0.000405398 25.4004 0 26.9069C0.000443767 28.5509 1.34419 29.8947 2.98821 29.8952C4.12518 29.8958 5.10652 29.2467 5.61191 28.307L22.8482 33.985C22.8274 34.1264 22.8062 34.2682 22.8061 34.4155C22.8052 36.0614 24.1505 37.4067 25.7963 37.4058C27.4413 37.4053 28.7854 36.0604 28.7845 34.4155C28.7844 33.7536 28.5593 33.1455 28.1917 32.649L40.8296 19.3784C41.304 19.6958 41.8731 19.8829 42.4839 19.883C43.4232 19.8828 44.2544 19.4362 44.8032 18.7535L67.4811 31.229C67.3765 31.5325 67.307 31.8525 67.3068 32.1905C67.306 33.8364 68.6512 35.1815 70.2971 35.1806C71.942 35.1802 73.2862 33.8354 73.2853 32.1905C73.2849 31.0036 72.579 29.982 71.5709 29.5006L78.078 5.94743C78.1731 5.95518 78.2651 5.97842 78.3624 5.97842C80.0074 5.978 81.3515 4.63323 81.3506 2.98826C81.3502 1.34423 80.0064 0.000426327 78.3624 0L78.3581 0.000473107ZM78.3581 1.02593H78.362C79.4521 1.02624 80.3245 1.8987 80.3248 2.98874C80.3254 4.0794 79.4527 4.95312 78.362 4.95343C77.2714 4.95312 76.3987 4.0794 76.3993 2.98874C76.3995 1.89998 77.2694 1.02799 78.3581 1.02593ZM42.4796 14.9315H42.4835C43.5741 14.9318 44.4468 15.8057 44.4463 16.8963C44.446 17.9864 43.5735 18.8587 42.4835 18.859C41.3935 18.8587 40.521 17.9864 40.5207 16.8963C40.5201 15.8069 41.3902 14.9336 42.4796 14.9315ZM2.98598 24.9457C2.9853 24.9457 2.98666 24.9457 2.98598 24.9457C4.07664 24.9451 4.95251 25.8178 4.9528 26.9085C4.95251 27.9991 4.07869 28.8717 2.98803 28.8711C1.89801 28.8708 1.02556 27.9985 1.02527 26.9085C1.02556 25.819 1.89659 24.9468 2.98598 24.9457ZM70.2928 30.2291C71.3828 30.2294 72.2591 31.1019 72.2594 32.1919C72.26 33.2825 71.3873 34.1563 70.2967 34.1566C69.2054 34.1572 68.3313 33.2832 68.3319 32.1919C68.3322 31.1025 69.2034 30.2302 70.2928 30.2291ZM25.7921 32.4542H25.7961C26.8861 32.4545 27.7586 33.327 27.7589 34.417C27.7595 35.5077 26.8868 36.3815 25.7961 36.3817C24.7048 36.3823 23.8307 35.5083 23.8313 34.417C23.8316 33.3276 24.7027 32.4554 25.7921 32.4542Z" fill="white"/>
</svg>
