<svg width="63" height="79" viewBox="0 0 63 79" fill="none" xmlns="http://www.w3.org/2000/svg">
<path fill-rule="evenodd" clip-rule="evenodd" d="M3.40291 2.12499e-05C2.97002 -0.00160654 2.54283 0.0903005 2.14915 0.27052C0.652497 0.952837 -0.0135141 2.73367 0.669065 4.23019C1.15093 5.28508 2.18005 5.91349 3.26872 5.96058L5.11533 19.6659C5.00265 19.7008 4.88708 19.7287 4.77885 19.7779C3.2822 20.4602 2.61619 22.2409 3.29877 23.7375C3.98108 25.2341 5.76182 25.9002 7.25835 25.2176C7.32323 25.1866 7.37688 25.1451 7.4386 25.1114L14.6187 34.14C13.8607 34.9979 13.6251 36.2558 14.128 37.3606C14.8103 38.8573 16.5911 39.5233 18.0876 38.8407C18.4397 38.6803 18.7415 38.4538 18.9949 38.1897L31.5285 46.6677C31.1892 47.4253 31.1528 48.3146 31.5223 49.1252C31.7416 49.6053 32.082 49.989 32.4817 50.2808L27.7791 59.8062C27.5141 59.7279 27.2364 59.6857 26.9519 59.6842C26.519 59.6825 26.0918 59.7745 25.6981 59.9547C24.2028 60.637 23.5371 62.4163 24.218 63.9122C24.9004 65.4089 26.6811 66.0749 28.1776 65.3923C28.6697 65.1675 29.0614 64.8161 29.3553 64.4029L50.6393 74.6093C50.4533 75.267 50.4771 75.9869 50.7815 76.6542C51.4638 78.1508 53.2445 78.8169 54.741 78.1343C56.2377 77.452 56.9037 75.6713 56.2211 74.1747C55.971 73.6266 55.5647 73.182 55.0715 72.8769L59.3676 62.1618C59.9731 62.2913 60.6204 62.2447 61.2242 61.9695C62.7208 61.2872 63.3868 59.5065 62.7043 58.01C62.2216 56.95 61.1631 56.2653 59.9984 56.2595C59.5655 56.2578 59.1384 56.3499 58.7447 56.5301C58.2215 56.7684 57.807 57.1456 57.5089 57.5935L37.1282 48.6008C37.2869 47.967 37.2528 47.2816 36.962 46.6441C36.4787 45.5851 35.4203 44.9011 34.2562 44.8957C33.8233 44.894 33.3961 44.9859 33.0024 45.1662C32.6504 45.3266 32.3485 45.553 32.0951 45.8172L19.5595 37.3412C19.8999 36.583 19.9377 35.6932 19.5677 34.8818C19.0843 33.8227 18.026 33.1387 16.8619 33.1333C16.429 33.1316 16.0018 33.2235 15.6081 33.4038C15.5419 33.4348 15.4867 33.4774 15.4238 33.5119L8.24972 24.4792C9.0081 23.6209 9.24252 22.3639 8.73841 21.2586C8.26968 20.2316 7.25909 19.5629 6.13676 19.5182L4.29016 5.82492C4.4037 5.79004 4.51766 5.75942 4.62864 5.70865C6.12437 5.02545 6.78961 3.24496 6.10672 1.7491C5.62373 0.690802 4.56618 0.00637739 3.40291 2.12499e-05ZM3.39892 1.02548C4.16514 1.02936 4.85529 1.47608 5.17342 2.17312C5.6262 3.16495 5.19578 4.32175 4.20406 4.77474C3.21223 5.2275 2.05538 4.79799 1.60239 3.80534C1.14981 2.81309 1.58142 1.6561 2.57375 1.20372C2.83238 1.08552 3.11453 1.02432 3.39892 1.02548ZM6.02863 20.535C6.79542 20.5386 7.48676 20.9849 7.80513 21.6825C8.2577 22.6748 7.8261 23.8319 6.83376 24.2843C5.84151 24.7368 4.68449 24.3036 4.2321 23.3129C3.77952 22.3206 4.21113 21.1637 5.20346 20.7112C5.46222 20.5934 5.74435 20.5335 6.02863 20.535ZM16.8579 34.1581C17.6247 34.1617 18.316 34.6082 18.6344 35.3058C19.087 36.298 18.6553 37.455 17.663 37.9074C16.6708 38.36 15.5137 37.9268 15.0614 36.9361C14.6099 35.9443 15.0413 34.7888 16.0327 34.3364C16.2913 34.2182 16.5735 34.157 16.8579 34.1581ZM34.2524 45.9207C35.0192 45.9243 35.7105 46.3707 36.0289 47.0683C36.4815 48.0605 36.0498 49.2176 35.0575 49.67C34.0657 50.1228 32.9088 49.6933 32.4559 48.7006C32.0033 47.7084 32.4349 46.5514 33.4272 46.099C33.6858 45.9808 33.968 45.9195 34.2524 45.9207ZM36.7179 49.5398L57.0986 58.5305C56.9394 59.1648 56.9738 59.8511 57.2648 60.4893C57.5188 61.0463 57.9254 61.4868 58.4124 61.787L54.1224 72.4982C53.9244 72.4559 53.7228 72.4269 53.5155 72.4261C53.0828 72.4237 52.6556 72.5152 52.2617 72.6943C51.7673 72.9198 51.3745 73.2724 51.0801 73.6877L29.8001 63.4733C29.9844 62.8168 29.9597 62.098 29.6559 61.4324C29.4395 60.9584 29.1033 60.5654 28.6985 60.2688L33.4032 50.7374C34.0697 50.9339 34.8038 50.9129 35.4821 50.6032C36.0052 50.3649 36.4198 49.9876 36.7179 49.5398ZM59.9946 57.2847C60.7618 57.2885 61.4532 57.7361 61.7711 58.4343C62.2237 59.4266 61.7921 60.5836 60.7998 61.036C59.8075 61.4886 58.6505 61.0554 58.1981 60.0647C57.7455 59.0724 58.1772 57.9153 59.1695 57.4629C59.4281 57.3447 59.7102 57.2835 59.9946 57.2847ZM26.9481 60.7095C27.7143 60.7134 28.4045 61.1601 28.7226 61.8572C29.1754 62.8489 28.7451 64.0058 27.7532 64.4588C26.761 64.9114 25.604 64.4782 25.1516 63.4875C24.7001 62.4957 25.1314 61.3402 26.1229 60.8878C26.3816 60.7695 26.6637 60.7084 26.9481 60.7095ZM53.5115 73.4515C54.2783 73.455 54.9696 73.9015 55.288 74.5991C55.7406 75.5914 55.3089 76.7483 54.3166 77.2007C53.3244 77.6533 52.1674 77.2202 51.715 76.2294C51.2624 75.2372 51.6941 74.0801 52.6863 73.6277C52.9451 73.5099 53.2272 73.4499 53.5115 73.4515Z" fill="white"/>
</svg>
