<svg width="87" height="71" viewBox="0 0 87 71" fill="none" xmlns="http://www.w3.org/2000/svg">
<path d="M76.3203 48.2437C73.1123 48.2437 70.2453 49.7086 68.3533 52.0066C72.3803 50.7016 78.3083 51.9587 80.7553 53.9757C81.5993 54.6727 80.6423 56.0887 79.7923 55.3887C77.3153 53.3467 73.0983 52.8287 70.0363 53.5107C69.2003 53.6967 67.5083 54.3336 66.5423 55.2826C66.9463 54.0767 67.5603 52.9666 68.3533 52.0066C66.3633 52.6516 64.8333 53.9167 64.4223 56.0317C64.0533 57.9297 64.8723 59.1316 66.0663 59.7016C66.0253 59.3286 66.0003 58.9496 66.0003 58.5646C66.0003 58.2166 66.0203 57.8756 66.0533 57.5366C66.0743 57.5766 66.0853 57.6157 66.1103 57.6567C66.9653 59.0527 70.4043 58.7097 69.6693 56.5697C69.3153 55.5397 70.8553 54.7957 71.2123 55.8367C72.4423 59.4147 68.4833 60.8576 66.0663 59.7016C66.1363 60.3386 66.2643 60.9577 66.4453 61.5557C66.5423 61.5747 66.6393 61.6147 66.7333 61.6817C69.0283 63.3397 73.1023 63.5576 76.1203 62.7846C77.5153 62.4276 81.3803 60.8006 80.1773 58.9096C79.4233 57.7266 76.0593 58.2237 76.6543 60.0677C76.9403 60.9547 75.4003 61.6986 75.1103 60.8016C73.6243 56.1976 83.1383 55.1226 81.7263 60.2446C80.3673 65.1776 71.9233 65.4526 67.4733 63.8556C69.2773 66.8636 72.5593 68.8846 76.3223 68.8846C82.0233 68.8846 86.6443 64.2636 86.6443 58.5646C86.6433 52.8646 82.0223 48.2437 76.3203 48.2437Z" fill="white"/>
<path d="M65.7172 62.9816C66.1742 63.3116 66.7762 63.6066 67.4722 63.8566C67.0432 63.1396 66.6922 62.3716 66.4452 61.5556C65.7292 61.4136 65.0262 62.4816 65.7172 62.9816Z" fill="white"/>
<path d="M24.3241 49.4005C24.2511 49.1485 24.1011 48.9765 23.9251 48.8475C23.9041 48.3015 23.5081 47.7595 22.8101 47.8715C19.2851 48.4365 16.6731 51.0345 16.5071 54.6695C16.3391 58.3475 19.1741 60.9805 22.6851 61.2785C23.3831 61.3375 23.8171 60.7745 23.7801 60.1245C23.6571 57.9705 22.6261 55.5445 23.7471 53.5605C24.5441 52.1515 24.7801 50.9865 24.3241 49.4005ZM21.6121 59.0275C17.1561 57.6275 17.9171 51.3555 22.4091 50.0275C22.7571 51.7685 21.6751 52.7885 21.2291 54.4555C20.8701 55.7955 21.3241 57.4925 21.6121 59.0275Z" fill="white"/>
<path d="M19.3723 46.8735C19.5413 46.7915 19.6563 46.6795 19.7463 46.5555C20.7833 46.1735 20.4513 44.4385 19.2503 44.6505C19.1173 44.6735 18.9703 44.7085 18.8313 44.7355C19.2273 44.4215 19.3903 43.8805 18.9153 43.4335C14.8803 39.6455 5.15228 39.4635 1.95828 44.4855C0.936279 46.0915 0.730279 50.9565 3.71728 50.4735C8.22928 49.7435 9.55928 42.2505 15.3223 43.8815C15.5583 43.9475 15.7673 43.9165 15.9563 43.8465C16.5453 44.0985 17.0323 44.3875 17.3723 44.7055C17.5173 44.8415 17.6773 44.9205 17.8403 44.9615C13.1583 46.1465 6.22728 49.4905 7.28828 54.8265C7.82628 57.5305 11.1263 60.6995 13.4813 58.0275C14.6753 56.6735 15.0013 54.3085 15.4023 52.6115C16.0213 49.9965 16.8283 48.1075 19.3723 46.8735ZM8.84328 43.7075C7.90528 44.3685 7.10928 45.0785 6.33128 45.9165C5.61328 46.6905 3.60328 49.5205 3.24828 47.4925C2.64328 44.0315 6.44328 42.7735 10.3253 42.8125C9.81228 43.0765 9.31428 43.3755 8.84328 43.7075ZM13.8623 50.5965C13.4223 52.0865 13.1223 53.6135 12.6583 55.0995C12.4733 55.6925 12.0383 57.5345 11.0033 56.9305C10.2113 56.4695 9.52028 55.3725 9.26128 54.5085C8.40428 51.6375 11.7413 49.3965 15.0183 48.0295C14.5293 48.7745 14.1493 49.6225 13.8623 50.5965Z" fill="white"/>
<path d="M43.6771 54.4584C43.1651 53.9714 42.5311 54.1934 42.2061 54.6324C41.9891 54.6394 41.7671 54.6954 41.5651 54.8614C40.2911 55.9124 39.8281 57.0074 39.6881 58.6204C39.4891 60.8914 37.2681 62.3074 35.9491 64.0154C35.5501 64.5324 35.5901 65.2414 36.1991 65.5864C39.2631 67.3244 43.0911 66.7574 45.0321 63.6274C46.9491 60.5364 46.2661 56.9184 43.6771 54.4584ZM38.3581 64.3364C39.4631 63.2324 40.7971 62.0904 41.2601 60.7814C41.8341 59.1544 41.5191 57.7014 42.7901 56.4634C45.7441 60.0984 42.8251 65.7014 38.3581 64.3364Z" fill="white"/>
<path d="M49.4002 52.9995C48.7562 53.0995 48.5862 53.6375 48.7342 54.1215C48.6342 54.0195 48.5332 53.9075 48.4352 53.8125C47.5652 52.9585 46.3102 54.2025 46.9492 55.1035C46.9542 55.2565 46.9842 55.4145 47.0782 55.5785C48.4782 58.0355 48.0752 60.0495 47.1072 62.5555C46.4782 64.1825 45.4102 66.3185 45.6282 68.1105C46.0602 71.6455 50.5752 70.8985 52.5462 68.9715C56.4402 65.1705 52.6142 58.4925 49.4232 54.8675C49.5812 54.9265 49.7572 54.9515 49.9532 54.9225C50.4132 54.8515 50.9782 54.8885 51.6062 55.0145C51.7232 55.1775 51.8772 55.3235 52.1102 55.4015C57.7842 57.3155 54.6452 64.2465 57.9542 67.3995C60.1442 69.4875 62.7252 65.3595 62.7922 63.4565C62.9972 57.5085 54.8702 52.1565 49.4002 52.9995ZM49.5182 61.7645C49.8302 60.7995 49.9982 59.8835 50.0152 58.9935C51.9452 61.9735 53.4302 65.7105 51.1002 67.5935C50.3992 68.1595 49.2072 68.6735 48.2932 68.6065C47.1002 68.5185 47.7812 66.7535 47.9642 66.1605C48.4222 64.6715 49.0372 63.2425 49.5182 61.7645ZM60.0262 65.2065C58.5872 66.6795 58.5292 63.2075 58.3752 62.1625C58.2072 61.0315 57.9522 59.9965 57.5532 58.9205C57.3522 58.3815 57.1102 57.8535 56.8362 57.3455C60.0592 59.5085 62.4822 62.6935 60.0262 65.2065Z" fill="white"/>
<path d="M16.5712 37.4855C17.4932 37.3125 17.5682 36.2265 17.0552 35.7355C17.0432 35.6215 17.0182 35.5045 16.9542 35.3815C16.3692 34.2555 15.6662 33.4685 14.7722 32.5485C12.0832 29.7805 14.1502 28.2015 16.9432 27.6635C19.9712 27.0805 22.3042 26.9525 24.8282 25.0815C29.7682 21.4195 29.2452 14.5545 25.9352 10.1335C25.2792 9.25753 24.1352 10.0245 24.1762 10.9295C24.2572 12.6985 23.9352 14.2325 23.0562 15.7715C22.5422 15.5975 22.0292 15.4235 21.5152 15.2505C21.2932 13.8205 21.3212 12.4005 21.5982 10.9925C22.0362 7.61153 23.9672 4.31753 25.5252 1.34653C26.0572 0.332532 24.3972 -0.536468 23.7812 0.400532C20.0042 6.15053 15.0092 11.1965 9.6192 15.4575C5.8262 18.4575 1.7862 21.2695 0.364202 26.1085C-2.2728 35.0885 10.0552 38.7085 16.5712 37.4855ZM7.7712 19.4615C12.2052 15.7225 16.5922 12.0825 20.4432 7.86753C19.9692 9.31453 19.6062 10.8055 19.4032 12.3725C19.2012 13.9365 19.2342 17.7405 21.1492 18.4835C23.8142 19.5175 25.1992 16.7475 25.7932 14.0605C27.2802 18.2975 26.0632 23.5395 21.0372 24.9585C18.4462 25.6905 15.7422 25.6895 13.1782 26.6035C7.8892 28.4885 13.1242 33.1935 14.8302 35.7125C11.3382 36.0575 7.9272 35.2515 4.9502 33.2555C-1.1888 29.1435 3.9022 22.7245 7.7712 19.4615Z" fill="white"/>
<path d="M73.8893 27.9684C72.1113 21.3364 71.1333 14.2494 71.5773 7.23243C71.6493 6.08843 69.7673 5.91543 69.5803 7.07943C69.0313 10.4894 68.5873 14.3794 66.8753 17.5194C66.2393 18.8804 65.3933 20.1124 64.3383 21.2154C63.8153 21.0804 63.2913 20.9454 62.7683 20.8104C62.9943 19.0044 63.6703 17.5124 64.8173 16.0404C65.4053 15.2874 64.9443 13.9964 63.8743 14.3854C58.4783 16.3464 53.8533 21.9414 55.6343 27.8134C56.5423 30.8114 58.3633 32.2114 60.4683 34.3854C62.4113 36.3914 63.1263 38.8864 59.2473 39.7734C58.0933 40.0374 57.1253 40.3074 56.1013 40.8174C56.0643 40.6604 56.0333 40.5044 55.9843 40.3424C55.0523 37.2284 52.2873 35.0854 49.0723 33.5904C50.5133 32.0254 51.8123 30.3524 52.6913 28.3534C53.2113 27.1684 51.3413 26.4574 50.8253 27.6324C49.9553 29.6124 48.5993 31.2474 47.1233 32.7834C46.2813 32.4674 45.4343 32.1994 44.5923 31.9514C44.9793 31.3184 44.5613 30.2484 43.6073 30.4024C43.0053 30.4994 42.7703 30.9914 42.8123 31.4614C41.6243 31.1624 40.4853 30.9174 39.4813 30.7234C39.1483 30.6594 38.8023 30.6004 38.4553 30.5434C38.9273 29.9254 38.5263 28.7674 37.5333 28.9274C36.7913 29.0474 36.6033 29.7634 36.8173 30.3034C35.9263 30.1934 35.0083 30.1094 34.0763 30.0624C33.7223 27.5034 33.8863 24.9284 34.7593 22.3904C35.1783 21.1714 33.3123 20.4494 32.8933 21.6694C31.9353 24.4544 31.7293 27.2434 32.0753 30.0264C26.8943 30.0724 21.6103 31.3854 18.5643 35.4334C18.2933 35.7934 18.3253 36.1674 18.5013 36.4614C18.4683 36.5974 18.4623 36.7464 18.5083 36.9184C21.0913 46.7864 28.5613 54.9374 39.5093 53.9964C44.6703 53.5534 54.5093 50.2144 56.0903 44.1694C61.3433 48.1974 71.8463 50.5934 74.9053 42.2144C76.7063 37.2814 75.1413 32.6374 73.8893 27.9684ZM41.8813 51.7094C31.1423 53.9604 23.0563 46.4454 20.4793 36.6004C20.4563 36.5124 20.4093 36.4514 20.3713 36.3784C23.0403 33.0354 27.5103 31.7314 32.3523 31.7204C32.5463 32.6724 32.7923 33.6234 33.1023 34.5724C33.5023 35.7964 35.3183 34.9534 34.9213 33.7394C34.7103 33.0924 34.5403 32.4424 34.3903 31.7914C38.2233 32.0514 42.1583 33.0364 45.5263 34.3884C44.9883 34.9174 44.4493 35.4454 43.9263 35.9824C43.0363 36.8944 44.2973 38.4514 45.1973 37.5254C45.9473 36.7554 46.7183 36.0034 47.4783 35.2424C49.0293 35.9834 50.4113 36.7964 51.5283 37.6424C59.6193 43.7684 47.5353 50.5244 41.8813 51.7094ZM66.8053 45.8114C63.1623 45.8734 59.8943 44.6804 57.2653 42.4544C60.1943 41.2394 67.3283 40.0994 64.1803 35.5584C62.6533 33.3584 60.4533 31.8644 58.7923 29.8034C55.5723 25.8084 57.7873 20.6414 61.5883 17.8314C60.4283 20.4624 59.8603 23.6034 62.6603 24.1904C64.6723 24.6114 67.0253 21.3684 67.8173 19.9164C68.6113 18.4604 69.2263 16.9814 69.7263 15.4804C70.2813 21.2214 71.6243 26.7674 72.9443 32.4234C74.0963 37.3594 74.3113 45.6764 66.8053 45.8114Z" fill="white"/>
<path d="M51.9773 42.7054C42.5913 38.8424 32.9743 35.4024 22.7113 35.3364C21.4213 35.3284 21.4223 37.3284 22.7113 37.3364C32.7953 37.4014 42.2343 40.8424 51.4453 44.6344C52.6383 45.1254 53.1523 43.1904 51.9773 42.7054Z" fill="white"/>
</svg>
