<svg width="99" height="99" viewBox="0 0 99 99" fill="none" xmlns="http://www.w3.org/2000/svg">
<path d="M66.4463 40.6843C67.516 40.6843 68.3889 39.8114 68.3889 38.7417C68.3889 22.7336 55.3685 9.71313 39.3603 9.71313C38.2907 9.71313 37.4177 10.5861 37.4177 11.6558C37.4177 12.7254 38.2907 13.5984 39.3603 13.5984C53.2292 13.5984 64.5037 24.8729 64.5037 38.7417C64.5037 39.8114 65.3644 40.6843 66.4463 40.6843Z" fill="white"/>
<path d="M71.6841 60.0613C75.7291 53.9383 78.1021 46.6228 78.1021 38.7417C78.1021 17.3729 60.7169 0 39.3481 0C17.9916 0 0.606445 17.3729 0.606445 38.7417C0.606445 60.1105 17.9916 77.4956 39.3604 77.4956C47.2415 77.4956 54.5694 75.1227 60.6923 71.0653L85.7004 96.0612C87.1512 97.5366 89.1062 98.348 91.2086 98.348C93.2865 98.348 95.2291 97.5366 96.7045 96.0735C99.7291 93.0489 99.7291 88.1186 96.7045 85.0817L71.6841 60.0613ZM39.3604 73.6104C20.1433 73.6104 4.50397 57.9711 4.50397 38.754C4.50397 19.5368 20.1433 3.89753 39.3604 3.89753C58.5776 3.89753 74.2169 19.5368 74.2169 38.754C74.2169 57.9711 58.5776 73.6104 39.3604 73.6104ZM93.9504 93.3194C92.4627 94.8071 89.9053 94.7948 88.4545 93.3194L63.8521 68.7293C65.8685 67.0818 67.7005 65.2375 69.348 63.2334L93.9381 87.8235C95.4627 89.3358 95.4627 91.7948 93.9504 93.3194Z" fill="white"/>
</svg>
