<svg width="97" height="67" viewBox="0 0 97 67" fill="none" xmlns="http://www.w3.org/2000/svg">
<path d="M81.2908 51.4896C81.4628 52.8846 83.1428 53.5586 84.2288 52.5576C85.2428 51.6246 85.1898 50.4196 84.3638 49.3726C83.8818 48.7626 83.2268 48.2876 82.5518 48.2776C81.7818 49.1146 81.1528 50.3566 81.2908 51.4896Z" fill="white"/>
<path d="M89.8909 46.0117C90.1939 44.9797 90.5099 43.8717 90.3769 42.7877C90.0939 40.4467 87.6819 39.8217 85.7309 40.9917C83.2079 42.5067 83.0669 45.5237 84.8049 47.6997C84.8659 47.7757 84.9049 47.8577 84.9299 47.9377C85.1059 48.0997 85.2739 48.2797 85.4259 48.4727C86.7369 50.1347 86.8109 52.2977 85.0369 53.6817C83.4019 54.9567 80.9819 54.4627 80.1309 52.5737C79.5959 51.3867 79.8689 49.9977 80.4879 48.8087C80.1889 48.5757 80.0539 48.1367 80.4059 47.7987C81.1169 47.1107 81.9429 46.8537 82.7519 46.9207C81.9409 45.0367 81.8829 42.8087 83.3399 41.1717C84.7989 39.5307 88.6019 37.9197 90.5239 39.8567C92.7119 42.0607 91.6899 45.4827 90.6309 47.9707C89.9179 49.6507 87.3989 53.9457 89.1509 55.8027C93.1689 54.3897 96.0509 50.5737 96.0509 46.0737C96.0509 40.3747 91.4299 35.7537 85.7309 35.7537C80.0319 35.7537 75.4109 40.3747 75.4109 46.0737C75.4109 51.7737 80.0319 56.3937 85.7309 56.3937C86.4399 56.3937 87.1309 56.3227 87.7989 56.1867C87.7949 56.1797 87.7889 56.1747 87.7849 56.1677C85.7289 53.0357 89.0469 48.8957 89.8909 46.0117Z" fill="white"/>
<path d="M94.2089 54.3438C95.2499 56.9968 91.2339 57.0408 89.7419 56.2618C89.4999 56.1358 89.3139 55.9758 89.1499 55.8038C88.7109 55.9578 88.2629 56.0938 87.7979 56.1888C89.8779 59.3078 97.3138 58.4038 95.5788 53.9788C95.2578 53.1588 93.8849 53.5138 94.2089 54.3438Z" fill="white"/>
<path d="M37.8619 43.6826C38.2929 44.2516 39.1869 44.3996 39.5889 43.6826C40.3339 42.3546 41.1209 41.0556 42.0999 39.8856C42.6949 39.1726 42.2739 38.2896 41.3929 38.1786C40.2289 38.0306 39.0569 37.9906 37.8929 37.8446C37.4969 37.7946 37.2409 37.9616 37.0919 38.2076C36.8139 38.0406 36.4759 38.0216 36.1779 38.1296C35.4209 37.7546 34.3259 38.5866 34.8629 39.5166C35.7209 41.0066 36.8249 42.3166 37.8619 43.6826Z" fill="white"/>
<path d="M35.5228 30.2765C36.5758 25.1725 35.1828 20.5765 30.2278 18.3035C25.1488 15.9735 20.0088 17.1115 16.6948 21.5065C16.3058 22.0225 16.7158 22.8355 17.2928 22.9755C18.3108 23.2235 19.3888 23.2965 20.4748 23.3175C20.3108 23.7505 20.4418 24.2815 20.8868 24.5415C22.3308 25.3875 31.5548 27.1615 29.8018 23.0035C28.7148 20.4265 23.0478 21.1985 19.6338 21.1925C22.4748 18.6455 26.2858 18.6845 29.9248 20.3545C33.6998 22.0865 34.3568 26.0525 33.5938 29.7455C33.3338 31.0035 35.2618 31.5395 35.5228 30.2765Z" fill="white"/>
<path d="M42.2698 30.2765C42.5308 31.5395 44.4578 31.0035 44.1988 29.7455C43.4368 26.0525 44.0928 22.0865 47.8678 20.3545C51.5068 18.6855 55.3188 18.6465 58.1588 21.1925C54.7448 21.1985 49.0778 20.4265 47.9908 23.0035C46.2378 27.1615 55.4618 25.3865 56.9058 24.5415C57.3498 24.2815 57.4808 23.7505 57.3178 23.3175C58.4038 23.2965 59.4818 23.2235 60.5008 22.9755C61.0768 22.8345 61.4868 22.0215 61.0988 21.5065C57.7848 17.1115 52.6438 15.9735 47.5658 18.3035C42.6098 20.5765 41.2168 25.1735 42.2698 30.2765Z" fill="white"/>
<path d="M11.3969 24.3146C10.3349 23.5766 9.33592 25.3116 10.3869 26.0416C9.32392 27.9626 8.29792 27.8936 7.31092 25.8336C6.42592 24.6696 6.20692 23.2006 6.08792 21.7886C5.83092 18.7226 7.61292 16.0096 9.59892 13.8846C12.5679 10.7086 15.9709 11.4156 19.7699 11.6506C19.8129 11.9766 19.8649 12.2976 19.9269 12.6096C20.1789 13.8746 22.1059 13.3376 21.8559 12.0786C21.1179 8.37063 21.5969 2.66263 26.4509 2.03863C27.7299 1.87463 29.0869 2.06863 30.3329 2.34763C31.7699 2.66863 32.9969 3.07363 31.5179 4.30363C30.5249 5.12863 31.9479 6.53563 32.9319 5.71763C34.3179 4.56563 35.0939 2.71563 33.3429 1.46463C31.6169 0.231631 29.1479 -0.0143697 27.0869 0.000630281C21.6139 0.0396303 19.6139 5.00163 19.6359 9.64263C16.2189 9.41363 12.7129 8.75763 9.80892 11.0646C6.22892 13.9076 3.31492 18.3706 4.21492 23.1536C4.75292 26.0126 7.38892 30.9786 11.1559 29.8096C14.3919 28.8056 13.7759 25.9676 11.3969 24.3146Z" fill="white"/>
<path d="M6.26583 30.5517C7.14783 29.6137 5.73683 28.1967 4.85183 29.1377C2.42883 31.7157 3.54583 34.7377 4.91383 37.5767C5.89983 39.6217 7.18383 41.6317 7.35683 43.9497C7.48483 45.6677 6.16383 47.7137 4.28383 47.4147C3.62783 47.3107 1.07683 45.7937 2.39683 44.8737C3.44683 44.1437 2.44883 42.4077 1.38683 43.1467C-2.77917 46.0487 3.43283 50.8417 6.98783 48.7987C9.60383 47.2957 9.61183 43.6977 8.81183 41.2347C7.84983 38.2727 3.53683 33.4557 6.26583 30.5517Z" fill="white"/>
<path d="M29.0987 5.38559C29.9217 4.40459 28.5147 2.98159 27.6847 3.97159C22.9687 9.59659 30.4887 12.1176 35.1477 12.5096C38.1657 12.7636 41.3607 12.0186 43.2277 9.49959C45.2817 6.72559 43.8127 2.56159 40.8237 1.38059C39.6227 0.906591 39.1077 2.84059 40.2927 3.30959C44.0967 4.81259 41.5327 9.27359 39.0447 10.1426C37.6297 10.6366 36.1147 10.5906 34.6487 10.4676C31.9507 10.2396 26.0637 9.00459 29.0987 5.38559Z" fill="white"/>
<path d="M48.3558 10.1107C49.0798 6.08069 51.2208 3.57068 55.3238 2.80968C57.1268 2.47569 58.9148 2.14669 60.7298 2.56869C66.0158 3.79569 60.3058 10.6217 59.1888 6.41369C58.8578 5.16769 56.9288 5.69669 57.2598 6.94469C58.9178 13.1897 67.8738 7.71268 63.3898 1.91168C61.2448 -0.863316 55.8308 0.532684 53.0978 1.26268C49.1828 2.30768 47.1008 5.82968 46.4268 9.58068C46.2008 10.8397 48.1278 11.3787 48.3558 10.1107Z" fill="white"/>
<path d="M78.5729 22.1287C77.9419 18.2397 74.8289 15.5227 71.2739 14.2997C66.4369 12.6367 57.4889 15.7417 56.5229 8.57967C56.3509 7.30667 54.4239 7.85067 54.5939 9.11067C55.3809 14.9507 60.8689 15.4707 65.7149 15.5867C70.3539 15.6967 74.6959 16.9457 76.3989 21.7127C77.1429 23.7947 77.0319 26.2577 75.5999 28.0307C73.9499 30.0727 69.5429 29.3157 68.0989 27.6377C67.2559 26.6587 65.8479 28.0797 66.6849 29.0517C68.6899 31.3827 72.6489 31.8217 75.3889 30.5267C78.6959 28.9647 79.0989 25.3737 78.5729 22.1287Z" fill="white"/>
<path d="M63.7248 31.1775C63.3288 34.6395 65.9978 37.0265 67.7658 39.7175C68.4628 40.7795 69.1148 41.8775 69.6468 43.0225C68.0258 43.4405 66.0308 43.2235 65.6898 41.4135C65.4518 40.1455 63.5238 40.6845 63.7608 41.9445C64.3418 45.0355 67.7128 45.6055 70.3668 44.8705C70.6348 45.7215 70.8258 46.5975 70.8908 47.5115C71.1338 50.8915 66.0288 51.7925 64.7538 48.8405C64.2438 47.6595 62.5218 48.6795 63.0268 49.8505C64.8508 54.0775 69.7938 53.2085 72.1498 49.9515C73.3328 48.3135 72.9468 45.9495 72.2568 44.0375C73.5688 43.1965 74.5478 41.8865 74.6528 40.2565C74.8298 37.5225 73.1788 35.2425 71.4288 33.3055C70.5638 32.3465 69.1538 33.7645 70.0148 34.7195C71.8178 36.7175 74.0188 40.1835 71.4358 42.1775C70.5578 40.4125 69.5368 38.7565 68.4308 37.1165C67.1388 35.1985 65.4298 33.7355 65.7218 31.1785C65.8708 29.8975 63.8698 29.9115 63.7248 31.1775Z" fill="white"/>
<path d="M70.5178 54.3037C69.6838 55.2787 71.0918 56.6997 71.9318 55.7177C72.6198 54.9147 74.1508 54.1047 74.3658 55.8037C74.5498 57.2607 72.3578 57.9367 71.3428 58.2177C68.8818 58.9017 66.0848 58.3637 63.7318 57.5577C58.7298 55.8437 58.5278 51.3387 58.9598 46.9327C59.9078 47.0777 60.8538 47.2487 61.7948 47.4757C63.0478 47.7767 63.5798 45.8477 62.3258 45.5467C61.2818 45.2957 60.2338 45.1047 59.1818 44.9477C59.2548 44.3447 59.3288 43.7507 59.3928 43.1777C59.5338 41.8967 57.5318 41.9097 57.3928 43.1777C57.3378 43.6757 57.2748 44.1837 57.2098 44.6957C56.0148 44.5707 54.8148 44.4887 53.6128 44.4377C53.7588 43.4147 53.6588 42.3947 53.3648 41.3927C56.5868 40.7467 59.9208 40.6367 63.2248 40.3437C64.4988 40.2307 64.5098 38.2297 63.2248 38.3437C59.6348 38.6617 56.0728 38.8107 52.6178 39.5427C50.8858 36.1707 47.4098 33.1177 44.9418 30.9697C43.9738 30.1277 42.5528 31.5357 43.5278 32.3837C45.7198 34.2917 49.1568 36.9647 50.7898 39.9907C49.5838 40.3327 48.3918 40.7547 47.2208 41.3137C46.0568 41.8687 47.0728 43.5927 48.2308 43.0407C49.3058 42.5267 50.4048 42.1447 51.5218 41.8337C51.6438 42.3157 51.7158 42.8047 51.7128 43.2977C51.7098 43.6767 51.6708 44.0347 51.6028 44.3727C50.4228 44.3497 49.2428 44.3437 48.0598 44.3437C46.7698 44.3437 46.7698 46.3437 48.0598 46.3437C48.9348 46.3437 49.8098 46.3487 50.6828 46.3597C49.6718 47.6157 48.0208 48.2907 46.1758 48.2947C44.0248 48.2997 41.0248 47.9607 40.2008 45.5787C39.9878 44.9637 39.3858 44.7977 38.8988 44.9417C38.4118 44.7967 37.8098 44.9627 37.5968 45.5787C36.7728 47.9607 33.7728 48.2997 31.6218 48.2947C29.3188 48.2897 27.3158 47.2397 26.4898 45.3177C27.2608 45.4457 28.0308 45.6037 28.7958 45.8087C30.0428 46.1427 30.5718 44.2127 29.3268 43.8787C28.2518 43.5917 27.1698 43.4027 26.0858 43.2547C26.0878 42.3217 26.3388 41.4077 26.7478 40.5217C27.5338 40.8707 28.3098 41.2507 29.0568 41.7077C30.1608 42.3837 31.1638 40.6527 30.0668 39.9807C29.3188 39.5237 28.5458 39.1377 27.7628 38.7827C29.5498 36.2567 32.3738 34.0337 34.2688 32.3847C35.2438 31.5367 33.8228 30.1287 32.8548 30.9707C30.7508 32.8027 27.9158 35.2937 26.0508 38.0777C22.2308 36.6877 18.1078 36.1977 14.0618 35.6787C12.7848 35.5147 12.8008 37.5167 14.0618 37.6787C17.7568 38.1527 21.5278 38.6097 25.0358 39.8397C24.5338 40.8847 24.2188 41.9587 24.1428 43.0437C22.1148 42.8887 20.0758 42.8897 18.0318 42.9527C17.6778 42.6047 17.1168 42.4947 16.6878 42.9717C16.6778 42.9817 16.6668 42.9927 16.6578 43.0037C14.8478 43.0737 13.0368 43.1587 11.2288 43.1787C9.93984 43.1927 9.93884 45.1927 11.2288 45.1787C12.4028 45.1647 13.5808 45.1197 14.7578 45.0697C13.3128 46.7237 12.0318 48.6287 12.3858 50.8097C12.9178 54.0877 14.2178 56.4247 17.1528 58.0617C19.9268 59.6087 23.5818 59.5737 26.6498 59.5697C28.2088 59.5677 29.7678 59.5117 31.3268 59.5107C32.4388 59.5097 33.5138 59.5707 34.6168 59.7507C38.3098 60.3547 33.8978 66.3147 30.7688 63.8037C29.7738 63.0047 28.3488 64.4107 29.3548 65.2177C34.6188 69.4447 42.6448 61.0087 36.2128 58.1477C33.1448 56.7837 28.8538 57.5677 25.6088 57.5717C22.7438 57.5757 19.8798 57.2927 17.3398 55.8767C12.4588 53.1537 14.9458 48.1447 17.6108 44.9537C19.8518 44.8717 22.0898 44.8457 24.3108 45.0427C24.5288 45.9417 24.9348 46.8417 25.6078 47.7317C26.7858 49.2887 28.8178 50.1607 30.9828 50.3697C28.2118 57.7337 40.6558 59.3317 45.2798 55.4427C46.1198 55.6967 46.7418 56.3527 47.0108 57.3387C47.4438 58.9217 46.1928 59.8197 44.7958 60.0477C43.5248 60.2557 44.0658 62.1817 45.3268 61.9767C47.8768 61.5607 49.3718 59.5687 48.9838 57.0197C48.7648 55.5837 47.8008 54.4117 46.5588 53.7907C46.9988 52.8357 47.0878 51.6987 46.6698 50.3777C48.8878 50.1937 50.9858 49.3237 52.1908 47.7317C52.5228 47.2937 52.7808 46.8527 52.9958 46.4117C54.3258 46.4577 55.6518 46.5397 56.9728 46.6767C56.5708 50.3047 56.5018 54.0047 59.0238 56.9027C61.6098 59.8777 66.8088 60.8817 70.5318 60.3757C73.3248 59.9947 77.2918 58.2457 76.1568 54.7397C75.2518 51.9607 72.0288 52.5397 70.5178 54.3037ZM44.4268 53.3367C44.3038 53.3407 44.1818 53.3287 44.0578 53.3447C43.4108 53.4247 43.0968 53.9897 43.1118 54.5007C39.1918 56.7767 30.4378 55.6457 33.1728 50.3547C35.5098 50.1007 37.7058 49.0777 38.8958 47.3157C40.0698 49.0527 42.2238 50.0707 44.5258 50.3407C44.5268 50.3437 44.5268 50.3467 44.5278 50.3497C45.1028 51.5417 44.9798 52.5377 44.4268 53.3367Z" fill="white"/>
</svg>
