<svg width="60" height="92" viewBox="0 0 60 92" fill="none" xmlns="http://www.w3.org/2000/svg">
<path fill-rule="evenodd" clip-rule="evenodd" d="M34.4884 0.216397C32.8486 0.216435 31.5082 1.55677 31.5082 3.19662C31.5082 4.83643 32.8486 6.17684 34.4884 6.17684C35.1564 6.17684 35.7687 5.9466 36.2669 5.57197L50.1625 18.6484C49.851 19.1191 49.6658 19.6809 49.6658 20.2847C49.6658 21.9245 51.0061 23.2648 52.646 23.2649C52.8958 23.2648 53.1348 23.2254 53.367 23.1668L54.1901 25.0235C53.395 25.56 52.8703 26.4685 52.8703 27.4949C52.8703 27.5965 52.8904 27.6926 52.9005 27.7915L30.2226 34.2205C29.7395 33.223 28.7248 32.5261 27.5468 32.5261C26.5463 32.5261 25.6625 33.0285 25.1214 33.7899L20.2605 31.4847C20.3302 31.2327 20.3787 30.9728 20.3787 30.6995C20.3787 29.0597 19.0383 27.7194 17.3985 27.7193C15.7587 27.7194 14.4183 29.0597 14.4183 30.6995C14.4183 30.8317 14.4395 30.958 14.4564 31.0859L5.61391 33.8759C5.36186 33.3927 4.98753 32.988 4.52437 32.7043L12.5337 12.2575C12.7255 12.2966 12.9235 12.3175 13.1265 12.3175C14.7663 12.3175 16.1067 10.9771 16.1067 9.33732C16.1067 7.69747 14.7663 6.35713 13.1265 6.35709C11.4867 6.35713 10.1463 7.69747 10.1463 9.33732C10.1463 10.4109 10.7254 11.3482 11.5823 11.8729L3.64914 32.1314L4.67859 12.0151C6.14695 11.8329 7.29626 10.5867 7.29628 9.07096C7.29626 7.43111 5.95591 6.09077 4.31608 6.09073C2.67625 6.09077 1.3359 7.43111 1.33588 9.07096C1.3359 10.4816 2.32997 11.6663 3.65114 11.9711L2.61569 32.2957C1.14827 32.4786 2.05412e-05 33.7247 0 35.2398C2.28666e-05 36.8797 1.34037 38.2201 2.9802 38.2201C3.02886 38.2201 3.07428 38.2084 3.1224 38.2046L8.41185 61.9199C7.33602 62.3706 6.57528 63.4348 6.57526 64.6698C6.57528 65.8813 7.30842 66.9267 8.35176 67.3916L3.98161 85.1486C3.91417 85.1448 3.84988 85.1292 3.78133 85.1292C2.14149 85.1293 0.80115 86.4697 0.801128 88.1095C0.80115 89.7493 2.14149 91.0896 3.78133 91.0897C5.35193 91.0896 6.63486 89.8563 6.7415 88.3117L31.6346 85.7141C31.991 86.9609 33.1309 87.8852 34.4886 87.8852C36.1284 87.8852 37.4688 86.5448 37.4688 84.905C37.4688 83.2652 36.1284 81.9248 34.4886 81.9248C34.4475 81.9248 34.4092 81.9364 34.3684 81.9364L31.1799 67.2297C32.2671 66.7843 33.0385 65.7149 33.0385 64.4717C33.0385 62.8319 31.6981 61.4916 30.0583 61.4916C29.3027 61.4916 28.6182 61.7853 28.0915 62.2526L26.7797 61.2092C27.0121 60.7853 27.1562 60.3065 27.1562 59.7911C27.1562 58.4695 26.2798 57.3547 25.0833 56.9672L27.6509 38.4752C29.2419 38.4186 30.5269 37.1092 30.527 35.505C30.527 35.4015 30.5072 35.3035 30.4967 35.2027L53.1787 28.7856C53.6458 29.7443 54.6057 30.4152 55.7283 30.462L56.0227 32.6771C54.82 33.0608 53.9378 34.179 53.9378 35.5051C53.9378 36.9047 54.9174 38.079 56.223 38.3951L55.7884 45.373C54.3038 45.5396 53.1367 46.7937 53.1366 48.3211C53.1367 49.961 54.477 51.3013 56.1168 51.3014C57.7567 51.3013 59.097 49.961 59.097 48.3211C59.097 46.9216 58.1174 45.7472 56.8118 45.431L57.2464 38.4533C58.7311 38.2866 59.8982 37.0325 59.8982 35.5051C59.8982 33.9057 58.6205 32.6008 57.0361 32.5368L56.7417 30.3238C57.9466 29.9412 58.8307 28.8215 58.8307 27.4938C58.8307 25.854 57.4903 24.5137 55.8505 24.5137C55.6007 24.5137 55.3617 24.5532 55.1295 24.6117L54.3043 22.7551C55.1002 22.2188 55.6262 21.3107 55.6262 20.2836C55.6262 18.6438 54.2858 17.3034 52.646 17.3034C51.9786 17.3034 51.3675 17.5344 50.8695 17.9082L36.9759 4.82576C37.285 4.35634 37.4686 3.79679 37.4686 3.19555C37.4686 1.55571 36.1282 0.216435 34.4884 0.216397ZM34.4884 1.24186C35.574 1.24186 36.4431 2.11096 36.4431 3.19662C36.4431 4.28224 35.574 5.15138 34.4884 5.15138C33.4027 5.15138 32.5337 4.28224 32.5336 3.19662C32.5337 2.11096 33.4027 1.24186 34.4884 1.24186ZM4.31589 7.1162C5.40154 7.1162 6.27063 7.9853 6.27064 9.07096C6.27063 10.1566 5.40154 11.0256 4.31589 11.0256C3.23024 11.0256 2.36115 10.1566 2.36113 9.07096C2.36115 7.9853 3.23024 7.1162 4.31589 7.1162ZM13.1263 7.38244C14.212 7.38248 15.081 8.25154 15.0811 9.3372C15.081 10.4228 14.212 11.2919 13.1263 11.292C12.0406 11.2919 11.1716 10.4228 11.1715 9.3372C11.1716 8.25154 12.0406 7.38248 13.1263 7.38244ZM52.646 18.3299C53.7316 18.3299 54.6007 19.199 54.6007 20.2847C54.6007 21.3703 53.7316 22.2393 52.646 22.2393C51.5603 22.2393 50.6912 21.3703 50.6912 20.2847C50.6912 19.199 51.5603 18.3299 52.646 18.3299ZM55.8505 25.5401C56.9361 25.5401 57.8052 26.409 57.8052 27.4947C57.8052 28.5804 56.9361 29.4495 55.8505 29.4495C54.7648 29.4495 53.8957 28.5804 53.8957 27.4947C53.8957 26.409 54.7648 25.5401 55.8505 25.5401ZM17.3983 28.7445C18.484 28.7446 19.3531 29.6137 19.3531 30.6993C19.3531 31.785 18.484 32.654 17.3983 32.6541C16.3127 32.654 15.4436 31.785 15.4436 30.6993C15.4436 29.6137 16.3127 28.7446 17.3983 28.7445ZM14.7666 32.0672C15.2653 33.0197 16.2534 33.6795 17.3983 33.6795C18.3982 33.6795 19.2825 33.1785 19.8237 32.4177L24.6846 34.7209C24.6149 34.9729 24.5664 35.2328 24.5664 35.5061C24.5664 36.8262 25.441 37.9392 26.6353 38.328L24.0697 56.822C22.4797 56.8798 21.1957 58.1887 21.1957 59.7922C21.1957 60.3658 21.3669 60.8988 21.6503 61.3545L20.751 62.1576C20.2429 61.7554 19.6094 61.5047 18.9144 61.5047C17.4303 61.5047 16.2021 62.606 15.9803 64.0303L12.4774 64.1004C12.209 62.7319 10.9997 61.691 9.55526 61.691C9.50727 61.691 9.46251 61.7026 9.41507 61.7065L4.11961 37.9931C5.19758 37.5434 5.96018 36.4778 5.9602 35.2412C5.9602 35.1068 5.93757 34.9785 5.92015 34.8487L14.7666 32.0672ZM2.98001 33.2849C4.06566 33.2849 4.93474 34.1541 4.93476 35.2397C4.93474 36.3254 4.06566 37.1945 2.98001 37.1945C1.89436 37.1945 1.02527 36.3254 1.02525 35.2397C1.02527 34.1541 1.89436 33.2849 2.98001 33.2849ZM27.5466 33.5512C28.6323 33.5512 29.5014 34.4203 29.5014 35.506C29.5014 36.5916 28.6323 37.4607 27.5466 37.4607C26.461 37.4607 25.5919 36.5916 25.5919 35.506C25.5919 34.4203 26.461 33.5512 27.5466 33.5512ZM56.918 33.5512C58.0036 33.5512 58.8727 34.4203 58.8727 35.506C58.8727 36.5916 58.0036 37.4607 56.918 37.4607C55.8323 37.4607 54.9632 36.5916 54.9632 35.506C54.9632 34.4203 55.8323 33.5512 56.918 33.5512ZM56.1168 46.3672C57.2025 46.3672 58.0716 47.2363 58.0716 48.322C58.0716 49.4076 57.2025 50.2767 56.1168 50.2767C55.0312 50.2767 54.1621 49.4076 54.1621 48.322C54.1621 47.2363 55.0312 46.3672 56.1168 46.3672ZM24.1759 57.8374C25.2615 57.8375 26.1306 58.7065 26.1306 59.7921C26.1306 60.8778 25.2615 61.7469 24.1759 61.747C23.0902 61.7469 22.2211 60.8778 22.2211 59.7921C22.2211 58.7065 23.0902 57.8375 24.1759 57.8374ZM26.1446 62.0093L27.4565 63.0507C27.2227 63.4755 27.0779 63.9559 27.0779 64.4728C27.078 66.1126 28.4183 67.453 30.0581 67.453C30.0993 67.453 30.1376 67.4413 30.1783 67.4413L33.3668 82.1481C32.3426 82.5677 31.6108 83.5446 31.5282 84.6956L6.63516 87.2993C6.39003 86.4438 5.78056 85.7398 4.97683 85.3846L9.35299 67.6316C9.42108 67.6355 9.48605 67.651 9.55528 67.651C11.0388 67.651 12.2668 66.5506 12.4894 65.1273L15.9923 65.0553C16.2607 66.4238 17.47 67.4647 18.9145 67.4647C20.5543 67.4647 21.8946 66.1243 21.8947 64.4845C21.8947 63.9093 21.7229 63.3748 21.438 62.9183L22.3353 62.1152C22.8441 62.5196 23.4788 62.7721 24.1759 62.7721C24.9325 62.7721 25.6178 62.4778 26.1446 62.0093ZM30.0581 62.518C31.1438 62.518 32.0129 63.3871 32.0129 64.4728C32.0129 65.5584 31.1438 66.4275 30.0581 66.4275C28.9725 66.4275 28.1034 65.5584 28.1034 64.4728C28.1034 63.3871 28.9725 62.518 30.0581 62.518ZM18.9145 62.5296C20.0001 62.5296 20.8692 63.3987 20.8692 64.4844C20.8692 65.57 20.0001 66.4391 18.9145 66.4391C17.8288 66.4391 16.9597 65.57 16.9597 64.4844C16.9597 63.3987 17.8288 62.5296 18.9145 62.5296ZM9.55527 62.716C10.6409 62.716 11.51 63.5851 11.51 64.6708C11.51 65.7564 10.6409 66.6255 9.55527 66.6255C8.46962 66.6255 7.60053 65.7564 7.60052 64.6708C7.60053 63.5851 8.46962 62.716 9.55527 62.716ZM34.4884 82.9506C35.574 82.9506 36.4431 83.8197 36.4431 84.9053C36.4431 85.991 35.574 86.86 34.4884 86.86C33.4027 86.86 32.5337 85.991 32.5336 84.9053C32.5337 83.8197 33.4027 82.9506 34.4884 82.9506ZM3.78114 86.1551C4.86679 86.1551 5.73587 87.0242 5.73589 88.1098C5.73587 89.1955 4.86679 90.0645 3.78114 90.0646C2.69548 90.0645 1.8264 89.1955 1.82638 88.1098C1.8264 87.0242 2.69548 86.1551 3.78114 86.1551Z" fill="white"/>
</svg>
