<svg width="95" height="80" viewBox="0 0 95 80" fill="none" xmlns="http://www.w3.org/2000/svg">
<path d="M30.0231 44.6849L33.9781 27.4729C33.8491 27.4889 33.7241 27.5119 33.5911 27.5119C32.9081 27.5119 32.2781 27.2949 31.7601 26.9309L27.7771 44.2459C27.9571 44.2149 28.1391 44.1909 28.3281 44.1909C28.9531 44.1909 29.5301 44.3759 30.0231 44.6849Z" fill="#D9D9D9"/>
<path d="M35.56 21.8069L40.73 6.56894C40.645 6.57594 40.565 6.59394 40.479 6.59394C39.744 6.59394 39.075 6.33595 38.535 5.91895L33.373 21.1339C33.447 21.1279 33.518 21.1119 33.593 21.1119C34.338 21.1119 35.016 21.3789 35.56 21.8069Z" fill="#D9D9D9"/>
<path d="M77.979 33.953C78.424 33.316 79.095 32.853 79.875 32.673L75.959 26.78C75.56 27.457 74.923 27.967 74.158 28.204L77.979 33.953Z" fill="#D9D9D9"/>
<path d="M20.779 35.769C20.331 36.406 19.658 36.869 18.875 37.047L25.602 45.737C26.008 45.067 26.649 44.567 27.414 44.339L20.779 35.769Z" fill="#D9D9D9"/>
<path d="M91.1141 15.543L90.5371 18.197C90.7221 18.165 90.9091 18.14 91.1021 18.14C91.7211 18.14 92.2941 18.324 92.7851 18.628L93.3441 16.06C93.2031 16.078 93.0651 16.103 92.9201 16.103C92.2501 16.103 91.6291 15.895 91.1141 15.543Z" fill="#D9D9D9"/>
<path d="M49.7719 62.9409L46.2739 74.0869C46.3209 74.0849 46.3659 74.0729 46.4129 74.0729C47.1879 74.0729 47.8899 74.3579 48.4429 74.8169L51.9379 63.6799C51.8949 63.6819 51.8549 63.6939 51.8109 63.6939C51.0319 63.6949 50.3279 63.4059 49.7719 62.9409Z" fill="#D9D9D9"/>
<path d="M5.04403 22.4409C4.74703 23.1769 4.18503 23.7669 3.47803 24.1139L15.055 33.2119C15.234 32.4389 15.691 31.7749 16.318 31.3289L5.04403 22.4409Z" fill="#D9D9D9"/>
<path d="M77.7829 37.2729L70.4009 45.3619C71.1289 45.6509 71.7149 46.2039 72.0659 46.8969L79.5019 38.7759C78.7579 38.5049 78.1499 37.9669 77.7829 37.2729Z" fill="#D9D9D9"/>
<path d="M48.7511 61.3781C48.6691 61.0971 48.6121 60.8041 48.6121 60.4951C48.6121 59.9911 48.7381 59.5221 48.9451 59.0991L43.1751 58.5991C43.2831 58.9211 43.3561 59.2591 43.3561 59.6171C43.3561 60.0681 43.2591 60.4981 43.0901 60.8881L48.7511 61.3781Z" fill="#D9D9D9"/>
<path d="M66.1289 49.115L53.6069 57.847C54.2499 58.285 54.7159 58.952 54.9079 59.728L67.4419 50.99C66.7949 50.556 66.3249 49.89 66.1289 49.115Z" fill="#D9D9D9"/>
<path d="M88.394 23.0249L81.468 32.7179C82.235 32.9359 82.883 33.4229 83.298 34.0799L90.221 24.3999C89.453 24.1789 88.807 23.6879 88.394 23.0249Z" fill="#D9D9D9"/>
<path d="M31.2309 48.718C30.9039 49.431 30.3279 50.005 29.6069 50.32L37.3099 58.185C37.6639 57.484 38.2599 56.929 38.9979 56.642L31.2309 48.718Z" fill="#D9D9D9"/>
<path d="M70.449 23.577C70.842 22.895 71.472 22.379 72.234 22.134L62.732 12.207C62.441 12.945 61.882 13.54 61.177 13.891L70.449 23.577Z" fill="#D9D9D9"/>
<path d="M56.996 9.4549C57.387 8.7729 58.016 8.2559 58.775 8.0079L54.277 3.1499C54.008 3.9039 53.469 4.5209 52.772 4.8929L56.996 9.4549Z" fill="#D9D9D9"/>
<path d="M43.6071 4.05701L48.4041 3.46901C48.1991 3.04801 48.0751 2.58101 48.0751 2.08001C48.0751 1.76801 48.1341 1.47301 48.2171 1.18701L43.2361 1.79701C43.5101 2.26801 43.6781 2.80901 43.6781 3.39301C43.6781 3.62201 43.6521 3.84301 43.6071 4.05701Z" fill="#D9D9D9"/>
<path d="M3.91 21.2489C3.91 22.2596 3.09068 23.0789 2.08 23.0789C1.06932 23.0789 0.25 22.2596 0.25 21.2489C0.25 20.2383 1.06932 19.4189 2.08 19.4189C3.09068 19.4189 3.91 20.2383 3.91 21.2489Z" stroke="white" stroke-width="0.5"/>
<path d="M19.995 33.933C19.995 34.9437 19.1756 35.763 18.165 35.763C17.1543 35.763 16.335 34.9437 16.335 33.933C16.335 32.9223 17.1543 32.103 18.165 32.103C19.1756 32.103 19.995 32.9223 19.995 33.933Z" stroke="white" stroke-width="0.5"/>
<path d="M30.159 47.3901C30.159 48.4007 29.3397 49.2201 28.329 49.2201C27.3183 49.2201 26.499 48.4007 26.499 47.3901C26.499 46.3794 27.3183 45.5601 28.329 45.5601C29.3397 45.5601 30.159 46.3794 30.159 47.3901Z" stroke="white" stroke-width="0.5"/>
<path d="M41.9869 59.6159C41.9869 60.6266 41.1676 61.4459 40.1569 61.4459C39.1462 61.4459 38.3269 60.6266 38.3269 59.6159C38.3269 58.6052 39.1462 57.7859 40.1569 57.7859C41.1676 57.7859 41.9869 58.6052 41.9869 59.6159Z" stroke="white" stroke-width="0.5"/>
<path d="M53.6419 60.495C53.6419 61.5057 52.8226 62.325 51.8119 62.325C50.8013 62.325 49.9819 61.5057 49.9819 60.495C49.9819 59.4844 50.8013 58.665 51.8119 58.665C52.8226 58.665 53.6419 59.4844 53.6419 60.495Z" stroke="white" stroke-width="0.5"/>
<path d="M48.243 77.2731C48.243 78.2838 47.4237 79.1031 46.413 79.1031C45.4023 79.1031 44.583 78.2838 44.583 77.2731C44.583 76.2624 45.4023 75.4431 46.413 75.4431C47.4237 75.4431 48.243 76.2624 48.243 77.2731Z" stroke="white" stroke-width="0.5"/>
<path d="M71.0489 48.329C71.0489 49.3397 70.2296 50.159 69.2189 50.159C68.2082 50.159 67.3889 49.3397 67.3889 48.329C67.3889 47.3183 68.2082 46.499 69.2189 46.499C70.2296 46.499 71.0489 47.3183 71.0489 48.329Z" stroke="white" stroke-width="0.5"/>
<path d="M82.429 35.7831C82.429 36.7938 81.6097 37.6131 80.599 37.6131C79.5884 37.6131 78.769 36.7938 78.769 35.7831C78.769 34.7724 79.5884 33.9531 80.599 33.9531C81.6097 33.9531 82.429 34.7724 82.429 35.7831Z" stroke="white" stroke-width="0.5"/>
<path d="M92.934 21.34C92.934 22.3513 92.1142 23.171 91.103 23.171C90.0917 23.171 89.272 22.3513 89.272 21.34C89.272 20.3288 90.0917 19.509 91.103 19.509C92.1142 19.509 92.934 20.3288 92.934 21.34Z" stroke="white" stroke-width="0.5"/>
<path d="M94.7501 12.903C94.7501 13.9137 93.9308 14.733 92.9201 14.733C91.9094 14.733 91.0901 13.9137 91.0901 12.903C91.0901 11.8923 91.9094 11.073 92.9201 11.073C93.9308 11.073 94.7501 11.8923 94.7501 12.903Z" stroke="white" stroke-width="0.5"/>
<path d="M75.0421 25.163C75.0421 26.1737 74.2228 26.993 73.2121 26.993C72.2014 26.993 71.3821 26.1737 71.3821 25.163C71.3821 24.1523 72.2014 23.333 73.2121 23.333C74.2228 23.333 75.0421 24.1523 75.0421 25.163Z" stroke="white" stroke-width="0.5"/>
<path d="M61.5919 11.0351C61.5919 12.0458 60.7726 12.8651 59.7619 12.8651C58.7512 12.8651 57.9319 12.0458 57.9319 11.0351C57.9319 10.0244 58.7512 9.20508 59.7619 9.20508C60.7726 9.20508 61.5919 10.0244 61.5919 11.0351Z" stroke="white" stroke-width="0.5"/>
<path d="M53.1051 2.081C53.1051 3.09223 52.2853 3.912 51.2741 3.912C50.2629 3.912 49.4431 3.09223 49.4431 2.081C49.4431 1.06977 50.2629 0.25 51.2741 0.25C52.2853 0.25 53.1051 1.06977 53.1051 2.081Z" stroke="white" stroke-width="0.5"/>
<path d="M42.31 3.39497C42.31 4.4062 41.4902 5.22596 40.479 5.22596C39.4677 5.22596 38.6479 4.4062 38.6479 3.39497C38.6479 2.38373 39.4677 1.56396 40.479 1.56396C41.4902 1.56396 42.31 2.38373 42.31 3.39497Z" stroke="white" stroke-width="0.5"/>
<path d="M35.3741 24.3119C35.3741 25.3226 34.5548 26.1419 33.5441 26.1419C32.5334 26.1419 31.7141 25.3226 31.7141 24.3119C31.7141 23.3013 32.5334 22.4819 33.5441 22.4819C34.5548 22.4819 35.3741 23.3013 35.3741 24.3119Z" stroke="white" stroke-width="0.5"/>
</svg>
