<svg width="96" height="89" viewBox="0 0 96 89" fill="none" xmlns="http://www.w3.org/2000/svg">
<path d="M93.6143 58.4548C93.3033 59.5098 91.6553 59.0598 91.9643 57.9998C92.1303 57.4338 92.2864 56.8668 92.4584 56.3068C91.1284 57.1058 89.8123 57.9118 88.5243 58.8258C87.6923 59.4168 86.8114 59.9788 85.9584 60.5768C86.3534 60.8888 86.7313 61.2178 87.0773 61.5868C87.8313 62.3898 86.6243 63.6008 85.8683 62.7958C85.4683 62.3678 85.0204 61.9928 84.5574 61.6368C83.8914 62.1908 83.2723 62.7928 82.7523 63.4898C82.1023 64.3628 80.6173 63.5128 81.2753 62.6278C81.8183 61.8988 82.4453 61.2248 83.1153 60.5858C82.6133 60.2268 82.1193 59.8598 81.6563 59.4528C80.8303 58.7218 82.0433 57.5168 82.8653 58.2438C83.3553 58.6758 83.8813 59.0618 84.4123 59.4408C86.4903 57.7558 88.9043 56.3528 91.2193 55.0178C90.5883 55.0568 89.9574 55.0998 89.3214 55.1208C88.2174 55.1558 88.2214 53.4468 89.3214 53.4118C89.8334 53.3958 90.3414 53.3648 90.8464 53.3318C89.1514 52.1098 87.0753 51.3828 84.8263 51.3828C79.1273 51.3828 74.5063 56.0038 74.5063 61.7028C74.5063 67.4018 79.1273 72.0228 84.8263 72.0228C90.5253 72.0228 95.1463 67.4018 95.1463 61.7028C95.1463 60.0168 94.7343 58.4318 94.0193 57.0268C93.8823 57.4998 93.7533 57.9768 93.6143 58.4548Z" fill="white"/>
<path d="M94.0214 57.0248C94.2404 56.2698 94.4884 55.5268 94.8824 54.8338C95.5684 54.3478 95.1964 53.3608 94.3984 53.2868C93.2074 53.1758 92.0314 53.2538 90.8474 53.3298C92.1794 54.2888 93.2694 55.5518 94.0214 57.0248Z" fill="white"/>
<path d="M81.5063 43.7457C81.0733 43.6547 80.6673 43.5297 80.2733 43.3867C80.1433 43.2167 79.9393 43.0997 79.6463 43.1157C79.6333 43.1167 79.6213 43.1167 79.6093 43.1177C78.4203 42.5817 77.3733 41.8257 76.3263 40.9437C75.5293 40.2717 74.3613 41.4017 75.1653 42.0787C75.6623 42.4977 76.1653 42.8927 76.6813 43.2617C73.0963 43.4397 69.5103 43.5887 65.9233 43.6987C65.8783 43.5977 65.8093 43.5037 65.6803 43.4297C65.4323 43.2877 59.6233 39.7417 63.7683 39.2707C64.4593 39.1917 64.5313 39.1937 65.2073 38.9937C66.2363 38.6927 66.7863 37.1407 67.0303 36.2917C67.8453 33.4467 66.7183 29.9857 65.5173 27.4037C64.1543 24.4677 62.0673 22.0567 59.8253 19.7567C60.9333 19.0187 61.7983 17.9977 62.2503 16.6327C63.9973 11.3517 59.8653 6.54568 54.3893 9.12168C53.4363 9.56868 54.2693 10.9527 55.2193 10.5067C61.4353 7.58268 62.5003 15.7597 58.5813 18.4927C58.5793 18.4937 58.5773 18.4937 58.5763 18.4957C55.0363 14.9717 51.3733 11.5427 49.7033 6.69168C49.5473 6.23868 49.0943 6.21768 48.7733 6.42068C48.8023 6.13368 48.8333 5.84668 48.8603 5.55868C49.6683 5.77968 50.5253 5.75768 51.2203 5.20568C51.9933 4.59468 52.2013 3.51568 52.0683 2.60068C51.9223 1.59868 51.3183 0.752678 50.4143 0.278678C49.1953 -0.361322 47.7413 0.216678 46.6693 0.850678C45.9313 1.28768 46.7823 2.30468 47.5123 1.87168C48.8243 1.09568 50.4473 1.12668 50.7383 2.78268C50.8233 3.26668 50.7183 3.85868 50.4323 4.13468C50.0643 4.49168 49.4993 4.41468 48.9703 4.22168C48.9973 3.87768 49.0323 3.53668 49.0543 3.19368C49.1223 2.16068 47.4793 2.16668 47.4123 3.19368C47.3753 3.75568 47.3223 4.31368 47.2733 4.87368C47.2203 4.91168 47.1703 4.95968 47.1263 5.02068C45.5263 7.27568 45.5453 9.44068 46.4303 11.5427C46.0963 13.5537 45.6773 15.5457 45.2223 17.5287C43.3143 16.3497 41.5343 14.9027 39.7863 13.6277C34.7913 9.98168 28.1253 9.11268 22.3123 11.3207C20.8143 11.8897 19.4633 12.7617 18.3483 13.8427C16.8113 13.4137 15.2553 13.0697 13.6643 12.9057C6.4143 12.1617 0.732294 15.7887 0.0452944 23.1497C-0.501706 29.0107 3.97329 33.8937 9.80929 34.2647C14.9193 34.5907 19.0583 31.2207 15.8863 26.4597C15.3113 25.5967 13.8883 26.3987 14.4693 27.2707C16.3533 30.0987 14.9583 31.8667 11.9663 32.5207C9.14829 33.1367 6.39929 32.2637 4.31529 30.4027C-1.09571 25.5717 2.07929 16.3997 8.60129 14.6117C11.3113 13.8667 14.3093 14.3037 17.2283 15.1057C15.7063 17.1147 14.9203 19.6097 15.3173 22.2197C16.0103 26.7747 19.2013 30.2137 23.8053 27.3567C24.6963 26.8047 23.8733 25.4157 22.9763 25.9717C18.0293 29.0397 16.4463 22.7497 17.0013 19.1687C17.2193 17.7577 17.8753 16.5617 18.7973 15.5677C20.6873 16.1627 22.5153 16.8497 24.1743 17.4057C29.8013 19.2907 35.5673 19.4347 41.4583 19.2407C42.5143 19.2067 42.5183 17.6007 41.4583 17.6367C36.0963 17.8127 30.7323 17.7987 25.5663 16.1727C23.7643 15.6067 21.9643 14.9587 20.1453 14.3817C22.1493 12.9167 24.7663 12.0757 27.0413 11.7907C30.8273 11.3167 34.7913 12.2997 37.9633 14.3167C40.3073 15.8067 42.4243 17.7747 44.8323 19.2187C42.8253 27.3887 39.9373 35.3527 36.9053 43.2677C36.1033 42.9517 35.3083 42.6157 34.4893 42.3407C33.4853 42.0027 33.0573 43.5537 34.0523 43.8877C34.8283 44.1497 35.5833 44.4647 36.3433 44.7667C36.2993 44.9127 36.3023 45.0377 36.3353 45.1537C35.3583 45.9117 34.4973 46.7957 33.9723 47.9257C33.5373 48.8607 34.9533 49.6767 35.3903 48.7367C35.7233 48.0177 36.2083 47.4297 36.7703 46.9087C37.7613 51.8617 41.0633 56.6177 42.9743 61.1827C44.7543 65.4377 46.6853 69.7347 47.8863 74.1897C45.9463 77.0187 45.1163 79.9437 47.3243 83.0227C47.4793 83.2397 47.6893 83.2987 47.8913 83.2777C47.8263 83.7387 48.2183 84.2487 48.7613 83.9877C49.3863 83.6877 50.1663 83.4427 50.6343 83.8937C50.9223 84.1657 51.0303 84.7577 50.9463 85.2437C50.6643 86.9007 49.0413 86.9397 47.7253 86.1687C46.9933 85.7417 46.1463 86.7617 46.8873 87.1957C47.9623 87.8257 49.4203 88.3947 50.6363 87.7497C51.5373 87.2707 52.1363 86.4217 52.2793 85.4207C52.4073 84.5037 52.1943 83.4257 51.4173 82.8167C51.0493 82.5287 50.6363 82.3927 50.2093 82.3547C50.4883 82.2547 50.7073 82.0167 50.6953 81.6337C50.6763 80.9707 50.6273 80.3207 50.5623 79.6727C53.9983 72.1967 62.1613 68.0607 65.6033 60.5517C66.7903 57.9637 67.9003 54.4977 67.0703 51.6557C66.8223 50.8067 66.2633 49.2587 65.2333 48.9627C64.5553 48.7667 64.4843 48.7677 63.7933 48.6917C60.8413 48.3707 62.9233 46.4677 64.4583 45.3467C67.7273 45.2557 70.9943 45.1277 74.2603 44.9807C73.5143 45.2837 72.7773 45.6367 72.0443 46.0337C71.1193 46.5357 71.9473 47.9227 72.8733 47.4197C75.5433 45.9697 78.2173 45.1907 81.2873 45.3217C82.2103 45.3607 82.4133 43.9367 81.5063 43.7457ZM48.6343 7.62168C50.3613 12.2617 53.8253 15.6927 57.2403 19.1717C56.3343 19.5047 55.3353 19.6657 54.3543 19.7497C51.9583 17.2447 49.3033 14.7717 47.9593 12.2417C48.2243 10.7107 48.4483 9.17068 48.6343 7.62168ZM47.6883 13.7857C49.1033 15.8467 51.1183 17.8527 52.9863 19.8287C52.8393 19.8337 52.6883 19.8397 52.5453 19.8437C50.4253 19.8937 48.5033 19.2857 46.7073 18.3687C47.0633 16.8467 47.3993 15.3217 47.6883 13.7857ZM46.3043 20.0117C46.7693 20.2297 47.2453 20.4247 47.7403 20.5887C49.5403 21.1807 51.9993 21.5267 54.4003 21.3647C57.5023 24.8627 59.5163 28.2867 56.1973 31.7787C56.0983 31.8457 56.0083 31.9367 55.9423 32.0767C54.0023 36.1867 55.5543 40.3047 57.9133 43.8877C51.4423 43.9967 44.9713 43.9987 38.4973 43.9247C38.4763 43.9057 38.4423 43.8967 38.4193 43.8797C41.4303 36.0207 44.2813 28.1137 46.3043 20.0117ZM46.2713 64.9897C45.1143 62.0847 43.9233 59.1937 42.6553 56.3337C41.1313 52.8967 38.7303 49.5357 38.2293 45.7707C38.3213 45.6987 38.3953 45.6197 38.4453 45.5317C44.7713 45.6037 51.0953 45.6027 57.4193 45.5017C55.4123 48.3997 54.2993 51.4757 55.2433 55.1667C55.3433 55.5577 55.6433 55.7257 55.9583 55.7327C55.9833 55.8577 56.0313 55.9797 56.1403 56.0877C61.5923 61.5517 53.7513 66.9057 49.0723 72.6237C48.2803 70.0637 47.2903 67.5487 46.2713 64.9897ZM48.5183 82.6587C48.5293 82.5257 48.5053 82.3837 48.4063 82.2427C46.7653 79.9547 47.0383 77.7527 48.2373 75.5867C48.5763 77.0587 48.8293 78.5477 48.9603 80.0587C48.8603 80.3137 48.7483 80.5607 48.6593 80.8237C48.5253 81.2197 48.7623 81.5457 49.0653 81.6777C49.0933 82.0407 49.3203 82.2737 49.6033 82.3647C49.2343 82.4077 48.8653 82.5137 48.5183 82.6587ZM63.0073 49.9277C64.6453 50.1067 65.8083 51.1237 65.8993 52.7227C66.0213 54.8527 65.6783 57.1817 64.7803 59.1397C61.4843 66.3307 54.1413 70.6687 50.2513 77.3727C50.0373 76.1637 49.7473 74.9777 49.4163 73.8027C54.0123 67.7617 63.7953 61.8917 56.9783 55.0607C56.9333 55.0157 56.8853 54.9967 56.8383 54.9687C56.8403 54.8937 56.8493 54.8217 56.8273 54.7387C55.9103 51.1527 57.2973 48.2307 59.4403 45.4647C60.3563 45.4467 61.2723 45.4257 62.1883 45.4037C61.2063 46.4447 60.8683 47.6997 62.0223 49.4077C62.2073 49.6777 62.7023 49.8937 63.0073 49.9277ZM59.9243 43.8487C59.8543 43.7477 59.7653 43.6647 59.6673 43.6007C59.6513 43.5707 59.6393 43.5417 59.6183 43.5117C57.4813 40.3867 55.6083 36.5957 57.3603 32.8877C57.4413 32.7127 57.4443 32.5477 57.4163 32.3937C60.8843 28.4077 58.8603 24.7667 55.7183 21.2227C56.6933 21.0727 57.6303 20.8207 58.4883 20.4547C60.9183 22.9817 63.2133 25.6107 64.7003 28.8157C65.6083 30.7687 65.9643 33.0967 65.8513 35.2277C65.7693 36.8257 64.6113 37.8497 62.9743 38.0357C62.6693 38.0717 62.1763 38.2897 61.9943 38.5617C60.3693 40.9887 61.7263 42.4947 63.6893 43.7647C62.4343 43.7997 61.1793 43.8237 59.9243 43.8487Z" fill="white"/>
<path d="M71.8804 76.3838C74.3284 78.8248 70.7024 79.0098 69.8714 79.0198C68.7634 79.0338 67.8114 78.5018 66.9044 77.9558C65.0644 76.8468 64.5334 74.7778 64.5894 72.8218C64.6904 69.3078 67.2624 65.8478 69.9604 63.7448C70.7884 63.0998 69.6184 61.9718 68.8004 62.6098C64.3034 66.1148 60.5954 73.2838 64.7914 78.2738C68.0624 82.1638 78.0814 80.2738 73.0404 75.2498C72.2984 74.5098 71.1384 75.6448 71.8804 76.3838Z" fill="white"/>
</svg>
