<svg width="92" height="80" viewBox="0 0 92 80" fill="none" xmlns="http://www.w3.org/2000/svg">
<path d="M61.5016 15.0262C61.6056 13.3092 61.7926 11.5862 61.7286 9.86419C61.7246 9.77719 61.2016 6.05719 60.2536 7.93619C59.9646 8.47719 59.7596 9.04519 59.6366 9.64219C59.5686 9.97919 59.5156 10.3182 59.4666 10.6572C59.6966 13.8322 59.2576 17.4912 59.2306 18.5932C59.2056 19.6942 57.5316 19.6972 57.5216 18.5932C57.5136 17.7692 57.3496 13.9472 57.7916 10.6112C57.7526 10.0132 57.6706 9.42019 57.4926 8.86119C56.9416 7.14019 55.5976 7.45619 55.1746 8.98219C54.7336 10.5682 54.5496 12.1672 54.4266 13.7732C54.4016 15.3982 54.2276 17.0482 54.0306 18.7162C53.8956 19.7922 52.1926 19.8142 52.3216 18.7162C52.5106 17.2102 52.3726 14.2862 52.6556 11.5712C52.4836 9.83619 52.0286 8.13919 51.0756 6.51619C51.0366 6.44819 51.0096 6.38119 50.9896 6.31519C49.5626 8.08519 48.7036 10.3342 48.7036 12.7842C48.7036 18.4832 53.3256 23.1042 59.0246 23.1042C61.3466 23.1042 63.4816 22.3292 65.2066 21.0342C64.3336 20.9392 63.5056 20.7002 62.8176 20.2572C61.1986 19.2152 61.3976 16.7212 61.5016 15.0262Z" fill="white"/>
<path d="M70.7396 18.3871C69.8896 18.0471 69.0486 17.7511 68.1806 17.5321C67.9036 18.0651 67.5786 18.5671 67.2156 19.0421C67.0356 19.0051 66.8566 18.9721 66.6726 18.9511C65.5906 18.8281 65.5786 17.1181 66.6726 17.2431C67.1906 17.3021 67.6886 17.4081 68.1806 17.5321C68.9186 16.1101 69.3426 14.4981 69.3426 12.7841C69.3426 7.08511 64.7216 2.46411 59.0226 2.46411C56.2976 2.46411 53.8276 3.52711 51.9836 5.25211C52.2006 5.28411 52.4056 5.40711 52.5496 5.65311C52.9536 6.34211 53.2746 7.04211 53.5316 7.74911C53.9746 6.75311 54.6056 5.99911 55.5106 5.67711C57.0986 5.11311 58.0806 5.76111 58.6806 7.01911C59.2916 5.65811 60.2036 4.92311 61.5696 5.49411C63.4796 6.29311 63.4466 8.63911 63.4426 10.4431C63.4386 12.6231 62.9426 14.9011 63.2066 17.0701C63.4466 19.0311 65.1816 19.5661 66.9566 19.3821C66.4406 20.0011 65.8496 20.5511 65.2046 21.0341C65.8356 21.1021 66.4876 21.0981 67.1306 21.0281C66.7516 21.4641 66.4256 21.9551 66.2206 22.5751C65.8746 23.6251 67.5256 24.0711 67.8686 23.0301C68.3626 21.5381 70.0466 20.8401 71.1166 19.8151C71.6226 19.3311 71.3056 18.6141 70.7396 18.3871Z" fill="white"/>
<path d="M18.2396 44.3752C18.6946 43.1662 16.7606 42.6482 16.3106 43.8442C15.0366 47.2332 10.5296 47.8042 8.7206 50.8342C7.1426 53.4782 5.6906 56.0982 4.0826 58.6392C4.6246 56.7792 5.1256 54.9052 5.6376 53.0282C6.3646 50.3612 7.1406 48.0742 9.4986 46.3802C11.1346 45.2042 13.1936 44.5162 15.0296 43.7242C16.2106 43.2142 15.1916 41.4932 14.0196 41.9972C10.5086 43.5112 7.1446 44.8372 5.1086 48.2352C3.8806 50.2842 3.5166 53.1872 2.9036 55.4702C2.0956 58.4822 1.2116 61.4442 0.0596032 64.3442C-0.306397 65.2652 1.1076 66.0702 1.7306 65.3172C5.1766 61.1582 7.9326 56.6172 10.4456 51.8442C12.2296 48.4612 16.7816 48.2512 18.2396 44.3752Z" fill="white"/>
<path d="M26.5616 47.843C25.5136 52.294 20.9896 55.027 18.4126 58.604C16.7596 60.899 15.4976 63.493 14.3696 66.149C14.6536 64.133 15.0206 62.132 15.5996 60.16C17.1606 54.837 21.9006 52.959 25.2326 49.066C26.0666 48.092 24.6586 46.67 23.8186 47.652C20.5996 51.414 16.4496 53.332 14.2896 57.987C12.1166 62.671 12.1276 68.326 11.5256 73.359C11.3796 74.582 13.0996 74.564 13.4896 73.625C15.7266 68.244 17.6566 62.414 21.4826 57.904C24.0866 54.834 27.5216 52.488 28.4896 48.375C28.7856 47.121 26.8576 46.588 26.5616 47.843Z" fill="white"/>
<path d="M34.8116 52.5932C33.7026 56.9812 30.4026 60.2502 29.0736 64.5712C29.7366 60.6032 31.4236 56.8132 34.4836 53.0662C35.2926 52.0762 33.8856 50.6522 33.0696 51.6522C26.1316 60.1472 25.4816 68.7832 28.3126 79.1252C28.6226 80.2622 30.1906 79.9512 30.2756 78.8592C30.6616 73.9292 29.9246 68.9562 31.2396 64.1252C32.3296 60.1212 35.7016 57.2322 36.7396 53.1252C37.0556 51.8742 35.1276 51.3432 34.8116 52.5932Z" fill="white"/>
<path d="M42.4085 57.701C42.5095 57.18 42.6175 56.655 42.7395 56.125C43.0275 54.87 41.0985 54.337 40.8105 55.594C39.0245 63.39 39.2325 70.43 42.3105 77.875C42.7165 78.858 44.2825 78.822 44.2745 77.609C44.2345 71.272 43.8145 64.946 43.7745 58.609C43.7705 57.806 42.9925 57.504 42.4085 57.701ZM41.8335 61.676C41.8945 64.394 41.9875 67.111 42.0835 69.827C41.6505 67.135 41.5775 64.444 41.8335 61.676Z" fill="white"/>
<path d="M44.2757 49.1091C35.7437 49.0651 27.0477 44.7091 20.5267 39.4421C13.5277 33.7891 12.7027 24.9361 15.0917 16.7281C17.2817 9.20508 22.6967 5.67808 29.7077 3.42308C32.6267 2.48508 35.6657 1.95208 38.7327 2.00108C45.8427 2.11608 46.8027 9.67508 41.2317 13.1971C41.0437 12.3091 40.7167 11.5751 40.2917 11.0171C40.7217 11.2091 41.2097 11.3351 41.7757 11.3581C43.0657 11.4091 43.0607 9.40908 41.7757 9.35808C39.6177 9.27208 39.8447 6.46908 40.6387 5.11308C41.2917 3.99808 39.5637 2.99208 38.9117 4.10308C37.8377 5.93708 37.7997 8.46708 38.9967 10.0041C37.9497 9.60808 36.6577 9.91508 35.3177 11.1501C34.8917 11.5431 34.9547 12.0361 35.2247 12.3891C34.9967 14.9351 35.4277 17.3451 37.1797 19.3591C38.3697 20.7271 40.0577 21.4671 41.8317 21.8271C43.2377 22.5071 45.1407 22.2621 46.7897 21.8211C48.0347 21.4891 47.5067 19.5601 46.2587 19.8931C45.9567 19.9731 45.6517 20.0521 45.3497 20.1211C45.3227 20.1191 45.3037 20.1061 45.2747 20.1071C44.4167 20.1291 43.5457 20.0911 42.6987 19.9551C42.3297 19.7021 42.0347 19.2931 41.8567 18.6521C41.5617 17.5931 41.5297 16.4771 41.4717 15.3691C48.8447 11.6101 49.0627 0.802077 39.6787 0.0740766C31.7827 -0.538923 21.7887 2.67108 16.7747 9.01708C10.8577 16.5061 9.75966 29.4251 15.5567 37.2311C21.5597 45.3131 34.3457 51.0581 44.2757 51.1091C45.5657 51.1161 45.5657 49.1161 44.2757 49.1091ZM39.1367 18.4671C37.2547 16.9481 36.9287 14.4311 37.2357 12.1741C38.9547 11.0451 39.3597 13.4501 39.5007 15.1231C39.6107 16.4271 39.6377 17.7191 39.9107 18.9951C39.6437 18.8381 39.3837 18.6671 39.1367 18.4671Z" fill="white"/>
<path d="M36.8886 6.36401C37.6676 5.33501 35.9297 4.34001 35.1617 5.35401C33.5307 7.50801 30.6276 8.25801 28.0406 7.89501C26.7796 7.71701 26.2366 9.64401 27.5096 9.82301C31.0866 10.326 34.6536 9.31601 36.8886 6.36401Z" fill="white"/>
<path d="M47.4826 32.4021C44.2726 29.1481 39.6566 28.0871 35.0556 27.9711C33.5106 23.3501 29.6106 19.9431 24.9166 18.4501C25.9106 15.4051 26.1196 11.8621 24.3886 9.10409C23.7046 8.01509 21.9736 9.01809 22.6616 10.1141C24.0846 12.3821 23.8656 15.4331 23.0046 17.9461C22.0296 17.7531 21.0326 17.6361 20.0256 17.6091C18.7346 17.5741 18.7386 19.5741 20.0256 19.6091C20.9716 19.6351 21.9066 19.7531 22.8206 19.9451C23.1316 20.3371 23.6646 20.5091 24.0566 20.2561C28.0476 21.4411 31.4366 24.1871 32.9406 27.9791C31.3366 28.0311 29.7606 28.1731 28.2756 28.3601C27.0136 28.5181 26.9986 30.5201 28.2756 30.3601C29.9206 30.1531 31.7086 29.9851 33.5246 29.9471C33.6826 30.7191 33.7746 31.5231 33.7756 32.3601C33.7776 33.6501 35.7776 33.6501 35.7756 32.3601C35.7746 31.5361 35.6996 30.7371 35.5666 29.9641C39.4926 30.1261 43.3646 31.0761 46.0686 33.8171C46.9756 34.7351 48.3886 33.3201 47.4826 32.4021Z" fill="white"/>
<path d="M82.0257 58.6091C76.0377 58.6221 71.2527 58.7971 66.1057 61.9021C60.2367 65.4431 54.4277 56.6481 51.2327 52.6521C50.4277 51.6441 49.0217 53.0701 49.8187 54.0661C52.7267 57.7041 56.5197 63.3641 61.3267 64.6401C63.5517 65.2301 65.1097 64.7011 67.1157 63.6291C71.2387 61.4271 74.9577 60.8151 79.2887 60.6611C76.6427 62.3591 73.1627 62.9291 70.2607 63.8941C69.2977 64.2131 69.3197 65.4941 70.2607 65.8221C72.8567 66.7281 75.5167 67.3541 78.0807 68.3061C72.0317 69.4951 65.2567 69.7271 59.2647 69.4881C52.7457 69.2281 50.8607 58.7941 47.8897 54.3531C47.1767 53.2881 45.4437 54.2881 46.1627 55.3631C49.0787 59.7221 50.7967 69.4771 56.6837 71.0111C60.0957 71.9011 63.5687 71.3921 67.0367 71.1411C72.0017 70.7831 76.6827 70.8541 81.5427 69.5721C82.6317 69.2851 82.3647 67.7771 81.4467 67.6201C81.3917 67.5791 81.3527 67.5291 81.2817 67.4951C78.9097 66.3601 76.4177 65.6441 73.9257 64.8931C77.1937 63.9681 80.5507 62.9451 82.7347 60.3151C83.2677 59.6721 82.9597 58.6071 82.0257 58.6091Z" fill="white"/>
<path d="M91.1936 36.3751C86.7036 33.6971 82.0236 32.1271 77.1796 30.1251C73.7966 28.7281 70.4776 27.1291 66.8416 26.6311C60.5776 25.7731 56.2416 32.6901 52.1696 35.0511C50.6266 34.2651 48.9056 33.8931 47.0246 34.1101C45.7586 34.2561 45.7446 36.2571 47.0246 36.1101C54.3736 35.2611 58.8696 45.2931 59.2756 51.3591C59.3616 52.6381 61.3616 52.6471 61.2756 51.3591C61.0196 47.5371 59.3716 42.5201 56.5626 38.8711C60.8416 36.8711 68.9126 32.1971 73.7656 36.9371C78.0506 41.1211 82.7656 42.9181 88.7216 45.0071C89.6506 45.3331 90.2436 44.6171 89.8846 43.9351C88.4196 41.1461 85.3556 39.1901 82.3516 37.3411C85.0356 37.6271 87.7066 37.9391 90.3736 37.8871C90.4536 37.8861 90.5056 37.8611 90.5726 37.8481C91.5276 38.0461 92.1996 36.9741 91.1936 36.3751ZM78.9566 35.3521C77.9316 35.2791 77.5646 36.2601 78.4376 36.8401C81.0646 38.5941 84.3756 40.2421 86.5506 42.4721C82.2806 40.8501 78.7456 39.0851 75.2356 35.9531C73.5276 34.4301 72.1196 33.4791 69.7486 33.1621C64.6206 32.4781 59.3196 35.5321 55.4456 37.3311C55.3896 37.3561 55.3616 37.3961 55.3176 37.4281C54.8866 36.9861 54.4376 36.5751 53.9646 36.2051C58.0286 33.6081 62.6326 26.6991 68.9996 28.7021C75.0276 30.5981 81.7086 33.1301 87.4076 36.1491C84.5996 35.9951 81.7836 35.5531 78.9566 35.3521Z" fill="white"/>
</svg>
