<svg width="80" height="84" viewBox="0 0 80 84" fill="none" xmlns="http://www.w3.org/2000/svg">
<path d="M56.1095 4.0069C55.8355 3.9739 55.6125 4.0619 55.4485 4.2129C55.3765 4.1879 55.3065 4.15691 55.2345 4.13491C54.1905 3.79791 53.4605 5.45991 54.5135 5.79991C61.5835 8.07591 63.0785 18.8889 56.2285 22.8189C55.2595 23.3759 55.8615 25.0699 56.8435 24.5069C63.2415 20.8379 63.9225 11.7729 59.4785 6.8719C67.8125 10.8099 71.5965 23.9159 62.7325 30.1959C61.8005 30.8539 62.8075 32.3109 63.7345 31.6549C75.0405 23.6459 68.2965 5.4699 56.1095 4.0069Z" fill="white"/>
<path d="M65.8174 16.1189C65.6034 14.8489 63.6764 15.3899 63.8894 16.6499C64.5024 20.2899 64.4394 23.5209 61.8964 26.4269C61.0504 27.3929 62.4594 28.8139 63.3104 27.8409C66.3654 24.3509 66.5624 20.5309 65.8174 16.1189Z" fill="white"/>
<path d="M15.876 36.7028C15.198 39.0618 14.212 40.7188 10.856 40.5618C9.76 40.5108 9.754 38.8018 10.856 38.8528C13.827 38.9918 14.161 37.1068 14.596 34.9948C14.467 34.6138 14.385 34.1928 14.371 33.7278C14.33 32.4138 14.012 27.0148 12.008 30.2408C11.059 31.7688 10.19 33.6698 10.102 35.4978C10.047 36.5918 8.385 36.6048 8.391 35.4978C8.407 33.0878 8.801 30.1168 5.799 29.5108C4.719 29.2928 5.178 27.6448 6.254 27.8638C8.17 28.2508 9.135 29.3268 9.621 30.7118C10.246 29.3358 11.101 28.1438 12.174 27.6888C14.768 26.5868 15.906 29.4408 16.045 31.5888C16.74 30.8498 17.668 30.3198 18.66 30.3428C19.31 30.3588 19.883 30.5908 20.357 30.9518C19.285 26.3968 15.203 23.0028 10.32 23.0028C4.621 23.0028 0 27.6238 0 33.3228C0 39.0218 4.621 43.6428 10.32 43.6428C14.869 43.6428 18.72 40.6978 20.095 36.6148C18.652 37.5038 17.029 37.4818 15.876 36.7028Z" fill="white"/>
<path d="M19.292 32.1619C17.966 31.5779 16.806 33.0779 16.522 34.1789C16.46 34.4199 16.401 34.6589 16.342 34.8959C16.92 35.8119 18.701 35.8339 19.414 35.0399C20.017 34.3709 20.398 32.6499 19.292 32.1619Z" fill="white"/>
<path d="M20.3589 30.9508C20.5389 31.7128 20.6439 32.5048 20.6439 33.3218C20.6439 34.4738 20.4469 35.5798 20.0969 36.6138C20.2769 36.5038 20.4539 36.3858 20.6259 36.2478C22.3779 34.8378 21.9329 32.1498 20.3589 30.9508Z" fill="white"/>
<path d="M72.3101 41.2837C66.2681 36.7407 63.6771 29.4177 57.8751 24.7097C57.7481 24.6067 57.6181 24.5247 57.4901 24.4307C60.7851 14.7927 53.4591 3.37172 43.5121 0.819715C32.6071 -1.97828 19.2171 2.41171 16.8761 13.6057C16.5341 14.7427 16.3951 16.0167 16.5201 17.4437L16.5211 17.4457C16.5221 17.5567 16.5161 17.6657 16.5201 17.7777C16.5611 19.0637 18.5621 19.0677 18.5201 17.7777C18.5161 17.6667 18.5211 17.5597 18.5191 17.4497C18.5191 17.4477 18.5201 17.4457 18.5201 17.4437C18.5201 17.4387 18.5201 17.4347 18.5191 17.4297C18.5041 16.2777 18.5991 15.1967 18.7921 14.1847C20.5291 8.18772 29.1891 7.77471 34.9711 9.14471C41.0401 10.5827 47.8091 16.7707 47.5551 22.9157C44.9691 23.5847 42.4071 24.7847 40.0151 25.9147C39.3221 26.2427 39.4101 26.9777 39.8311 27.4107C36.1511 25.5247 32.6301 23.4067 28.1861 23.4437C27.5631 23.4487 27.0131 24.0837 27.2221 24.7097C29.9171 32.7927 35.5851 40.1447 44.8521 39.7777C46.1371 39.7267 46.1421 37.7267 44.8521 37.7777C37.0201 38.0877 32.1921 32.2207 29.6311 25.5227C35.3261 26.1267 39.6961 30.3787 45.2531 31.7417C46.2871 31.9957 46.8131 30.7337 46.2631 30.1107C48.0431 28.3297 49.0391 26.4637 49.4331 24.5927C51.2571 24.3427 53.0811 24.5137 54.9151 25.3447C54.4551 26.3097 53.8731 27.2277 53.1441 28.0707C52.3051 29.0417 53.7131 30.4627 54.5581 29.4847C55.4221 28.4857 56.1191 27.4357 56.6701 26.3527C56.9131 26.5227 57.1561 26.6917 57.4001 26.8897C60.4301 29.3487 62.4501 33.1647 64.6601 36.3297C66.2341 38.5847 68.0341 40.5367 70.2311 42.2027C71.9361 43.4957 73.6321 44.7597 75.1931 46.2237C76.3181 47.2877 77.1051 48.5607 77.5531 50.0417C75.7831 53.3727 74.3411 53.9377 73.2241 51.7347C72.4361 50.7157 71.0311 52.1427 71.8101 53.1487C73.4601 55.2807 78.5891 57.9607 79.5941 53.4497C80.8251 47.9437 76.2301 44.2307 72.3101 41.2837ZM44.8141 28.7357C44.5911 28.9567 44.5111 29.2077 44.5231 29.4477C43.1021 28.9877 41.7551 28.3777 40.4381 27.7177C40.6241 27.7447 40.8201 27.7387 41.0261 27.6407C43.0841 26.6687 45.1251 25.6947 47.1631 25.0887C46.7431 26.3437 45.9831 27.5747 44.8141 28.7357ZM55.6711 23.3317C53.7171 22.4207 51.6811 22.2437 49.6341 22.5107C49.5061 16.0897 42.8641 9.98472 36.5541 7.54472C32.0661 5.80972 25.9971 5.84072 21.7101 8.06572C25.7551 3.36872 33.0161 1.61672 39.8281 2.20572C45.9281 2.73272 50.6631 5.54871 53.7941 10.8217C56.0121 14.5557 56.8351 19.2197 55.6711 23.3317Z" fill="white"/>
<path d="M72.325 49.9477C72.919 51.0937 74.644 50.0817 74.052 48.9377C73.342 47.5677 72.297 46.4467 71.027 45.5797C69.959 44.8507 68.96 46.5837 70.017 47.3067C71.007 47.9837 71.774 48.8837 72.325 49.9477Z" fill="white"/>
<path d="M74.854 55.7767C67.882 55.7017 60.484 54.6467 54.317 51.3887C53.928 48.8887 53.654 46.5087 53.854 44.4427C53.979 43.1597 51.977 43.1717 51.854 44.4427C51.678 46.2547 51.844 48.1677 52.137 50.1227C49.933 48.6847 47.933 46.9137 46.228 44.7357C45.433 43.7207 44.029 45.1467 44.814 46.1497C46.993 48.9327 49.644 51.0877 52.585 52.7487C53.703 58.8267 55.133 65.0567 50.712 69.7547C48.753 71.8367 46.293 72.0617 43.882 71.2907C47.24 69.2847 49.625 65.8407 49.855 61.4427C49.922 60.1537 47.922 60.1597 47.855 61.4427C47.623 65.9007 45.375 68.6697 41.439 70.1787C38.622 68.5237 36.159 65.8197 35.052 63.6047C34.476 62.4507 32.751 63.4637 33.325 64.6147C34.441 66.8497 36.435 69.1887 38.828 70.9267C34.573 71.6507 30.791 70.0137 26.901 68.1927C21.843 65.8247 16.838 65.1027 11.316 65.9707C6.55099 66.7207 2.84399 70.1467 2.95099 75.1287C3.05499 80.0307 8.82199 83.0317 12.923 83.7407C14.184 83.9597 14.724 82.0317 13.454 81.8127C9.11599 81.0617 4.12199 78.2287 5.12599 72.9307C5.98499 68.3947 11.849 67.7057 15.439 67.5577C21.655 67.2997 26.485 70.6937 32.155 72.5277C35.286 73.5407 38.526 73.4417 41.368 72.4547C44.156 73.7807 47.223 74.1407 50.009 72.6437C57.102 68.8347 55.919 61.1037 54.716 53.8427C60.895 56.7247 68.087 57.7027 74.855 57.7767C76.144 57.7907 76.143 55.7907 74.854 55.7767Z" fill="white"/>
<path d="M58.879 39.1257C58.243 39.3827 57.923 40.4387 58.683 40.9737C60.11 41.9767 61.79 42.4117 63.521 42.4437C64.157 42.4557 64.676 41.7947 64.485 41.1777C63.599 38.3237 61.317 36.2597 58.454 35.4797C57.208 35.1387 56.68 37.0687 57.923 37.4077C58.545 37.5777 59.117 37.8447 59.656 38.1587C59.239 38.2827 58.887 38.6577 58.879 39.1257Z" fill="white"/>
<path d="M22.818 47.3757C24.572 42.8457 28.348 39.6377 31.561 36.1497C32.433 35.2037 31.022 33.7857 30.147 34.7357C26.663 38.5177 22.789 41.9377 20.89 46.8437C20.423 48.0477 22.358 48.5647 22.818 47.3757Z" fill="white"/>
<path d="M36.1879 3.10972C34.9229 3.25872 34.9089 5.26072 36.1879 5.10972C44.5769 4.11872 50.7809 10.3807 52.8899 18.0427C53.2319 19.2847 55.1609 18.7567 54.8179 17.5117C52.4929 9.06271 45.4319 2.01772 36.1879 3.10972Z" fill="white"/>
<path d="M37.6579 33.2817C38.9929 36.0647 42.1669 36.1187 44.7869 35.4067C45.6969 35.1597 45.7889 33.6687 44.7869 33.4787C42.7329 33.0877 40.8829 32.1727 39.0259 31.2467C38.1009 30.7847 37.2849 31.8047 37.5919 32.5227C37.5299 32.7647 37.5389 33.0327 37.6579 33.2817Z" fill="white"/>
</svg>
