<svg width="78" height="87" viewBox="0 0 78 87" fill="none" xmlns="http://www.w3.org/2000/svg">
<path d="M40.4932 58.1381C40.8052 61.0921 38.8762 63.6211 35.8122 63.7111C33.5022 63.7771 31.5122 62.3051 31.1292 59.9821C30.8142 58.0681 31.6942 56.3451 33.1382 55.2221C31.6882 54.3641 30.5022 53.1481 29.8902 51.6051C29.3692 50.2951 31.4822 49.7331 31.9942 51.0251C33.3862 54.5311 39.8102 55.7001 42.4802 52.9941C40.7202 49.8061 37.3302 47.6461 33.4312 47.6461C27.7242 47.6461 23.0972 52.2731 23.0972 57.9801C23.0972 63.6871 27.7242 68.3131 33.4312 68.3131C39.1382 68.3131 43.7642 63.6871 43.7642 57.9801C43.7642 56.9771 43.6142 56.0111 43.3482 55.0941C42.3772 55.8251 41.2182 56.2831 39.9902 56.4961C40.2372 56.9681 40.4272 57.4961 40.4932 58.1381Z" fill="white"/>
<path d="M36.5092 56.4671C36.4942 56.4641 36.4812 56.4611 36.4672 56.4581C36.1062 56.3961 35.7052 56.3911 35.2772 56.4391C34.1922 56.9861 33.1982 57.8941 33.2442 59.2131C33.2792 60.2741 33.8962 61.2741 34.9982 61.4821C36.6972 61.8041 38.4182 60.7341 38.3622 58.8911C38.3172 57.4221 37.5942 56.6721 36.5092 56.4671Z" fill="white"/>
<path d="M42.9622 52.4031C42.8202 52.6181 42.6592 52.8141 42.4822 52.9951C42.8462 53.6531 43.1352 54.3581 43.3502 55.0961C43.9232 54.6631 44.4312 54.1361 44.8472 53.5051C45.6252 52.3251 43.7352 51.2331 42.9622 52.4031Z" fill="white"/>
<path d="M74.5995 58.6621C75.9095 54.9491 75.8305 51.1541 72.0265 48.9391C69.5645 47.5051 66.9225 46.7651 64.2145 45.9211C58.9905 44.2941 57.9835 40.5021 55.0515 36.6301C53.4525 34.5201 51.6215 33.1321 49.6315 32.2591C52.5875 28.7791 57.6325 25.7401 59.7435 22.9361C63.9415 17.3611 64.9525 12.1801 65.1515 6.02413C65.2695 4.52713 65.2325 2.98013 65.1905 1.41213C65.1895 1.26313 65.1885 1.11813 65.1875 0.967125C65.1755 -0.321875 63.1755 -0.322875 63.1875 0.967125C63.1885 1.07113 63.1905 1.17512 63.1915 1.27912C63.1915 1.28712 63.1875 1.29313 63.1875 1.30113C63.1945 1.57013 63.1985 1.83213 63.2025 2.09313C63.2035 2.16113 63.2045 2.23012 63.2055 2.29912C63.2455 7.08012 62.5185 10.5251 58.6845 13.9701C55.6485 16.6981 51.7585 18.6801 48.1415 20.4991C43.0735 23.0481 34.9295 25.1361 32.8105 31.1901C32.6755 31.5741 32.5605 31.9821 32.4545 32.4011C28.7075 33.1691 25.0195 33.9631 21.6875 33.9671C20.3975 33.9681 20.3975 35.9681 21.6875 35.9671C25.0305 35.9641 28.5485 35.1891 32.0785 34.4311C31.6315 38.1951 32.4725 42.4511 35.8995 44.3721C40.7505 47.0911 45.9795 45.3821 50.3595 42.4971C51.4305 41.7911 50.4305 40.0591 49.3495 40.7701C43.0665 44.9091 33.9825 45.1711 33.9065 35.3611C33.9025 34.8971 33.9365 34.4531 33.9995 34.0251C38.2585 33.1481 42.4855 32.5121 46.3955 33.4821C45.3815 35.2731 44.9635 37.2781 45.7235 39.5651C46.1265 40.7831 48.0595 40.2611 47.6515 39.0341C47.0735 37.2921 47.4295 35.6531 48.3195 34.1001C49.7365 34.6771 51.1035 35.5061 52.4025 36.6701C56.0115 39.9031 56.3845 44.3841 60.9115 46.7761C65.9715 49.4501 75.2555 49.2151 72.8735 57.5091C72.8625 57.5471 72.8515 57.5871 72.8395 57.6251C71.9615 57.2681 71.0115 57.0791 70.0225 57.1321C68.7405 57.2001 68.7335 59.2011 70.0225 59.1321C70.8395 59.0881 71.5815 59.2311 72.2405 59.5061C71.4265 61.7281 70.1685 63.6541 67.2915 63.9021C65.3625 64.0681 63.7685 63.9891 61.9235 64.6691C59.7455 65.4721 57.7895 67.3531 55.8515 68.6031C52.9265 70.4901 49.6485 70.8021 46.4075 71.7511C39.3555 73.8161 32.7845 87.4921 24.6945 83.6031C23.5385 83.0471 22.5225 84.7711 23.6845 85.3301C32.8715 89.7481 39.6205 76.7111 46.9395 73.6811C49.6625 72.5541 52.6945 72.3601 55.4435 71.1441C59.8685 69.1841 62.0725 66.0591 67.2925 65.9041C71.0725 65.7921 72.6155 63.5871 73.8525 60.6161C74.9865 61.7861 75.5925 63.5121 75.4945 65.2981C75.2545 69.6551 69.4985 70.2611 66.7315 67.9281C65.7525 67.1031 64.3305 68.5091 65.3175 69.3421C69.0975 72.5301 75.3655 71.8081 77.1835 66.9071C78.3095 63.8671 76.9925 60.5471 74.5995 58.6621ZM47.7195 31.5981C43.6845 30.4961 39.1365 31.0961 34.5905 31.9761C36.8835 26.7531 44.4395 24.5041 49.1505 22.2281C53.8405 19.9631 58.5205 17.1871 62.1465 13.4031C62.3075 13.2351 62.4545 13.0631 62.5995 12.8911C62.3225 14.1491 61.9335 15.3991 61.3845 16.6411C59.5825 20.7231 56.4365 24.0501 53.0085 26.8081C51.2595 28.2171 49.2465 29.7881 47.7195 31.5981Z" fill="white"/>
<path d="M50.6574 48.1412C51.8324 50.0042 54.2854 49.6592 56.1864 49.6362C57.0164 49.6262 57.5664 48.5282 56.8934 47.9292C54.6004 45.8892 52.1444 45.0332 49.0874 45.5052C47.8164 45.7012 48.3584 47.6282 49.6184 47.4342C49.9364 47.3852 50.2454 47.3622 50.5474 47.3542C50.4664 47.5882 50.4814 47.8612 50.6574 48.1412Z" fill="white"/>
<path d="M55.3492 33.2721C54.1982 33.8531 55.2102 35.5781 56.3592 34.9991C62.3272 31.9911 66.1912 27.5981 68.9272 21.9781C68.8092 28.7561 66.3623 36.2031 59.7553 38.6711C58.5583 39.1181 59.0762 41.0521 60.2862 40.6001C69.2362 37.2561 71.8313 26.2461 70.6863 17.6361C70.5393 16.5281 69.1292 16.2601 68.7222 17.3701C66.1122 24.4771 62.2182 29.8101 55.3492 33.2721Z" fill="white"/>
<path d="M11.4214 58.8381C6.40836 60.0781 2.38035 57.5141 2.13135 52.2151C1.93435 48.0131 5.61235 44.1831 8.95135 42.2471C13.9614 39.3401 20.7214 39.9431 26.2864 39.1001C27.5584 38.9071 27.0154 36.9801 25.7554 37.1711C16.0324 38.6441 5.76035 37.9291 0.958355 48.2771C-2.62165 55.9921 4.44536 62.6251 11.9524 60.7651C13.2044 60.4561 12.6734 58.5281 11.4214 58.8381Z" fill="white"/>
</svg>
