<svg width="76" height="83" viewBox="0 0 76 83" fill="none" xmlns="http://www.w3.org/2000/svg">
<path fill-rule="evenodd" clip-rule="evenodd" d="M48.9875 39.6619C48.2865 39.6619 47.5851 39.399 47.0496 38.9224L40.788 43.0949L57.0909 78.9094C57.7501 80.3758 57.0909 82.0738 55.6563 82.7299C55.2685 82.9228 54.8808 83 54.4543 83C53.3298 83 52.2829 82.3825 51.8177 81.302L37.3204 49.4547L22.6603 81.3012C22.1562 82.3818 21.1094 82.9992 20.0237 82.9992C19.6359 82.9992 19.2095 82.922 18.8217 82.7291C17.3483 82.073 16.7279 80.3368 17.387 78.909L30.8176 49.7337C30.3283 50.0174 29.7723 50.159 29.252 50.159C28.9605 50.159 28.669 50.1135 28.3894 50.0263L14.9044 58.9964C13.7799 59.7296 12.4616 60.1155 11.1821 60.1155C9.01072 60.1155 6.83938 59.0735 5.52106 57.1054L1.13963 50.6221C0.131507 49.117 -0.217498 47.3419 0.131469 45.5667C0.480435 43.7915 1.48856 42.2864 3.00075 41.2831L16.4365 32.3456C16.4959 31.481 16.9445 30.648 17.7361 30.1303L33.8839 19.3711C33.6873 18.8597 33.6373 18.3102 33.7493 17.7809C33.9044 17.0476 34.331 16.353 34.9901 15.9285L56.9362 1.30242C58.6423 0.144684 60.6973 -0.241188 62.7136 0.144722C64.7298 0.530633 66.4746 1.68837 67.6379 3.38637L74.6947 13.8445C77.06 17.3563 76.1294 22.1416 72.5622 24.4957L50.6548 39.1216C50.112 39.5075 49.5692 39.6619 48.9875 39.6619ZM40.4134 29.2152L37.0358 24.1938L23.3584 33.3334L30.0274 43.2512L43.7147 34.1437L40.4134 29.2152ZM40.6616 19.1247L49.8274 32.7372L69.3051 19.7489C70.1969 19.1701 70.4296 17.9738 69.8092 17.1248L62.7523 6.66665C62.4809 6.24215 62.0544 5.97201 61.5503 5.85624C61.0463 5.74046 60.5422 5.85616 60.1157 6.1263L40.6616 19.1247ZM6.25781 46.0298L19.1308 37.4625L24.5979 45.5667L11.7249 54.1339C11.2596 54.4426 10.678 54.2882 10.3678 53.8637L5.98639 47.3805C5.6762 46.9174 5.83129 46.3385 6.25781 46.0298Z" fill="white"/>
</svg>
