<svg width="72" height="61" viewBox="0 0 72 61" fill="none" xmlns="http://www.w3.org/2000/svg">
<path d="M54.5289 53.5724C59.0099 53.5494 63.4869 53.3204 67.9669 53.3244C68.1329 52.7654 68.2509 52.1875 68.3209 51.5955C66.8199 51.6335 65.3369 51.6585 63.8369 51.4125C63.2889 51.3225 63.0629 50.5924 63.3259 50.1564C64.0749 48.9224 65.7229 44.5805 62.1859 45.7155C60.6539 46.2075 59.0549 47.2815 60.1559 49.1535C60.4929 49.7255 60.5389 49.8335 60.6779 50.4855C60.7959 51.0425 60.4309 51.5425 59.8539 51.5675C58.0359 51.6455 56.2229 51.5875 54.4049 51.5675C53.3029 51.5555 53.3019 49.8465 54.4049 49.8585C55.8199 49.8735 57.2309 49.9105 58.6439 49.8895C58.0289 48.6125 57.1339 47.4404 58.4349 46.0314C59.6399 44.7294 61.7369 43.5995 63.5819 43.9015C66.6129 44.3965 66.3429 47.5745 65.3729 49.8805C66.3709 49.9525 67.3709 49.9214 68.3729 49.8904C68.1129 44.4214 63.6089 40.0645 58.0759 40.0645C52.3769 40.0645 47.7559 44.6855 47.7559 50.3845C47.7559 56.0835 52.3769 60.7045 58.0759 60.7045C62.1009 60.7045 65.5799 58.3944 67.2809 55.0324C63.0299 55.0534 58.7809 55.2604 54.5279 55.2824C53.4259 55.2874 53.4269 53.5784 54.5289 53.5724Z" fill="white"/>
<path d="M68.3208 51.5945C68.7168 51.5835 69.1138 51.5735 69.5128 51.5665C70.6148 51.5455 70.6168 49.8365 69.5128 49.8575C69.1328 49.8645 68.7518 49.8775 68.3728 49.8885C68.3808 50.0525 68.3968 50.2155 68.3968 50.3825C68.3978 50.7935 68.3668 51.1965 68.3208 51.5945Z" fill="white"/>
<path d="M69.7608 53.3244C69.1618 53.3144 68.5648 53.3244 67.9668 53.3244C67.7898 53.9184 67.5578 54.4884 67.2808 55.0314C68.1068 55.0274 68.9328 55.0194 69.7598 55.0334C70.8638 55.0524 70.8618 53.3434 69.7608 53.3244Z" fill="white"/>
<path d="M42.6267 41.4985C39.7167 40.8735 37.3467 42.0255 36.8427 36.6825C36.7147 35.3355 36.9167 33.9125 37.0287 32.5715C37.5727 25.9495 37.1707 19.1645 37.1707 12.5215C37.1707 11.1155 34.9897 11.1155 34.9897 12.5215C34.9897 20.5765 34.6507 28.6455 34.6627 36.6825C34.6647 38.7335 35.3217 40.4115 36.6727 41.9115C38.4757 43.9135 41.5137 43.2275 43.8607 44.3275C39.0637 46.7275 32.2887 46.4195 26.9017 45.1965C29.4607 44.6715 31.6737 43.6145 33.8537 41.9115C34.9597 41.0455 33.4057 39.5145 32.3117 40.3695C30.0827 42.1115 27.7207 43.0565 24.9057 43.3205C24.2487 43.3825 23.9097 43.9065 23.8747 44.4245C22.7077 44.3075 22.2727 46.1565 23.5267 46.5515C30.2607 48.6705 40.3297 49.5925 46.4427 45.3515C47.0067 44.9595 47.1977 44.1595 46.6637 43.6395C45.3717 42.3845 44.3827 41.8775 42.6267 41.4985Z" fill="white"/>
<path d="M23.3797 30.1565C23.5927 29.4845 23.0317 28.5055 22.0707 28.6395C15.1777 29.6025 8.26768 28.8925 1.37368 28.3275C0.860677 28.2855 0.542677 28.5535 0.404677 28.9115C0.0366768 29.2135 -0.158323 29.7105 0.160677 30.2405C4.95468 38.2035 18.3577 39.5375 23.3027 31.0585C23.4917 30.7345 23.4887 30.4225 23.3797 30.1565ZM3.19368 30.6585C9.04868 31.1375 14.8737 31.5455 20.7247 30.9595C16.5577 36.3395 7.58868 35.5625 3.19368 30.6585Z" fill="white"/>
<path d="M4.9227 27.3615C8.3147 24.8935 10.0857 20.8825 11.2687 16.7145C11.1197 20.1305 10.9377 23.5455 10.9147 26.9655C10.9047 28.3725 13.0857 28.3705 13.0957 26.9655C13.1187 23.6345 13.2907 20.3095 13.4387 16.9825C14.8627 20.0885 16.9147 22.9635 19.1387 25.2835C20.1127 26.3005 21.6537 24.7565 20.6797 23.7415C17.0967 20.0035 13.8417 14.5325 13.6407 9.24946C13.6207 8.74946 13.3287 8.43646 12.9667 8.29246C12.5777 7.48046 11.1967 7.31346 10.9537 8.41446C9.7347 13.9395 8.7267 21.9085 3.8227 25.4785C2.6977 26.2975 3.7837 28.1915 4.9227 27.3615Z" fill="white"/>
<path d="M13.8537 6.52954C18.9637 -0.227456 28.9807 13.7835 36.0987 9.45954C43.2167 13.7845 53.2337 -0.227456 58.3437 6.52954C59.1807 7.63554 61.0737 6.55054 60.2267 5.42854C57.8177 2.24354 54.7207 2.07454 51.1377 3.41554C47.3987 4.81554 40.7857 10.5975 36.8887 7.38854C36.6677 7.20754 36.4297 7.14755 36.1967 7.14255C36.1647 7.13755 36.1327 7.13754 36.0987 7.13454C36.0657 7.13754 36.0327 7.13755 36.0007 7.14255C35.7677 7.14755 35.5287 7.20754 35.3087 7.38854C31.4117 10.5975 24.7977 4.81654 21.0587 3.41554C17.4767 2.07354 14.3787 2.24354 11.9707 5.42854C11.1227 6.55154 13.0167 7.63554 13.8537 6.52954Z" fill="white"/>
<path d="M71.4287 29.2765C71.2907 28.9175 70.9727 28.6505 70.4597 28.6925C63.5657 29.2565 56.6547 29.9675 49.7627 29.0035C48.8027 28.8695 48.2417 29.8485 48.4537 30.5205C48.3457 30.7875 48.3417 31.0985 48.5307 31.4235C53.4757 39.9025 66.8787 38.5695 71.6737 30.6055C71.9927 30.0745 71.7967 29.5785 71.4287 29.2765ZM51.1097 31.3225C56.9617 31.9085 62.7857 31.4995 68.6417 31.0215C64.2447 35.9255 55.2767 36.7025 51.1097 31.3225Z" fill="white"/>
<path d="M58.8686 8.65547C58.5066 8.79947 58.2136 9.11347 58.1936 9.61247C57.9926 14.8965 54.7376 20.3665 51.1546 24.1045C50.1806 25.1195 51.7216 26.6635 52.6966 25.6465C54.9206 23.3265 56.9716 20.4515 58.3956 17.3455C58.5426 20.6725 58.7156 23.9965 58.7396 27.3285C58.7486 28.7335 60.9286 28.7345 60.9196 27.3285C60.8966 23.9075 60.7146 20.4925 60.5656 17.0765C61.7486 21.2455 63.5206 25.2565 66.9116 27.7245C68.0516 28.5535 69.1376 26.6605 68.0126 25.8425C63.1086 22.2725 62.1006 14.3025 60.8816 8.77847C60.6376 7.67747 59.2566 7.84447 58.8686 8.65547Z" fill="white"/>
<path d="M30.9006 6.70651C33.1396 6.74951 34.9066 5.88451 36.0216 4.34851C37.1256 6.49251 39.1126 7.55851 41.9906 6.01251C43.2286 5.34651 42.1286 3.46451 40.8896 4.13051C38.1786 5.58751 37.5346 2.98251 37.2206 0.784511C37.0716 -0.269489 35.2836 -0.253489 35.1186 0.784511C34.7306 3.20851 33.4306 4.57551 30.8996 4.52651C29.4936 4.49851 29.4956 6.67851 30.9006 6.70651Z" fill="white"/>
</svg>
