<svg width="104" height="76" viewBox="0 0 104 76" fill="none" xmlns="http://www.w3.org/2000/svg">
<path d="M93.206 50.2679C88.634 50.2679 84.763 53.2439 83.407 57.3619C83.753 57.4769 84.12 57.6709 84.514 57.9619C86.952 59.7649 87.606 56.4389 89.885 56.8309C90.522 56.9399 91.246 57.1019 91.567 57.7799C92.299 59.3389 94.252 57.6699 95.27 57.2099C97.132 56.3699 98.624 57.6549 99.92 58.8409C100.763 59.6119 99.509 60.8589 98.668 60.0909C95.94 57.5969 94.652 60.6589 92.117 60.6069C90.986 60.5839 89.793 58.1379 88.674 59.0989C87.864 59.7939 87.04 60.5039 85.908 60.5039C84.83 60.5039 83.887 59.3549 82.986 59.2139C82.925 59.6649 82.884 60.1219 82.884 60.5889C82.884 60.9779 82.909 61.3599 82.95 61.7379C83.425 61.7999 83.94 62.0239 84.512 62.4479C86.95 64.2499 87.604 60.9249 89.883 61.3169C90.52 61.4259 91.244 61.5879 91.565 62.2639C92.297 63.8239 94.25 62.1549 95.268 61.6949C97.13 60.8559 98.622 62.1389 99.918 63.3259C100.761 64.0969 99.507 65.3449 98.666 64.5759C95.938 62.0819 94.65 65.1449 92.115 65.0919C90.984 65.0679 89.791 62.6219 88.672 63.5849C87.862 64.2789 87.038 64.9889 85.906 64.9889C84.996 64.9889 84.181 64.1709 83.409 63.8309C84.769 67.9399 88.637 70.9089 93.203 70.9089C98.902 70.9089 103.523 66.2879 103.523 60.5889C103.523 54.8899 98.905 50.2679 93.206 50.2679Z" fill="white"/>
<path d="M80.2059 59.0179C79.5609 59.9629 81.0949 60.8479 81.7329 59.9119C82.1469 59.3039 82.5629 59.1469 82.9869 59.2139C83.0719 58.5769 83.2109 57.9569 83.4069 57.3619C82.1219 56.9339 81.1369 57.6529 80.2059 59.0179Z" fill="white"/>
<path d="M80.2059 63.505C79.5609 64.45 81.0949 65.333 81.7329 64.398C82.2859 63.587 82.8369 63.578 83.4119 63.832C83.1899 63.161 83.0319 62.463 82.9519 61.739C81.8829 61.6 81.0249 62.303 80.2059 63.505Z" fill="white"/>
<path d="M87.2271 43.684C93.3751 36.179 96.2851 25.606 88.4641 18.403C91.7381 18.381 93.7801 15.891 94.7511 12.418C95.8521 8.47398 94.1661 2.57698 88.6961 4.03098C88.4081 4.10798 88.2671 4.30398 88.2231 4.52298C88.0491 4.50698 87.8751 4.49698 87.6931 4.50198C86.7481 4.53498 86.7831 5.92898 87.7401 5.89498C92.9091 5.70898 90.8321 13.795 88.4981 15.083C85.9361 16.496 81.2771 12.742 79.5341 11.095C75.8871 7.64698 72.6421 2.48798 67.6571 0.611983C63.5401 -0.940017 60.5751 0.573983 58.7871 3.86498C57.6411 5.97698 57.0991 8.94698 58.3131 11.244C55.6961 9.90298 53.7101 7.84398 53.2981 4.73798C53.2551 4.41998 53.0641 4.23598 52.8321 4.14798C52.8361 4.05498 52.8501 3.96098 52.8521 3.86898C52.8761 2.85298 51.2621 2.66398 51.2381 3.69098C51.0761 10.562 45.8701 18.558 38.6211 19.807C37.5901 19.985 37.8211 21.558 38.8541 21.38C39.4641 21.275 40.0551 21.115 40.6381 20.93C40.7491 21.045 40.8881 21.142 41.0821 21.178C49.2961 22.719 51.0281 31.078 53.4511 37.689C55.3291 42.814 58.1131 47.615 62.6011 50.951C71.4421 57.518 81.5071 50.671 87.2271 43.684ZM90.1401 5.22998C93.7331 5.01998 93.7211 9.75798 93.2961 11.982C92.8341 14.398 91.0981 17.23 88.1631 17.156C87.6161 17.142 87.0561 17.037 86.4891 16.867C86.1801 16.667 85.8651 16.477 85.5411 16.3C92.6341 18.164 94.0381 8.06798 90.1401 5.22998ZM60.8051 3.44498C63.1241 -0.172017 67.6051 1.66498 70.6211 4.06898C74.0181 6.77598 76.4841 10.204 79.7121 12.937C76.9051 11.018 74.4341 8.70598 71.9421 6.44498C69.9661 4.65398 66.6401 1.83998 64.2811 3.98898C63.3781 4.81298 61.6381 11.76 60.5541 11.866C57.8541 9.69798 59.4301 5.58998 60.8051 3.44498ZM78.8321 14.073C76.0491 13.583 73.1851 13.47 70.6121 13.525C68.2141 13.575 65.1971 13.388 62.3531 12.696C63.6711 11.236 64.0821 7.84698 64.4931 6.65598C66.1951 1.73198 72.5171 8.85598 74.6721 10.732C75.9651 11.857 77.3641 13.003 78.8321 14.073ZM75.5091 51.076C68.7031 53.954 62.4591 49.868 58.6571 44.55C53.0341 36.685 53.4091 23.227 42.8811 20.004C47.6021 17.565 51.1041 12.602 52.3491 7.47598C55.3321 14.74 66.3641 14.962 73.1571 15.136C74.5471 15.172 75.9461 15.289 77.3211 15.501C76.8291 25.982 66.8251 36.301 57.8091 40.955C56.8871 41.431 57.5171 42.896 58.4441 42.42C67.9201 37.528 78.3521 26.836 78.9321 15.796C84.7771 17.048 89.9111 20.201 91.5361 26.487C92.8361 31.519 89.8881 37.102 87.1281 41.133C84.2691 45.308 80.2561 49.069 75.5091 51.076Z" fill="white"/>
<path d="M27.1079 15.459C26.8799 14.286 25.1049 14.784 25.3319 15.952C24.5669 15.415 23.8029 14.878 23.0379 14.342C23.6869 13.66 24.4229 13.097 25.2429 12.65C26.8329 11.662 28.5209 11.333 30.3489 11.218C33.3669 11.031 34.2999 14.302 36.3589 15.669C37.0999 16.163 37.9319 16.501 38.7989 16.693C38.5569 17.176 38.3109 17.656 38.0979 18.157C37.6959 19.104 39.2079 19.682 39.6099 18.734C39.8799 18.098 40.1829 17.484 40.5029 16.879C42.5169 16.887 44.5439 16.16 45.9829 14.739C46.8319 13.901 45.5289 12.591 44.6799 13.428C43.6659 14.428 42.6129 14.914 41.5659 15.04C44.0199 11.13 47.3499 7.78098 50.5449 4.41898C51.2589 3.66898 49.9489 2.72698 49.2429 3.46898C45.8159 7.07398 42.2969 10.668 39.7729 14.914C37.9599 14.456 36.2659 13.084 34.9769 11.534C34.1149 10.498 32.8359 9.59998 31.4629 9.46998C27.6069 9.10398 23.5769 10.649 21.1649 13.764C16.7449 19.475 28.6469 23.409 27.1079 15.459Z" fill="white"/>
<path d="M89.509 30.673C89.141 25.124 86.303 21.409 81.888 18.126C81.054 17.505 80.084 18.78 80.917 19.4C85.011 22.444 87.561 25.754 87.902 30.902C87.97 31.926 89.577 31.69 89.509 30.673Z" fill="white"/>
<path d="M94.687 29.963C91.806 38.736 86.421 49.75 76.723 53.026C75.731 53.361 76.374 54.822 77.358 54.49C87.482 51.07 93.183 39.727 96.201 30.54C96.52 29.57 95.008 28.983 94.687 29.963Z" fill="white"/>
<path d="M13.7859 22.887C14.9739 22.887 14.9739 21.033 13.7859 21.033C12.5979 21.033 12.5969 22.887 13.7859 22.887Z" fill="white"/>
<path d="M31.2521 32.865C31.7441 31.488 31.8241 30.369 31.8031 28.884C31.7411 24.533 33.4041 21.709 37.0461 19.518C38.0651 18.907 37.1391 17.302 36.1161 17.918C33.4371 19.528 31.5431 21.647 30.2601 24.506C29.8611 25.396 29.9171 26.576 29.9041 27.523C29.8541 30.923 28.8991 33.215 25.7351 34.856C23.6971 35.914 22.6871 37.538 22.5701 39.802C22.4351 42.412 22.4241 45.358 18.5991 45.49C17.3801 45.532 16.3441 45.834 15.2461 46.338C12.4431 47.623 9.07406 53.411 11.9041 56.129C12.1061 56.323 12.4911 56.509 12.9831 56.693C13.0691 58.422 13.5661 60.208 14.3471 61.855C15.3991 64.072 17.2751 65.642 19.4921 66.543C21.1031 67.198 23.0331 67.257 24.7231 67.635C27.2271 68.008 27.9511 69.766 26.8921 72.912C25.7611 73.737 23.8631 73.959 22.5351 74.094C21.3651 74.213 21.3531 76.068 22.5351 75.948C27.3261 75.464 32.6691 72.41 28.3051 67.375C26.0671 64.791 21.3691 65.7 18.5761 64.055C16.2981 62.711 14.9381 59.969 14.7791 57.258C18.1921 58.224 22.9301 59.311 20.2731 61.392C19.3361 62.125 20.6491 63.427 21.5751 62.703C23.7141 61.028 23.8461 59.105 21.5061 57.594C20.0411 56.649 18.1471 56.229 16.4951 55.765C15.9561 55.615 15.4201 55.462 14.8821 55.312C15.2021 53.433 16.1791 51.75 17.9361 50.8C18.9821 50.235 18.0521 48.634 17.0051 49.199C14.6511 50.471 13.4601 52.436 13.0971 54.637C12.3361 53.98 12.4771 52.683 13.5451 50.729C14.5151 48.667 16.3991 47.549 18.6001 47.346C20.6391 47.158 22.0051 47.229 23.5291 45.711C26.3991 42.85 22.3971 39.095 26.6661 36.459C28.2241 35.494 30.5571 34.816 31.2521 32.865Z" fill="white"/>
<path d="M35.7869 21.725C33.1879 25.891 30.8479 32.674 36.1869 35.727C38.3699 36.975 43.5479 37.92 42.5349 33.763C42.2529 32.603 40.4759 33.095 40.7599 34.255C41.2329 36.192 36.6459 33.917 35.9979 33.38C32.8399 30.757 35.7679 25.24 37.3769 22.66C38.0099 21.645 36.4159 20.716 35.7869 21.725Z" fill="white"/>
<path d="M54.297 58.835C53.367 59.171 52.399 59.428 51.42 59.579C51.58 56.896 50.277 54.379 47.418 53.506C46.278 53.157 45.795 54.946 46.929 55.292C49.177 55.98 49.709 57.778 49.499 59.732C47.512 59.729 45.561 59.208 43.898 57.906C40.436 55.198 43.522 51.292 42.325 48.043C41.592 46.054 40.748 44.962 39.089 43.604C37.384 42.208 30.779 38.76 33.778 35.824C34.631 34.99 33.3281 33.68 32.4751 34.513C30.7571 36.195 30.409 38.258 32.104 40.173C35.375 43.866 41.364 45.474 40.443 51.442C39.445 57.905 43.884 61.211 49.107 61.483C48.319 63.72 46.253 65.042 44.089 65.795C40.144 67.169 34.094 66.274 32.768 61.659C31.271 56.452 38.124 51.79 34.613 46.516C33.955 45.529 32.359 46.455 33.022 47.452C35.529 51.217 31.129 56.499 30.835 60.531C30.523 64.795 34.9921 67.751 38.7391 68.092C43.4631 68.521 48.628 67.036 50.716 62.4C50.858 62.087 50.971 61.766 51.07 61.445C52.317 61.334 53.574 61.061 54.785 60.622C55.896 60.219 55.417 58.428 54.297 58.835Z" fill="white"/>
<path d="M11.984 45.02C16.935 45.68 18.411 39.89 15.835 36.657C19.709 35.797 23.425 35.571 26.064 32.205C27.069 30.924 27.255 29.506 27.337 27.935C27.474 25.356 26.931 24.457 28.2 21.606C29.084 19.619 31.067 18.03 32.627 16.592C33.505 15.782 32.199 14.476 31.324 15.281C27.176 19.103 25.23 22.211 25.495 27.934C25.782 34.135 18.755 34.053 14.057 35.172C9.59403 32.548 2.26703 32.871 1.58103 39.105C1.45103 40.293 3.29403 40.281 3.42303 39.105C3.86303 35.108 8.21102 34.739 11.569 36.069C7.10302 38.489 5.79103 44.194 11.984 45.02ZM10.422 39.111C11.251 38.125 12.418 37.587 13.631 37.215C14.184 37.632 14.656 38.096 14.983 38.606C16.908 41.607 13.535 43.613 11.008 42.964C8.83103 42.404 9.31403 40.43 10.422 39.111Z" fill="white"/>
<path d="M25.7589 54.631C26.9469 54.631 26.9469 52.777 25.7589 52.777C24.5709 52.777 24.5709 54.631 25.7589 54.631Z" fill="white"/>
<path d="M41.6471 29.6069C42.8351 29.6069 42.8351 27.7529 41.6471 27.7529C40.4591 27.7539 40.4591 29.6069 41.6471 29.6069Z" fill="white"/>
<path d="M43.7191 3.88794C44.9071 3.88794 44.9071 2.03394 43.7191 2.03394C42.5321 2.03494 42.5321 3.88794 43.7191 3.88794Z" fill="white"/>
<path d="M39.1149 12.462C40.3029 12.462 40.3029 10.608 39.1149 10.608C37.9259 10.608 37.9259 12.462 39.1149 12.462Z" fill="white"/>
<path d="M9.41102 47.679C8.22302 47.679 8.22302 49.533 9.41102 49.533C10.599 49.533 10.599 47.679 9.41102 47.679Z" fill="white"/>
<path d="M0.891 65.2889C-0.297 65.2889 -0.297 67.1429 0.891 67.1429C2.079 67.1419 2.079 65.2889 0.891 65.2889Z" fill="white"/>
</svg>
