<svg width="98" height="61" viewBox="0 0 98 61" fill="none" xmlns="http://www.w3.org/2000/svg">
<path d="M19.092 48.0205C19.092 42.7615 14.818 38.4995 9.546 38.4995C4.274 38.4995 0 42.7615 0 48.0205C0 53.1945 4.142 57.3955 9.298 57.5285C9.279 56.7235 9.218 55.8355 9.159 54.8985C8.956 53.0625 8.539 51.2525 7.873 49.5095C7.47 48.4535 7.118 47.0845 6.499 46.1215C4.885 43.6095 3.346 47.1265 3.101 47.9775C2.802 49.0255 1.098 48.5805 1.398 47.5305C2.138 44.9485 4.932 41.9065 7.542 44.5665C8.376 45.4155 8.941 46.8935 9.369 48.2465C9.666 46.9145 10.198 45.7075 11.121 44.7665C14.522 41.3025 16.552 45.5615 16.83 48.6095C16.929 49.6935 15.161 49.6825 15.063 48.6095C14.959 47.4645 13.92 43.3325 12.198 46.1935C11.451 47.4345 11.129 48.8455 11.022 50.2645C10.841 52.6535 11.018 55.0225 11.062 57.4095C15.612 56.6825 19.092 52.7615 19.092 48.0205Z" fill="white"/>
<path d="M9.2981 57.5284C9.2991 57.6064 9.3031 57.6894 9.3041 57.7674C9.3171 58.8534 11.0591 58.8544 11.0701 57.7674C11.0691 57.6484 11.0661 57.5284 11.0631 57.4094C10.5671 57.4874 10.0631 57.5404 9.5451 57.5404C9.4621 57.5404 9.3811 57.5304 9.2981 57.5284Z" fill="white"/>
<path d="M91.9249 29.3095C85.4169 23.8585 76.6919 21.8395 69.7839 16.9555C69.3669 16.6605 68.9609 16.7765 68.6979 17.0595C69.9689 12.0175 67.3319 6.42146 62.3909 2.86246C54.9139 -2.52354 43.7619 0.429456 37.0429 5.63046C31.4759 3.58046 25.2089 4.00846 19.4079 7.68146C8.56987 14.5415 10.0359 28.5715 16.3699 37.9335C16.8179 38.5965 17.9459 38.4545 18.0959 37.6165C19.2419 31.1715 20.8429 26.3995 27.1279 23.6635C26.9889 26.1995 27.2789 28.7925 28.0949 31.3735C29.2949 35.1675 31.7099 37.8965 34.7289 39.7335C33.1649 41.3645 30.8589 42.0725 28.8309 42.9495C27.0149 43.7345 25.5449 44.8715 24.1379 46.2495C21.2319 49.0955 20.9009 53.3675 20.8699 57.1875C20.8599 58.4115 22.7589 58.4115 22.7689 57.1875C22.8099 52.2525 23.7759 48.2045 28.1779 45.3965C30.9709 43.6135 34.2049 43.1575 36.4309 40.6535C40.4149 42.5175 45.1709 43.0415 49.5969 42.4665C49.9799 42.4165 50.2289 42.1815 50.3679 41.8975C50.8909 41.9625 51.4239 42.0015 51.9699 41.9925C53.1939 41.9715 53.1959 40.0725 51.9699 40.0935C48.5249 40.1515 45.5559 38.3935 43.3379 35.7375C43.4349 35.6895 43.5309 35.6345 43.6199 35.5425C45.6299 33.4485 46.8669 30.8355 47.4249 28.0005C47.6619 26.8045 45.8309 26.2945 45.5939 27.4965C45.0969 30.0185 44.0699 32.3295 42.2769 34.2005C42.2579 34.2195 42.2559 34.2405 42.2389 34.2605C39.8859 30.6955 38.7069 26.0455 39.1989 21.9155C39.3859 22.0235 39.6109 22.0785 39.8769 22.0185C45.3979 20.7575 47.5479 24.6675 51.2099 27.6795C53.1769 29.2975 55.2279 29.2795 57.1519 27.7095C58.1019 26.9355 56.7499 25.5995 55.8089 26.3665C53.0059 28.6525 49.6489 23.1835 47.7789 21.7525C45.3299 19.8765 42.4439 19.5255 39.5219 20.1585C39.9519 18.4445 40.7029 16.8685 41.8319 15.5725C44.2069 12.8485 49.0299 11.4355 52.0449 13.8435C52.1929 13.9635 52.3179 14.1045 52.4489 14.2405C52.4759 14.6995 52.7669 14.9795 53.1169 15.0835C54.0749 16.6145 54.4329 18.6405 55.1349 20.1995C56.5699 23.3895 59.4059 23.8465 62.6539 23.9515C62.9399 23.9605 63.1529 23.8575 63.3039 23.7045C63.5329 23.8015 63.8049 23.7885 64.0819 23.5845C66.2879 21.9605 67.6949 20.0325 68.4209 17.9835C68.4629 18.2125 68.5859 18.4325 68.8209 18.5985C74.9609 22.9395 82.1999 25.2345 88.5509 29.2125C91.8429 31.2745 98.9819 37.3035 94.2419 41.5455C93.7769 41.9615 93.2829 42.3605 92.8129 42.7835C92.4459 42.6015 92.0479 42.4925 91.6169 42.4705C90.4689 42.4085 90.4179 44.0565 91.4179 44.3185C89.7819 46.6865 88.4559 45.2175 87.1009 43.5665C86.1459 42.4015 84.9179 41.9705 83.4259 41.8575C81.3849 41.7035 79.3639 41.6955 77.3179 41.6905C74.5449 41.6825 72.6639 40.0365 70.0939 39.6085C64.7729 38.7205 63.8629 46.1775 63.3989 49.5795C63.2349 50.7755 65.0659 51.2935 65.2299 50.0835C65.8529 45.5195 66.3389 40.2645 72.6659 42.6375C76.2259 43.9715 82.6019 42.1105 85.3599 44.4605C86.7109 45.6095 87.9569 48.4045 90.0299 48.4045C92.2109 48.4045 94.1219 44.1115 95.5869 42.8885C100.592 38.7065 95.5179 32.3175 91.9249 29.3095ZM25.5249 8.39946C23.3379 12.6145 24.2589 17.0885 25.7649 21.3655C25.8509 21.6145 26.0129 21.7685 26.1929 21.8685C25.2869 22.2555 24.4079 22.7665 23.5719 23.3265C21.8089 21.0335 19.4139 17.9255 20.3739 14.9265C20.7469 13.7595 18.8849 13.3725 18.5159 14.5285C17.3759 18.0915 19.9739 21.7375 22.0429 24.4415C21.5829 24.8035 21.1459 25.1665 20.7389 25.5175C20.6219 25.4035 20.4829 25.3075 20.2809 25.2675C18.2119 24.8445 17.2129 21.8135 16.2099 20.2175C15.5589 19.1785 13.9649 20.2125 14.6169 21.2485C15.8879 23.2705 16.9449 26.1655 19.3809 26.9885C18.7979 27.7735 18.3449 28.6475 17.9789 29.5685C17.3739 29.0445 16.9329 28.3185 16.5059 27.6615C15.8399 26.6335 14.2449 27.6665 14.9119 28.6945C15.5989 29.7515 16.3079 30.7475 17.3559 31.4575C17.0599 32.5425 16.8409 33.6585 16.6549 34.7545C12.0919 26.6255 11.5029 16.6165 19.3489 10.0665C24.2599 5.96646 30.0889 5.33746 35.3659 7.04146C31.3539 10.6955 28.5269 15.4385 27.5049 20.5845C26.2039 16.8465 25.2989 12.9605 27.2219 9.25546C27.7849 8.16846 26.0899 7.31146 25.5249 8.39946ZM63.1269 21.9415C63.0549 21.9945 62.9959 22.0545 62.9439 22.1165C62.8539 22.0855 62.7659 22.0525 62.6569 22.0485C58.6309 21.9175 57.6639 20.6325 56.5159 18.0845C57.6099 14.8385 62.0229 15.2275 64.7789 15.6045C65.9759 15.7685 66.4929 13.9385 65.2829 13.7725C61.9859 13.3215 57.6349 13.1585 55.5449 15.9005C55.1869 15.1325 54.8039 14.4255 54.3609 13.8005C54.3779 10.1955 56.3789 7.49546 60.0599 6.82046C61.2629 6.59946 60.7519 4.76846 59.5549 4.98846C55.7099 5.69446 53.2219 8.43546 52.5989 11.9925C51.9599 11.5275 51.2319 11.1435 50.3569 10.8725C49.7459 10.6835 49.1279 10.5875 48.5119 10.5635C48.1849 8.65846 48.0249 5.55646 50.0889 4.92046C51.2559 4.56046 50.7579 2.72646 49.5839 3.08846C46.4209 4.06446 46.1879 7.84146 46.6259 10.7225C45.3069 10.9915 44.0279 11.5665 42.8699 12.3495C42.8159 12.3395 42.7739 12.3155 42.7139 12.3145C41.8829 12.2955 40.9569 12.1765 40.6609 11.2865C40.3469 10.3415 40.7289 9.19346 41.0179 8.29346C41.3939 7.12446 39.5609 6.62746 39.1869 7.78946C38.7479 9.15446 38.3819 10.7675 38.9619 12.1475C39.3589 13.0905 40.0919 13.6375 40.9579 13.9295C40.2559 14.6295 39.6329 15.3945 39.1279 16.1935C39.0009 16.1345 38.8569 16.0975 38.6769 16.1125C36.9739 16.2605 35.5709 15.4995 35.3189 13.7235C35.1469 12.5145 33.3179 13.0305 33.4879 14.2275C33.8259 16.6095 35.9199 18.0105 38.1969 18.0135C37.6689 19.3515 37.3619 20.8065 37.2429 22.3145C37.1629 22.3125 37.0879 22.2995 36.9999 22.3185C35.2469 22.7025 33.3879 22.2665 31.9879 21.1385C31.0439 20.3765 29.6919 21.7115 30.6449 22.4815C32.5179 23.9925 34.8279 24.6235 37.1879 24.2015C37.2249 25.6325 37.4179 27.0865 37.7629 28.5175C37.6769 28.4915 37.5939 28.4595 37.4899 28.4575C35.4699 28.4265 33.5319 27.9805 31.5699 27.5415C30.3769 27.2745 29.8699 29.1055 31.0649 29.3735C33.1909 29.8485 35.3019 30.3225 37.4899 30.3565C37.8049 30.3615 38.0359 30.2375 38.1889 30.0525C38.4839 30.9775 38.8389 31.8855 39.2529 32.7595C39.1489 32.8125 39.0479 32.8935 38.9549 33.0095C37.7869 34.4695 35.5379 33.8655 33.9279 33.6805C32.7119 33.5395 32.7259 35.4415 33.9279 35.5795C36.0449 35.8225 38.6059 36.2675 40.1749 34.4865C41.7949 37.2125 43.9989 39.4895 46.6679 40.7915C40.5149 40.9555 34.6579 38.9825 31.1279 33.4325C26.7719 26.5825 29.2269 16.9115 34.0179 11.0265C38.6949 5.28146 46.2909 1.83346 53.6529 1.99446C63.3779 2.21146 73.0049 14.6685 63.1269 21.9415Z" fill="white"/>
<path d="M69.554 27.0365C69.553 27.1895 69.578 27.3485 69.672 27.5145C70.184 28.4165 70.278 29.0405 71.442 29.1715C71.741 29.2055 72.136 28.9725 72.262 28.7015C72.581 28.0065 72.81 27.3265 72.866 26.5595C72.898 26.1125 72.545 25.7885 72.169 25.6435C70.334 24.9365 68.381 25.1195 66.456 25.1345C65.231 25.1445 65.23 27.0435 66.456 27.0335C67.492 27.0265 68.532 26.9605 69.554 27.0365Z" fill="white"/>
<path d="M92.8239 39.5846C93.4909 39.4036 94.0449 39.0846 94.3189 38.4286C94.5889 37.7786 94.2449 37.0516 93.8659 36.5276C93.5639 36.1096 93.0469 35.9076 92.5669 36.1876C92.1519 36.4296 91.9229 37.0656 92.2259 37.4866C92.2849 37.5676 92.3359 37.6516 92.3889 37.7346C92.3659 37.7406 92.3479 37.7456 92.3189 37.7536C91.1379 38.0726 91.6409 39.9046 92.8239 39.5846Z" fill="white"/>
<path d="M42.9678 51.9735C38.3878 60.6425 54.9418 63.6805 54.1108 56.2375C53.9758 55.0345 52.0758 55.0205 52.2118 56.2375C52.6918 60.5415 45.8878 58.2405 44.5308 56.4195C43.2558 54.7075 44.8208 52.2105 45.9708 50.9625C47.3728 49.4445 49.7058 49.3745 51.6038 49.4685C57.3148 49.7495 64.3198 53.7135 67.9208 58.0965C68.6988 59.0435 70.0338 57.6915 69.2638 56.7535C64.2328 50.6295 48.2298 42.0135 42.9678 51.9735Z" fill="white"/>
</svg>
