<svg width="75" height="83" viewBox="0 0 75 83" fill="none" xmlns="http://www.w3.org/2000/svg">
<path d="M41.6236 16.243C40.5976 16.647 40.1556 14.993 41.1696 14.595C42.1676 14.203 43.1676 13.919 44.1686 13.728C44.1576 13.672 44.1346 13.625 44.1326 13.561C44.1066 10.869 43.7786 8.197 43.6386 5.511C43.6346 5.438 43.6566 5.382 43.6676 5.319C42.2046 4.977 40.7866 4.387 39.4786 3.525C38.5646 2.921 39.4186 1.441 40.3416 2.049C43.4826 4.119 47.2546 4.471 50.6836 3.294C48.7986 1.272 46.1206 0 43.1386 0C37.4396 0 32.8186 4.621 32.8186 10.321C32.8186 16.021 37.4396 20.641 43.1386 20.641C46.7456 20.641 49.9156 18.788 51.7616 15.985C48.4506 14.803 45.0596 14.893 41.6236 16.243Z" fill="white"/>
<path d="M50.9176 13.959C51.4746 14.103 52.0276 14.281 52.5786 14.483C53.1406 13.209 53.4596 11.803 53.4596 10.321C53.4596 8.248 52.8416 6.321 51.7886 4.703C51.4626 4.829 51.1326 4.948 50.7986 5.05C50.8106 8.02 50.9036 10.989 50.9176 13.959Z" fill="white"/>
<path d="M45.3535 5.59797C45.4945 8.23497 45.8095 10.86 45.8395 13.503C46.9665 13.413 48.0895 13.449 49.2025 13.607C49.1845 10.887 49.1125 8.16897 49.0935 5.44897C47.8555 5.66497 46.5975 5.72297 45.3535 5.59797Z" fill="white"/>
<path d="M54.7067 15.425C54.0057 15.056 53.2947 14.747 52.5787 14.484C52.3477 15.009 52.0737 15.511 51.7617 15.986C52.4597 16.235 53.1547 16.538 53.8457 16.901C54.8197 17.413 55.6827 15.938 54.7067 15.425Z" fill="white"/>
<path d="M53.9646 3.65001C54.9096 3.08601 54.0506 1.60801 53.1016 2.17401C52.3256 2.63701 51.5136 3.01001 50.6836 3.29601C51.0896 3.73301 51.4626 4.20201 51.7886 4.70501C52.5356 4.41501 53.2646 4.06701 53.9646 3.65001Z" fill="white"/>
<path d="M11.5128 51.6579C10.4088 51.6829 9.33179 51.5679 8.28179 51.3199C9.80279 45.1599 17.4138 28.9249 5.14979 30.4539C3.85679 30.6149 4.40879 32.3939 5.68979 32.2349C14.6958 31.1119 6.76579 47.7909 6.13379 51.7199C6.05279 52.2179 6.26079 52.7079 6.84279 52.8559C8.49979 53.2749 9.81279 53.5579 11.5128 53.5029C12.8188 53.4619 12.8228 51.6159 11.5128 51.6579Z" fill="white"/>
<path d="M23.8748 31.7788C21.1658 30.4798 18.4438 30.7649 15.6438 31.6849C14.4218 32.0869 14.9488 33.8718 16.1838 33.4658C18.4378 32.7248 20.6308 32.3089 22.8498 33.3719C24.0068 33.9279 25.0328 32.3338 23.8748 31.7788Z" fill="white"/>
<path d="M21.8438 55.8389C22.8758 55.1329 21.8648 53.5279 20.8188 54.2449C17.1448 56.7589 12.8048 56.3019 8.46577 56.2729C7.15577 56.2639 7.15677 58.1109 8.46577 58.1199C13.1728 58.1519 17.8718 58.5579 21.8438 55.8389Z" fill="white"/>
<path d="M7.48561 36.7109C7.68861 37.7489 9.52762 37.7159 9.48062 36.5759C9.39962 34.5629 7.04261 34.7939 5.48661 35.0709C4.94361 35.1679 4.63861 35.7499 4.77761 36.2059C4.93261 36.7189 5.48361 36.9479 6.02661 36.8519C6.48961 36.7689 6.94461 36.6979 7.41861 36.7019C7.43061 36.7009 7.45661 36.7059 7.48561 36.7109Z" fill="white"/>
<path d="M21.6688 37.8069V37.2509C22.2258 36.7509 22.0068 35.6519 20.9918 35.6519H16.2528C14.9418 35.6519 14.9418 37.4979 16.2528 37.4979H19.6378V37.8059C19.6378 38.9979 21.6688 38.9979 21.6688 37.8069Z" fill="white"/>
<path d="M3.38773 44.5778C1.53073 44.5218 1.88673 42.8368 2.75173 41.8448C3.55673 40.9228 2.12973 39.6068 1.31573 40.5388C0.351732 41.6438 -0.252269 42.9418 0.102731 44.3658C0.449731 45.7548 1.95773 46.3818 3.38673 46.4248C4.69773 46.4638 4.69373 44.6168 3.38773 44.5778Z" fill="white"/>
<path d="M68.9837 44.204C56.7197 42.675 64.3307 58.909 65.8517 65.069C64.8007 65.317 63.7247 65.4319 62.6207 65.4069C61.3097 65.3649 61.3137 67.212 62.6207 67.253C64.3207 67.308 65.6337 67.024 67.2907 66.606C67.8727 66.459 68.0807 65.968 67.9997 65.47C67.3677 61.54 59.4377 44.862 68.4437 45.985C69.7257 46.144 70.2767 44.365 68.9837 44.204Z" fill="white"/>
<path d="M58.4897 45.4349C55.6887 44.5149 52.9677 44.2298 50.2587 45.5288C49.1007 46.0838 50.1267 47.6769 51.2837 47.1229C53.5027 46.0599 55.6957 46.4758 57.9497 47.2168C59.1857 47.6208 59.7117 45.8369 58.4897 45.4349Z" fill="white"/>
<path d="M65.6678 70.0239C61.3288 70.0519 56.9888 70.5089 53.3148 67.9959C52.2678 67.2789 51.2568 68.8839 52.2898 69.5899C56.2618 72.3089 60.9608 71.9019 65.6678 71.8709C66.9768 71.8619 66.9778 70.0149 65.6678 70.0239Z" fill="white"/>
<path d="M68.6467 48.821C67.0907 48.545 64.7337 48.314 64.6527 50.326C64.6057 51.467 66.4447 51.5 66.6477 50.462C66.6767 50.457 66.7037 50.451 66.7147 50.451C67.1887 50.447 67.6437 50.519 68.1067 50.601C68.6497 50.698 69.2007 50.468 69.3557 49.956C69.4937 49.499 69.1897 48.917 68.6467 48.821Z" fill="white"/>
<path d="M54.4958 51.558V51.249H57.8808C59.1918 51.249 59.1918 49.403 57.8808 49.403H53.1418C52.1268 49.403 51.9088 50.501 52.4648 51.001V51.558C52.4648 52.748 54.4958 52.748 54.4958 51.558Z" fill="white"/>
<path d="M44.1746 59.9309C49.8306 57.0129 49.1206 51.3289 48.8316 46.1189C48.5006 40.1449 50.9906 33.0829 59.1146 34.5379C62.0626 35.0649 69.4186 37.7419 66.8216 41.5509C66.1296 42.5669 67.8866 43.4919 68.5746 42.4839C72.8756 36.1759 60.5956 31.9069 55.5256 32.6719C51.0626 33.3449 47.8366 36.3939 47.0926 40.4759C46.4286 44.1299 47.2156 47.6919 47.0006 51.3539C46.8386 54.1179 46.2856 57.1189 43.1476 58.3379C40.2896 59.4479 37.1406 59.3949 35.8376 56.2369C35.3826 55.1329 33.4186 55.6109 33.8796 56.7279C35.4866 60.6199 40.1066 62.0309 44.1746 59.9309Z" fill="white"/>
<path d="M40.8948 53.9699C46.3098 50.3919 43.6418 43.7309 43.1148 38.7039C42.0988 29.0199 50.1448 23.4879 60.3458 25.1719C63.3028 25.6599 66.7818 26.6079 69.1568 28.5069C69.0988 30.3759 68.7008 32.3119 68.4138 34.0759C68.2238 35.2399 70.1808 35.7419 70.3718 34.5669C70.5748 33.3209 70.8268 31.9549 70.9938 30.5609C71.3168 31.0979 71.5748 31.6779 71.7378 32.3189C72.6228 35.7859 71.7088 39.1059 70.4448 42.3869C70.0098 43.5129 71.9728 43.9929 72.4028 42.8769C74.4018 37.6869 75.2198 32.0909 71.1718 27.8659C71.1718 24.8159 70.3358 21.9209 67.2118 20.1649C63.1678 17.8929 56.8548 17.0119 52.6298 19.3669C51.5168 19.9889 52.5358 21.5859 53.6548 20.9609C56.9248 19.1389 62.4038 19.6339 65.5988 21.4289C67.6678 22.5929 68.6168 24.2229 68.9778 26.0449C64.1288 22.9039 55.9928 22.0719 50.6028 23.8319C46.0878 25.3069 42.9018 28.2949 41.6018 32.2189C41.5458 32.2799 41.4858 32.3319 41.4438 32.4159C40.7178 33.8609 39.8698 35.1489 38.7938 36.4129C35.7148 40.0299 31.9278 36.8649 31.9568 33.1209C31.9858 29.4209 33.3068 25.8219 33.1808 22.1109C32.9878 16.4029 29.3598 11.9849 23.5328 10.0819C18.1428 8.32191 10.0068 9.15391 5.15779 12.2949C5.51879 10.4739 6.46779 8.84291 8.53679 7.67891C11.7318 5.88391 17.2118 5.38791 20.4808 7.21091C21.5998 7.83591 22.6198 6.23791 21.5058 5.61691C17.2808 3.26191 10.9678 4.14291 6.92379 6.41491C3.79979 8.17091 2.96379 11.0649 2.96379 14.1159C-1.08521 18.3409 -0.266214 23.9369 1.73279 29.1269C2.16279 30.2439 4.12579 29.7629 3.69079 28.6369C2.42679 25.3559 1.51279 22.0359 2.39779 18.5689C2.56079 17.9279 2.81879 17.3479 3.14179 16.8109C3.30879 18.2049 3.56079 19.5719 3.76379 20.8169C3.95479 21.9919 5.91179 21.4899 5.72179 20.3259C5.43479 18.5619 5.03579 16.6259 4.97879 14.7569C7.35379 12.8579 10.8328 11.9099 13.7898 11.4219C23.9908 9.73791 32.0368 15.2699 31.0208 24.9539C30.4938 29.9799 27.8258 36.6419 33.2408 40.2199C35.9538 42.0129 38.9238 39.4519 40.9668 36.8249C41.0628 40.1969 42.1538 43.4919 42.1798 46.8699C42.2088 50.6139 38.4218 53.7799 35.3428 50.1629C34.5098 49.1839 33.8158 48.1899 33.2058 47.1209C36.2408 47.3649 39.0688 45.8499 40.2538 42.9769C40.7148 41.8589 38.7508 41.3809 38.2958 42.4859C36.9928 45.6429 33.8448 45.6969 30.9858 44.5869C27.8478 43.3669 27.2958 40.3659 27.1328 37.6029C26.9178 33.9399 27.7048 30.3779 27.0408 26.7239C26.2978 22.6419 23.0708 19.5929 18.6078 18.9199C13.5388 18.1559 1.25779 22.4239 5.55879 28.7319C6.24679 29.7409 8.00379 28.8149 7.31179 27.7989C4.71479 23.9899 12.0708 21.3139 15.0188 20.7859C23.1428 19.3309 25.6328 26.3929 25.3018 32.3669C25.0128 37.5779 24.3028 43.2619 29.9588 46.1789C30.2568 46.3329 30.5588 46.4619 30.8598 46.5789C30.8378 46.7429 30.8458 46.9149 30.9368 47.0969C31.3198 47.8599 32.0458 49.0929 32.9898 50.3409C32.7408 50.4859 32.5458 50.7119 32.5028 51.0399C31.7368 56.9099 28.3638 62.1799 22.6268 65.1039C20.3748 66.2509 16.8188 67.0479 14.2528 66.5859C11.7278 66.1299 12.2018 61.8909 12.1908 60.2719C12.1818 59.0829 10.1508 59.0809 10.1598 60.2719C10.2028 66.0639 11.6808 69.3929 18.6758 68.2019C27.5038 66.6969 33.0258 59.6789 34.3778 51.9809C36.2908 53.9929 38.6788 55.4349 40.8948 53.9699Z" fill="white"/>
<path d="M61.9426 74.0249C61.9306 75.6439 62.4056 79.8829 59.8806 80.3389C57.3146 80.8009 53.7586 80.0039 51.5066 78.8569C45.7696 75.9319 42.3966 70.6629 41.6306 64.7929C41.4786 63.6249 39.4456 63.6109 39.5996 64.7929C40.6516 72.8529 46.2716 80.3889 55.4586 81.9549C62.4526 83.1459 63.9316 79.8169 63.9746 74.0249C63.9826 72.8329 61.9516 72.8349 61.9426 74.0249Z" fill="white"/>
<path d="M72.8167 54.29C72.0037 53.356 70.5767 54.673 71.3807 55.595C72.2457 56.587 72.6027 58.273 70.7447 58.328C69.4377 58.367 69.4337 60.214 70.7447 60.175C72.1737 60.132 73.6827 59.5049 74.0287 58.1159C74.3857 56.6929 73.7807 55.395 72.8167 54.29Z" fill="white"/>
</svg>
